<svg width="153" height="161" viewBox="0 0 153 161" fill="none" xmlns="http://www.w3.org/2000/svg">
<path d="M28.012 113.634L29.004 111.513C24.073 108.263 19.8303 105.174 16.5393 102.673C1.97886 91.4363 10.8212 24.8583 22.7784 13.4744C33.425 3.27881 85.025 20.2241 95.9324 24.0068C96.032 24.0157 96.032 24.0157 96.1316 24.0245C97.0103 24.3036 97.5902 24.5561 97.889 24.5827C97.9886 24.5916 97.9886 24.5916 97.9886 24.5916C98.0882 24.6004 98.0882 24.6004 98.0882 24.6004C110.928 30.3624 115.564 56.0752 113.355 80.877C111.616 100.4 105.585 119.64 96.5478 128.674C94.0302 133.269 89.6426 135.187 87.0904 135.663L86.475 135.809L81.2955 135.347C80.2087 135.15 79.1219 134.953 77.9356 134.747C75.7708 134.253 73.4158 133.641 71.1692 132.939L71.0273 134.533L76.991 143.096L75.9037 157.556L17.9332 152.392L9.53743 140.701L10.407 130.94C10.4158 130.84 21.8404 115.293 28.012 113.634ZM74.2836 97.9777C74.3675 99.2903 74.551 100.612 74.7344 101.933C74.7808 102.54 74.9268 103.155 74.9731 103.762C74.9643 103.861 75.055 103.97 75.0373 104.169C75.0925 104.676 75.1566 105.083 75.3115 105.599C75.3026 105.699 75.3933 105.807 75.3756 106.006C75.4308 106.513 75.4949 106.92 75.6586 107.337C75.7228 107.744 75.7869 108.151 75.9506 108.567C76.5986 111.436 77.3817 113.915 78.2003 115.996C78.364 116.412 78.5277 116.829 78.7003 117.145C78.9548 117.67 79.2092 118.194 79.4637 118.719C79.5456 118.927 79.6363 119.036 79.7181 119.244C79.8907 119.56 80.0633 119.877 80.2448 120.094C80.4174 120.41 80.6896 120.736 80.8622 121.052C80.8622 121.052 80.8533 121.152 80.9529 121.161C81.1344 121.378 81.3158 121.595 81.4973 121.812C81.5969 121.821 81.588 121.92 81.588 121.92C82.1324 122.571 82.6946 123.023 83.2656 123.375C83.3652 123.384 83.4559 123.492 83.5555 123.501C83.7459 123.618 83.8455 123.627 84.0358 123.745C84.1354 123.753 84.2262 123.862 84.4254 123.88C84.525 123.889 84.7242 123.906 84.8238 123.915C84.9234 123.924 85.023 123.933 85.1226 123.942C85.2222 123.951 85.2222 123.951 85.3218 123.96C85.521 123.977 85.6295 123.887 85.8287 123.904C85.9283 123.913 86.0368 123.822 86.1364 123.831C86.236 123.84 86.3445 123.749 86.3445 123.749C86.4441 123.758 86.5526 123.668 86.6611 123.577C86.7695 123.486 86.8691 123.495 86.9776 123.404C87.1857 123.322 87.2942 123.232 87.5111 123.05C87.6196 122.96 87.7281 122.869 87.8366 122.778C89.446 121.616 91.0268 119.649 92.7693 116.993C92.8956 116.703 93.1214 116.422 93.2476 116.132C93.9517 114.99 94.5651 113.739 95.1874 112.389C95.4309 111.909 95.6745 111.429 95.8273 110.84C97.4594 107.17 98.9543 102.786 100.204 97.7768C100.365 97.0884 100.527 96.4 100.689 95.7117C101.812 90.9927 102.581 85.7402 103.087 80.0627C103.176 79.0666 103.255 78.1702 103.344 77.1741C103.415 76.3773 103.486 75.5804 103.457 74.7747C104.093 60.8763 102.38 49.6801 99.7051 42.5145C99.3865 41.5826 99.0591 40.7503 98.6232 40.0087C97.9506 38.5432 97.2513 37.3766 96.5343 36.4091C95.2818 34.6912 93.8676 33.6617 92.5727 33.5463C91.3774 33.4398 90.0205 34.0217 88.6014 35.3009C87.9505 35.8453 87.2908 36.4893 86.6133 37.3325C85.6015 38.5475 84.6715 39.9706 83.715 41.6925C82.8846 43.1245 82.1362 44.7645 81.2792 46.4953C79.2596 51.1344 77.3328 56.9865 75.9148 63.888C75.7087 65.0743 75.5027 66.2607 75.2877 67.5467C75.2611 67.8456 75.126 68.2351 75.0994 68.5339C74.9288 69.3219 74.8667 70.0191 74.7957 70.816C74.7513 71.314 74.5985 71.9028 74.5452 72.5004L74.5364 72.6C74.5009 72.9984 74.4654 73.3968 74.4299 73.7953C74.4033 74.0941 74.3767 74.3929 74.35 74.6917C74.3145 75.0901 74.2702 75.5882 74.2347 75.9866C74.1992 76.385 74.1548 76.883 74.1105 77.3811C74.0395 78.1779 73.9774 78.8752 73.9153 79.5724C73.8798 79.9708 73.8354 80.4688 73.7999 80.8673C73.791 80.9669 73.7822 81.0665 73.7733 81.1661C73.7378 81.5645 73.7023 81.9629 73.6668 82.3614C73.6511 83.6651 73.5357 84.96 73.5289 86.1641C73.4845 86.6621 73.5397 87.169 73.4865 87.7667C73.4619 89.17 73.4373 90.5734 73.5211 91.886C73.5675 92.4925 73.605 93.1986 73.5518 93.7962C73.5429 93.8959 73.5251 94.0951 73.5163 94.1947C73.4897 94.4935 73.5626 94.8012 73.536 95.1C73.5183 95.2992 73.5913 95.6069 73.5735 95.8061C74.109 96.5566 74.2461 97.2716 74.2836 97.9777Z" fill="#943A00"/>
<path d="M97.889 24.5826C97.5991 24.4564 97.0103 24.3036 96.2312 24.0334C96.7204 24.1773 97.3091 24.3302 97.889 24.5826ZM81.2048 135.239L78.5154 134.999L77.8448 134.638C79.0223 134.944 80.1091 135.141 81.2048 135.239Z" fill="#943A00"/>
<path d="M74.3097 77.3988C74.2387 78.1956 74.1766 78.8929 74.1145 79.5901C74.079 79.9885 74.0346 80.4865 73.9991 80.885C73.9902 80.9846 73.9814 81.0842 73.9725 81.1838C73.937 81.5822 73.9015 81.9806 73.866 82.379C73.8503 83.6828 73.7349 84.9777 73.728 86.1818C73.6837 86.6798 73.7389 87.1867 73.6857 87.7844C73.6611 89.1877 73.6365 90.5911 73.7203 91.9037C73.7667 92.5102 73.8042 93.2163 73.7509 93.8139C73.7421 93.9135 73.7243 94.1128 73.7155 94.2124C73.6888 94.5112 73.7618 94.8189 73.7352 95.1177C73.7175 95.3169 73.7904 95.6246 73.7727 95.8238C73.8102 96.5299 73.8477 97.236 73.8941 97.8425C73.9779 99.1551 74.1614 100.477 74.3449 101.798C74.3912 102.405 74.5372 103.02 74.5836 103.627C74.5747 103.726 74.6654 103.835 74.6477 104.034C74.7029 104.541 74.767 104.948 74.9219 105.464C74.913 105.563 75.0037 105.672 74.986 105.871C75.0412 106.378 75.1054 106.785 75.2691 107.201C75.3332 107.609 75.3973 108.016 75.561 108.432C76.209 111.301 76.9921 113.78 77.8107 115.861C77.9745 116.277 78.1382 116.693 78.3108 117.01C78.5652 117.535 78.8197 118.059 79.0741 118.584C79.156 118.792 79.2467 118.901 79.3286 119.109C79.5012 119.425 79.6738 119.742 79.8552 119.959C80.0278 120.275 80.3 120.601 80.4726 120.917C80.4726 120.917 80.4637 121.017 80.5633 121.026C80.7448 121.243 80.9263 121.46 81.1077 121.677C81.2073 121.685 81.1985 121.785 81.1985 121.785C81.7429 122.436 82.305 122.888 82.876 123.24C82.9756 123.249 83.0664 123.357 83.166 123.366C83.3563 123.483 83.4559 123.492 83.6462 123.609C83.7458 123.618 83.8366 123.727 84.0358 123.745C84.1354 123.753 84.3346 123.771 84.4342 123.78C84.5338 123.789 84.6334 123.798 84.733 123.807C84.8326 123.816 84.8326 123.816 84.9322 123.824C85.1315 123.842 85.2399 123.751 85.4391 123.769C85.5387 123.778 85.6472 123.687 85.7468 123.696C85.8464 123.705 85.9549 123.614 85.9549 123.614C86.0634 123.524 86.163 123.532 86.2715 123.442C86.38 123.351 86.4796 123.36 86.588 123.269C86.7961 123.187 86.9046 123.097 87.1216 122.915C87.23 122.824 87.3385 122.734 87.447 122.643C89.0564 121.481 90.6372 119.514 92.3798 116.858C91.5483 112.667 89.4259 110.571 89.4259 110.571L90.8634 94.4348L95.3485 91.4208L96.2979 80.763L79.5123 60.6945L80.9804 46.4687C78.9608 51.1078 77.0339 56.9599 75.616 63.8613C75.4099 65.0477 75.2038 66.2341 74.9889 67.5201C74.9622 67.8189 74.8271 68.2084 74.8005 68.5073C74.6299 69.2952 74.5678 69.9925 74.4968 70.7893C74.4525 71.2873 74.2996 71.8761 74.2464 72.4737L74.2375 72.5733C74.202 72.9718 74.1665 73.3702 74.1311 73.7686C74.1044 74.0674 74.0778 74.3662 74.0512 74.6651C74.0157 75.0635 73.9713 75.5615 73.9358 75.9599C74.3895 76.5023 74.3451 77.0003 74.3097 77.3988Z" fill="#B3B3B3"/>
<path d="M96.0457 91.483L91.5606 94.4969L90.1143 110.733C90.1143 110.733 92.2367 112.829 93.0682 117.02C93.1944 116.73 93.4202 116.449 93.5464 116.159C94.2505 115.017 94.8639 113.766 95.4862 112.416C95.7297 111.936 95.9733 111.455 96.1262 110.867C97.7582 107.197 99.2531 102.812 100.503 97.8034C100.664 97.115 100.826 96.4267 100.988 95.7383C102.111 91.0193 102.88 85.7669 103.386 80.0893C103.474 79.0933 103.554 78.1968 103.643 77.2008C103.714 76.4039 103.785 75.6071 103.756 74.8014C104.392 60.903 102.679 49.7068 100.004 42.5412C99.6853 41.6092 99.3579 40.7769 98.922 40.0353C98.2494 38.5698 97.5501 37.4032 96.8331 36.4358C95.5806 34.7179 94.1664 33.6883 92.8715 33.573C91.6763 33.4665 90.3193 34.0484 88.9002 35.3275C88.2493 35.8719 87.5896 36.5159 86.9121 37.3591C85.9003 38.5741 84.9703 39.9972 84.0138 41.7192C83.1834 43.1511 82.435 44.7912 81.578 46.522L80.11 60.7478L96.9951 80.8252L96.0457 91.483Z" fill="#351C0E"/>
<path d="M81.2048 135.239C82.9888 135.498 84.7817 135.658 86.3843 135.7L81.2048 135.239Z" fill="#943A00"/>
<path d="M75.1646 74.5635L74.5492 74.7094C74.6113 74.0122 74.6735 73.315 74.8352 72.6266C79.3332 71.7221 83.2799 71.3709 86.6024 71.2653C87.174 56.9596 87.0414 43.7959 86.9121 37.3591C87.5896 36.5159 88.2493 35.8719 88.9002 35.3275C89.0187 40.7594 89.3347 55.2446 88.7118 71.2524C92.8223 71.3174 96.0826 71.909 98.5284 72.6289C99.102 59.4277 98.9892 47.1694 98.922 40.0353C99.2494 40.8676 99.6765 41.7088 100.004 42.5411C100.053 49.8745 100.065 61.0194 99.6152 72.8261C101.563 73.5016 102.904 74.2234 103.765 74.7017C103.694 75.4986 103.723 76.3043 103.652 77.1011L103.47 76.8842C103.47 76.8842 102.255 75.8724 99.6281 74.9356C99.3502 81.4365 98.9549 88.1279 98.2874 94.4938C99.4561 94.899 100.417 95.3862 101.087 95.7471C100.926 96.4355 100.764 97.1239 100.602 97.8122C100.031 97.4602 99.1613 97.0815 98.0015 96.5766C97.3961 102.245 96.6093 107.697 95.5858 112.425C94.9635 113.775 94.3501 115.025 93.646 116.167C95.1478 110.579 96.267 103.651 97.0232 96.2887C94.7766 95.5866 91.5251 94.8953 87.3151 94.8215C86.1487 105.661 84.4646 115.55 81.7784 122.038C81.3247 121.495 80.8799 120.853 80.3444 120.103C82.5148 113.77 84.128 104.678 85.1149 94.7259C82.0005 94.7496 78.3526 95.1274 74.0627 95.95C74.0252 95.2439 73.9788 94.6374 73.9413 93.9313C78.2312 93.1087 81.9787 92.7398 85.2923 92.7338C85.9598 86.3679 86.3462 79.7762 86.6241 73.2752C83.4101 73.2901 79.5541 73.7497 75.1646 74.5635ZM87.4018 92.7209C91.6118 92.7947 94.7637 93.4771 97.2095 94.1969C97.877 87.8311 98.2723 81.1397 98.5502 74.6388C96.204 73.9278 93.0432 73.345 88.7336 73.2623C88.3649 79.6548 87.9697 86.3461 87.4018 92.7209Z" fill="black"/>
<path d="M4.17963 146.75L8.0465 147.295C10.229 147.59 12.1727 146.056 12.4675 143.874L15.81 119.876C16.1048 117.693 14.5712 115.75 12.3888 115.455L8.52192 114.909C6.33947 114.615 4.39573 116.148 4.10092 118.331L0.758413 142.329C0.472475 144.412 1.99718 146.455 4.17963 146.75Z" fill="#93624A"/>
<circle opacity="0.5" cx="131" cy="43" r="12" fill="#D9D9D9"/>
<circle opacity="0.5" cx="145" cy="18" r="8" fill="#D9D9D9"/>
<circle opacity="0.5" cx="127" cy="4" r="4" fill="#D9D9D9"/>
</svg>
