<svg width="99" height="99" viewBox="0 0 99 99" fill="none" xmlns="http://www.w3.org/2000/svg">
<rect width="99" height="99" rx="7" fill="#915C0F"/>
<path d="M22.954 49.0701C26.2079 54.8123 32.3329 58.2576 42.4774 59.2146C40.9462 60.363 39.2235 62.4685 39.0321 64.9568C37.1181 66.1052 33.4814 66.488 30.6103 65.531C26.5907 64.1912 25.0595 56.3435 18.9345 57.492C17.5946 57.6834 17.786 58.6404 18.9345 59.406C20.8485 60.5545 22.954 62.4685 23.911 65.1482C26.2079 71.0818 30.9931 72.613 38.6493 71.4646V80.0779C38.6493 82.7576 34.8212 83.5232 34.8212 84.863C34.8212 85.4373 36.161 85.4373 37.1181 85.4373C39.0321 85.4373 43.2431 83.7146 43.2431 81.0349C43.2431 78.738 43.2431 71.0818 43.4345 69.742C43.4345 66.8709 44.9657 65.9138 44.9657 65.9138C44.9657 65.9138 45.1571 81.6091 44.5829 83.5232C43.8173 86.0115 42.6689 85.6287 42.6689 86.7771C42.6689 88.4998 47.6454 87.1599 49.3681 83.5232C50.7079 80.6521 50.1337 65.3396 49.9423 65.531H51.2821C51.2821 65.531 51.2821 72.613 51.4735 75.6755C51.4735 78.9295 51.2821 83.1404 53.1962 85.2459C54.536 86.5857 58.747 88.8826 58.747 86.7771C58.747 85.6287 56.4501 84.4802 56.4501 81.2263V66.1052C58.3642 66.1052 57.9814 71.0818 57.9814 71.0818L58.1728 80.2693C58.1728 80.2693 57.7899 83.7146 61.8095 85.0545C63.3407 85.6287 66.4032 85.6287 66.5946 84.863C66.786 84.0974 62.7665 82.7576 62.7665 80.0779V70.699C62.7665 63.8084 61.8095 61.3201 58.5556 59.2146C68.7001 58.2576 75.0165 55.7693 78.079 49.0701C79.9931 45.242 80.3759 40.6482 80.3759 37.2029C80.3759 27.6326 75.7821 24.3787 74.8251 22.656C76.165 15.3826 74.6337 12.1287 73.8681 11.1716C71.1884 10.2146 64.6806 13.4685 61.2353 15.7654C55.4931 14.0427 43.2431 14.2341 38.6493 16.1482C30.2274 10.2146 25.8251 11.1716 25.8251 11.1716C25.8251 11.1716 22.954 16.3396 25.0595 23.8045C22.1884 27.2498 20.2743 29.738 20.0829 36.2459C20.0829 41.4138 20.6571 44.6677 22.954 49.0701Z" fill="#694606"/>
</svg>
