<svg width="238" height="223" viewBox="0 0 238 223" fill="none" xmlns="http://www.w3.org/2000/svg">
<g opacity="0.5">
<path d="M113.704 200.982L71.4648 219.629L61.1504 214.73L58.0105 207.617C58.0105 207.617 59.9815 192.438 63.7037 188.887L63.2178 183.465C63.2178 183.465 59.3111 183.455 56.4425 177.35C56.4425 177.35 52.6771 178.839 51.1608 176.387C49.7171 173.902 25.8425 134.751 25.8425 134.751C25.8425 134.751 23.6834 131.629 31.9571 127.976C31.9571 127.976 41.2009 119.646 53.004 118.685L68.9867 124.637L73.4232 135.079L92.745 142.506L96.1733 150.271L94.2145 154.085L99.437 165.914C99.437 165.914 103.639 167.182 106.074 172.697C108.509 178.213 104.49 181.288 104.49 181.288L99.9898 183.275L101.56 186.831L108.986 190.49L113.704 200.982Z" fill="#B3B3B3"/>
<path d="M3 112.125C3 112.125 3.1547 108.417 6.60322 105.443C8.65085 103.677 11.1099 103.166 13.3133 103.135C15.3255 103.109 17.1239 103.465 18.1993 104.013C20.0374 104.955 23.6267 107.248 23.6267 112.125C23.6267 117.258 20.4919 119.584 16.9284 122.148C13.3649 124.711 12.4539 127.225 12.4539 130.107" stroke="white" stroke-width="5" stroke-miterlimit="10" stroke-linecap="round"/>
<path d="M12.52 142.007C14.2726 142.007 15.6934 140.408 15.6934 138.437C15.6934 136.465 14.2726 134.867 12.52 134.867C10.7674 134.867 9.34668 136.465 9.34668 138.437C9.34668 140.408 10.7674 142.007 12.52 142.007Z" fill="white"/>
</g>
<rect opacity="0.5" x="106.413" y="64" width="50" height="51" rx="11" fill="#633415"/>
<rect opacity="0.5" x="156.413" y="152" width="51" height="51" rx="11" fill="#633415"/>
<rect opacity="0.5" x="187.413" y="74" width="50" height="51" rx="11" fill="#93624A"/>
<rect opacity="0.5" x="60.4135" width="51" height="51" rx="11" fill="#93624A"/>
<g opacity="0.5" clip-path="url(#clip0_32_170)">
<path fill-rule="evenodd" clip-rule="evenodd" d="M132.685 70.0981C129.778 71.1025 126.973 74.0339 124.269 78.8923C120.212 86.1799 114.972 96.5358 122.187 104.735C125.525 108.528 131.036 110.767 138.269 107.221C144.079 104.373 145.695 96.1987 143.609 92.3575C139.306 84.4338 134.941 82.4795 133.772 77.5656C132.992 74.2896 132.63 71.8005 132.685 70.0981V70.0981Z" fill="url(#paint0_linear_32_170)"/>
<path fill-rule="evenodd" clip-rule="evenodd" d="M132.684 70C129.764 71.0147 126.958 73.9461 124.269 78.7941C120.234 86.0662 114.972 96.4376 122.187 104.637C125.525 108.43 130.965 109.656 133.984 107.406C135.952 105.94 137.29 104.542 138.062 101.596C138.92 98.3162 138.261 93.9005 137.81 91.872C137.239 89.3052 137.052 86.4879 137.249 83.4202C137.18 83.3376 137.128 83.2758 137.093 83.2348C135.522 81.3595 134.309 79.7261 133.772 77.4674C132.992 74.1915 132.63 71.7023 132.684 70V70Z" fill="url(#paint1_linear_32_170)"/>
<path fill-rule="evenodd" clip-rule="evenodd" d="M130.266 71.2759C127.546 73.3722 125.523 76.8885 124.198 81.8248C122.21 89.2291 121.995 96.0572 122.696 100.029C124.055 107.728 131.099 110.65 138.325 107.067C142.772 104.861 144.625 100.127 144.526 94.9889C144.425 89.6684 133.88 83.6386 132.012 79.1983C130.767 76.2381 130.185 73.5973 130.266 71.2759V71.2759Z" fill="url(#paint2_linear_32_170)"/>
<path fill-rule="evenodd" clip-rule="evenodd" d="M137.163 85.1575C140.426 89.2373 141.137 92.0773 139.297 93.6775C136.536 96.0779 129.786 97.644 125.586 94.7404C122.787 92.8046 121.727 88.652 122.408 82.2825C121.253 84.6357 120.276 87.0196 119.477 89.434C118.678 91.8485 118.445 94.3751 118.777 97.0141C119.778 98.9882 122.212 100.307 126.078 100.97C131.877 101.964 137.365 101.473 141.048 99.6624C143.503 98.4557 144.665 97.2544 144.532 96.0586C144.621 94.2927 144.062 92.6117 142.856 91.0156C141.651 89.4194 139.753 87.4667 137.163 85.1575V85.1575Z" fill="url(#paint3_linear_32_170)"/>
<path fill-rule="evenodd" clip-rule="evenodd" d="M124.413 81.084C124.386 84.0304 125.163 86.8313 126.744 89.4867C129.116 93.4698 131.885 97.4057 136.028 100.668C138.79 102.843 140.997 103.546 142.649 102.776C141.292 105.144 139.85 106.304 138.321 106.257C136.028 106.186 133.232 105.209 128.752 99.96C125.766 96.4609 123.723 93.1509 122.623 90.0301C122.798 88.7921 122.983 87.559 123.178 86.3307C123.374 85.1025 123.785 83.3536 124.413 81.084V81.084Z" fill="url(#paint4_linear_32_170)"/>
<path fill-rule="evenodd" clip-rule="evenodd" d="M131.421 85.1273C131.674 87.5276 132.632 91.3671 131.421 93.9234C130.209 96.4798 124.614 101.098 126.158 105.166C127.703 109.234 131.467 108.321 133.828 106.446C136.189 104.571 137.453 101.523 137.733 99.3788C138.013 97.2349 137.063 93.1097 136.754 89.5216C136.548 87.1295 136.687 85.0785 137.173 83.3687L136.45 82.481L132.191 81.2517C131.508 82.2353 131.252 83.5272 131.421 85.1273V85.1273Z" fill="url(#paint5_linear_32_170)"/>
<path fill-rule="evenodd" clip-rule="evenodd" d="M132.941 73.2388C131.562 73.8066 130.256 74.9317 129.023 76.6142C127.173 79.1378 126.231 80.6506 126.928 85.6532C127.393 88.9882 127.726 92.0563 127.927 94.8576L133.891 77.9615C133.672 77.1006 133.489 76.323 133.344 75.6289C133.198 74.9348 133.064 74.1381 132.941 73.2388V73.2388Z" fill="url(#paint6_linear_32_170)"/>
<path fill-rule="evenodd" clip-rule="evenodd" d="M133.88 77.9277C132.365 78.7894 131.192 80.5547 130.36 83.2237C129.528 85.8926 128.766 89.6238 128.075 94.4171C128.997 91.3684 129.608 89.1602 129.908 87.7926C130.36 85.7411 130.514 82.8401 131.713 80.8706C132.512 79.5576 133.234 78.5766 133.88 77.9277V77.9277Z" fill="#330A4C" fill-opacity="0.316321"/>
<path fill-rule="evenodd" clip-rule="evenodd" d="M126.869 106.525C129.361 106.872 130.664 107.18 130.778 107.45C130.949 107.855 130.462 108.226 129.079 107.977C128.157 107.811 127.42 107.327 126.869 106.525Z" fill="white"/>
<path fill-rule="evenodd" clip-rule="evenodd" d="M128.121 73.2388C126.75 74.8351 125.563 76.5274 124.558 78.3158C123.553 80.1042 122.836 81.4384 122.405 82.3184C122.271 82.9747 122.206 83.9432 122.209 85.2237C122.212 86.5043 122.326 87.9282 122.55 89.4953C122.746 86.4265 123.346 83.4478 124.351 80.559C125.356 77.6703 126.612 75.2302 128.121 73.2388V73.2388Z" fill="#EDEDED" fill-opacity="0.603261"/>
</g>
<g opacity="0.5">
<path d="M69.5385 13.1281L86.292 7L103.486 13.0333L100.708 35.8045L86.292 44L72.1102 35.9109L69.5385 13.1281Z" fill="#E23237"/>
<path d="M103.486 13.0333L86.2919 7V44L100.708 35.8045L103.486 13.0333Z" fill="#B52E31"/>
<path d="M86.3178 11.3245L75.8778 35.1895L79.7737 35.1085L81.8774 29.7158H91.2149L93.5009 35.1502L97.2157 35.2311L86.3178 11.3245ZM86.3437 18.9858L89.8762 26.5673H83.2634L86.3538 18.9858H86.3437Z" fill="white"/>
</g>
<path fill-rule="evenodd" clip-rule="evenodd" d="M226.731 109.071C224.881 109.017 223.447 109.217 222.244 109.75C221.898 109.897 221.342 109.897 221.296 110.357C221.482 110.55 221.504 110.865 221.666 111.133C221.943 111.618 222.43 112.272 222.869 112.611L224.349 113.727C225.251 114.308 226.268 114.648 227.147 115.23C227.656 115.569 228.164 116.006 228.673 116.37C228.932 116.564 229.089 116.879 229.413 117V116.927C229.252 116.709 229.205 116.394 229.044 116.151L228.349 115.448C227.679 114.503 226.846 113.678 225.944 112.999C225.204 112.466 223.586 111.739 223.285 110.842L223.239 110.788C223.747 110.733 224.349 110.545 224.835 110.399C225.622 110.182 226.338 110.23 227.147 110.012L228.258 109.672V109.455C227.841 109.018 227.541 108.436 227.102 108.025C225.922 106.958 224.626 105.915 223.285 105.042C222.568 104.558 221.643 104.242 220.88 103.831C220.601 103.685 220.139 103.612 219.978 103.37C219.56 102.837 219.33 102.133 219.029 101.503L217.133 97.2841C216.717 96.3385 216.462 95.393 215.954 94.5203C213.571 90.3986 210.981 87.9016 207.003 85.4525C206.147 84.9433 205.13 84.7243 204.048 84.458L202.314 84.3602C201.943 84.1907 201.573 83.7298 201.249 83.5114C199.931 82.6387 196.531 80.7476 195.559 83.2397C194.935 84.8156 196.485 86.367 197.011 87.1674C197.405 87.725 197.913 88.3553 198.191 88.9857C198.347 89.3976 198.398 89.8345 198.561 90.2708C198.93 91.3376 199.278 92.526 199.763 93.5204C200.022 94.0296 200.295 94.5638 200.619 95.024C200.804 95.2957 201.128 95.412 201.197 95.8484C200.873 96.3337 200.85 97.0602 200.665 97.6672C199.832 100.407 200.156 103.801 201.335 105.818C201.706 106.424 202.58 107.758 203.765 107.249C204.805 106.812 204.573 105.43 204.874 104.218C204.944 103.927 204.897 103.733 205.036 103.539V103.593L205.984 105.605C206.701 106.793 207.95 108.03 208.991 108.855C209.545 109.291 209.985 110.043 210.678 110.31V110.236H210.633C210.494 110.019 210.285 109.921 210.1 109.751C209.684 109.315 209.222 108.781 208.898 108.297C207.927 106.939 207.072 105.436 206.308 103.884C205.937 103.133 205.614 102.308 205.314 101.557C205.174 101.266 205.174 100.829 204.943 100.684C204.596 101.217 204.088 101.679 203.832 102.333C203.393 103.375 203.347 104.66 203.186 105.994C203.092 106.018 203.134 105.994 203.092 106.048C202.353 105.855 202.098 105.054 201.821 104.376C201.127 102.654 201.011 99.8903 201.612 97.9019C201.774 97.3928 202.469 95.7924 202.191 95.3077C202.051 94.8469 201.59 94.5806 201.335 94.2165C201.034 93.7557 200.711 93.1743 200.503 92.6651C199.948 91.3066 199.671 89.8041 199.069 88.4461C198.791 87.8157 198.306 87.1609 197.912 86.5795C197.473 85.9247 196.988 85.4639 196.641 84.6884C196.525 84.4167 196.363 83.9852 196.548 83.694C196.594 83.5 196.687 83.4223 196.871 83.3788C197.172 83.1071 198.028 83.4516 198.329 83.5962C199.184 83.9603 199.901 84.2993 200.618 84.808C200.942 85.0503 201.289 85.5111 201.706 85.6329H202.192C202.932 85.8024 203.764 85.6872 204.457 85.9046C205.683 86.3176 206.793 86.9229 207.788 87.5783C210.817 89.5905 213.316 92.4515 215.004 95.8707C215.281 96.4282 215.397 96.9374 215.652 97.5194C216.138 98.7078 216.739 99.9196 217.224 101.084C217.71 102.224 218.172 103.388 218.866 104.334C219.213 104.843 220.6 105.109 221.224 105.376C221.687 105.593 222.404 105.789 222.821 106.055C223.607 106.564 224.393 107.146 225.133 107.704C225.502 107.994 226.659 108.601 226.728 109.084L226.731 109.071ZM203.146 88.0021C202.826 87.9992 202.508 88.0399 202.198 88.1233V88.1776H202.244C202.429 88.5656 202.753 88.8324 202.984 89.1721L203.516 90.3361L203.562 90.2817C203.886 90.0394 204.048 89.6514 204.048 89.0699C203.909 88.9004 203.886 88.7303 203.771 88.5607C203.632 88.3184 203.331 88.1967 203.146 88.0032V88.0021Z" fill="#00678C"/>
<g opacity="0.5" clip-path="url(#clip1_32_170)">
<path d="M164.413 177.151C164.413 182.452 172.472 186.75 182.413 186.75C192.354 186.75 200.413 182.452 200.413 177.151C200.413 171.85 192.354 167.553 182.413 167.553C172.472 167.553 164.413 171.85 164.413 177.151Z" fill="url(#paint7_radial_32_170)"/>
<path d="M182.413 186.037C191.966 186.037 199.71 182.059 199.71 177.151C199.71 172.244 191.966 168.265 182.413 168.265C172.861 168.265 165.117 172.244 165.117 177.151C165.117 182.059 172.861 186.037 182.413 186.037Z" fill="#777BB3"/>
<path d="M174.193 178.253C174.978 178.253 175.565 178.106 175.936 177.817C176.303 177.53 176.556 177.034 176.689 176.341C176.813 175.694 176.766 175.242 176.549 174.998C176.327 174.749 175.848 174.623 175.124 174.623H173.869L173.173 178.253H174.193L174.193 178.253ZM170.087 182.724C170.029 182.724 169.974 182.698 169.937 182.652C169.918 182.63 169.905 182.603 169.898 182.575C169.891 182.547 169.89 182.517 169.896 182.488L171.74 172.869C171.749 172.824 171.772 172.784 171.807 172.754C171.842 172.725 171.886 172.709 171.932 172.709H175.906C177.156 172.709 178.085 173.052 178.67 173.731C179.257 174.413 179.439 175.366 179.209 176.564C179.116 177.052 178.955 177.505 178.731 177.911C178.507 178.317 178.212 178.693 177.852 179.028C177.421 179.437 176.934 179.733 176.404 179.908C175.883 180.08 175.214 180.167 174.415 180.167H172.806L172.346 182.564C172.338 182.609 172.314 182.65 172.279 182.679C172.244 182.708 172.2 182.724 172.155 182.724H170.087V182.724Z" fill="black"/>
<path d="M174.03 174.821H175.124C175.998 174.821 176.301 175.015 176.404 175.131C176.575 175.324 176.608 175.729 176.498 176.304C176.374 176.947 176.145 177.404 175.817 177.66C175.481 177.922 174.934 178.055 174.193 178.055H173.41L174.029 174.821H174.03ZM175.907 172.511H171.932C171.841 172.511 171.753 172.543 171.683 172.602C171.613 172.66 171.566 172.741 171.548 172.832L169.704 182.451C169.693 182.508 169.695 182.567 169.709 182.624C169.723 182.68 169.749 182.733 169.786 182.778C169.823 182.823 169.869 182.86 169.921 182.885C169.973 182.909 170.03 182.922 170.087 182.922H172.154C172.245 182.922 172.333 182.89 172.403 182.832C172.473 182.773 172.521 182.692 172.538 182.602L172.967 180.365H174.415C175.235 180.365 175.924 180.274 176.465 180.096C177.021 179.913 177.533 179.602 177.985 179.173C178.36 178.824 178.669 178.432 178.902 178.008C179.135 177.584 179.304 177.11 179.401 176.602C179.643 175.341 179.447 174.331 178.817 173.601C178.194 172.878 177.215 172.511 175.907 172.511L175.907 172.511ZM172.936 178.451H174.193C175.026 178.451 175.647 178.292 176.055 177.974C176.463 177.655 176.738 177.124 176.881 176.379C177.018 175.664 176.956 175.16 176.694 174.866C176.433 174.572 175.909 174.425 175.124 174.425H173.708L172.936 178.451L172.936 178.451ZM175.907 172.907C177.102 172.907 177.975 173.225 178.523 173.861C179.071 174.498 179.236 175.386 179.018 176.526C178.928 176.996 178.775 177.425 178.561 177.814C178.347 178.204 178.066 178.56 177.72 178.883C177.307 179.274 176.848 179.553 176.344 179.719C175.839 179.886 175.197 179.969 174.415 179.969H172.645L172.155 182.526H170.088L171.932 172.907H175.907" fill="white"/>
<path d="M183.949 180.167C183.89 180.167 183.835 180.141 183.798 180.095C183.761 180.049 183.746 179.989 183.757 179.931L184.573 175.675C184.65 175.27 184.631 174.98 184.519 174.857C184.45 174.782 184.244 174.656 183.633 174.656H182.155L181.129 180.007C181.121 180.052 181.097 180.092 181.062 180.122C181.027 180.151 180.983 180.167 180.938 180.167H178.887C178.858 180.167 178.83 180.16 178.804 180.148C178.778 180.135 178.755 180.117 178.736 180.095C178.718 180.072 178.705 180.046 178.698 180.018C178.691 179.989 178.69 179.96 178.695 179.931L180.539 170.312C180.548 170.267 180.572 170.226 180.607 170.197C180.642 170.168 180.686 170.152 180.731 170.152H182.782C182.811 170.152 182.839 170.158 182.865 170.171C182.891 170.183 182.914 170.201 182.933 170.224C182.951 170.246 182.964 170.273 182.971 170.301C182.978 170.329 182.979 170.359 182.974 170.388L182.529 172.709H184.119C185.33 172.709 186.151 172.926 186.63 173.371C187.118 173.825 187.269 174.552 187.082 175.53L186.224 180.007C186.215 180.052 186.191 180.093 186.156 180.122C186.121 180.151 186.077 180.167 186.032 180.167H183.949L183.949 180.167Z" fill="black"/>
<path d="M182.782 169.954H180.731C180.64 169.954 180.553 169.986 180.483 170.044C180.413 170.103 180.365 170.184 180.348 170.274L178.503 179.893C178.492 179.951 178.494 180.01 178.508 180.066C178.522 180.123 178.549 180.176 178.585 180.221C178.622 180.266 178.668 180.302 178.72 180.327C178.772 180.352 178.829 180.365 178.887 180.365H180.938C181.028 180.365 181.116 180.333 181.186 180.274C181.256 180.216 181.304 180.135 181.321 180.044L182.316 174.854H183.633C184.243 174.854 184.371 174.986 184.376 174.992C184.413 175.032 184.461 175.219 184.381 175.637L183.565 179.893C183.554 179.951 183.556 180.01 183.57 180.066C183.584 180.123 183.611 180.176 183.647 180.221C183.684 180.266 183.73 180.302 183.782 180.327C183.834 180.352 183.891 180.365 183.949 180.365H186.032C186.123 180.365 186.211 180.333 186.281 180.274C186.351 180.216 186.398 180.135 186.416 180.044L187.274 175.568C187.475 174.517 187.303 173.729 186.762 173.225C186.246 172.745 185.381 172.511 184.119 172.511H182.766L183.166 170.425C183.177 170.368 183.175 170.309 183.161 170.252C183.147 170.196 183.12 170.143 183.083 170.098C183.047 170.053 183.001 170.016 182.949 169.991C182.897 169.967 182.84 169.954 182.782 169.954L182.782 169.954ZM182.782 170.35L182.292 172.907H184.119C185.268 172.907 186.061 173.11 186.498 173.517C186.934 173.923 187.065 174.582 186.89 175.493L186.032 179.969H183.949L184.765 175.713C184.858 175.229 184.823 174.898 184.662 174.722C184.501 174.546 184.158 174.458 183.633 174.458H181.994L180.938 179.969H178.887L180.731 170.35H182.782" fill="white"/>
<path d="M190.327 178.253C191.112 178.253 191.699 178.106 192.07 177.817C192.437 177.53 192.69 177.034 192.823 176.341C192.947 175.694 192.9 175.242 192.683 174.998C192.461 174.749 191.981 174.623 191.257 174.623H190.002L189.306 178.253H190.327L190.327 178.253ZM186.221 182.724C186.163 182.724 186.108 182.698 186.071 182.652C186.052 182.63 186.039 182.603 186.032 182.575C186.025 182.547 186.024 182.517 186.029 182.488L187.874 172.869C187.882 172.824 187.906 172.784 187.941 172.754C187.976 172.725 188.02 172.709 188.066 172.709H192.04C193.29 172.709 194.219 173.052 194.804 173.731C195.391 174.413 195.573 175.366 195.343 176.564C195.249 177.052 195.089 177.505 194.865 177.911C194.641 178.317 194.345 178.693 193.986 179.028C193.555 179.437 193.067 179.733 192.538 179.908C192.017 180.08 191.348 180.167 190.549 180.167H188.939L188.48 182.564C188.471 182.609 188.447 182.65 188.412 182.679C188.377 182.708 188.334 182.724 188.288 182.724H186.221L186.221 182.724Z" fill="black"/>
<path d="M190.163 174.821H191.258C192.131 174.821 192.435 175.015 192.538 175.131C192.709 175.324 192.741 175.729 192.631 176.304C192.508 176.947 192.279 177.404 191.951 177.66C191.614 177.922 191.068 178.055 190.327 178.055H189.543L190.163 174.821H190.163ZM192.04 172.511H188.065C187.975 172.511 187.887 172.543 187.817 172.602C187.747 172.66 187.699 172.741 187.682 172.832L185.838 182.451C185.827 182.508 185.828 182.567 185.843 182.624C185.857 182.68 185.883 182.733 185.92 182.778C185.956 182.823 186.002 182.86 186.055 182.885C186.107 182.909 186.164 182.922 186.221 182.922H188.288C188.379 182.922 188.467 182.89 188.537 182.832C188.607 182.773 188.654 182.692 188.672 182.602L189.101 180.365H190.549C191.368 180.365 192.058 180.274 192.599 180.096C193.155 179.913 193.666 179.602 194.119 179.173C194.494 178.824 194.802 178.432 195.036 178.008C195.269 177.584 195.437 177.11 195.535 176.602C195.777 175.341 195.58 174.331 194.951 173.601C194.328 172.878 193.348 172.511 192.04 172.511L192.04 172.511ZM189.07 178.451H190.327C191.16 178.451 191.781 178.292 192.189 177.974C192.597 177.655 192.872 177.124 193.015 176.379C193.152 175.664 193.089 175.16 192.828 174.866C192.567 174.572 192.043 174.425 191.258 174.425H189.841L189.07 178.451L189.07 178.451ZM192.04 172.907C193.236 172.907 194.109 173.225 194.657 173.861C195.205 174.498 195.37 175.386 195.151 176.526C195.061 176.996 194.909 177.425 194.695 177.814C194.48 178.204 194.2 178.56 193.853 178.883C193.441 179.274 192.982 179.553 192.478 179.719C191.973 179.886 191.33 179.969 190.549 179.969H188.779L188.288 182.526H186.221L188.066 172.907H192.04" fill="white"/>
</g>
<defs>
<linearGradient id="paint0_linear_32_170" x1="132.125" y1="72.9726" x2="130.806" y2="108.973" gradientUnits="userSpaceOnUse">
<stop stop-color="#D9D8DC"/>
<stop offset="1" stop-color="white" stop-opacity="0.385275"/>
</linearGradient>
<linearGradient id="paint1_linear_32_170" x1="132.752" y1="72.9635" x2="118.848" y2="104.218" gradientUnits="userSpaceOnUse">
<stop stop-color="#8D67AF" stop-opacity="0.671932"/>
<stop offset="1" stop-color="#9F8DAF"/>
</linearGradient>
<linearGradient id="paint2_linear_32_170" x1="134.371" y1="83.0039" x2="134.371" y2="107.924" gradientUnits="userSpaceOnUse">
<stop stop-color="#26053D" stop-opacity="0.761634"/>
<stop offset="1" stop-color="#B7B4B4" stop-opacity="0.277683"/>
</linearGradient>
<linearGradient id="paint3_linear_32_170" x1="121.257" y1="84.689" x2="127.48" y2="101.598" gradientUnits="userSpaceOnUse">
<stop stop-color="#91739F" stop-opacity="0.45955"/>
<stop offset="1" stop-color="#32054F" stop-opacity="0.539912"/>
</linearGradient>
<linearGradient id="paint4_linear_32_170" x1="138.649" y1="105.354" x2="121.126" y2="90.4629" gradientUnits="userSpaceOnUse">
<stop stop-color="#463D49" stop-opacity="0.331182"/>
<stop offset="1" stop-color="#340A50" stop-opacity="0.821388"/>
</linearGradient>
<linearGradient id="paint5_linear_32_170" x1="134.971" y1="83.2388" x2="122.793" y2="102.24" gradientUnits="userSpaceOnUse">
<stop stop-color="#715383" stop-opacity="0.145239"/>
<stop offset="1" stop-color="#F4F4F4" stop-opacity="0.233639"/>
</linearGradient>
<linearGradient id="paint6_linear_32_170" x1="136.178" y1="88.9481" x2="127.242" y2="88.3887" gradientUnits="userSpaceOnUse">
<stop stop-color="#A5A1A8" stop-opacity="0.356091"/>
<stop offset="1" stop-color="#370C50" stop-opacity="0.581975"/>
</linearGradient>
<radialGradient id="paint7_radial_32_170" cx="0" cy="0" r="1" gradientUnits="userSpaceOnUse" gradientTransform="translate(175.221 170.927) scale(23.6364 23.9609)">
<stop stop-color="#AEB2D5"/>
<stop offset="0.3" stop-color="#AEB2D5"/>
<stop offset="0.75" stop-color="#484C89"/>
<stop offset="1" stop-color="#484C89"/>
</radialGradient>
<clipPath id="clip0_32_170">
<rect width="40" height="39" fill="white" transform="translate(111.413 70)"/>
</clipPath>
<clipPath id="clip1_32_170">
<rect width="36" height="37" fill="white" transform="translate(164.413 159)"/>
</clipPath>
</defs>
</svg>
