<svg width="379" height="415" viewBox="0 0 379 415" fill="none" xmlns="http://www.w3.org/2000/svg">
<rect x="107" y="55" width="71.7396" height="8.875" fill="#391C0C"/>
<rect x="165" width="213.812" height="29.5833" rx="9" fill="#93624A"/>
<rect x="165" y="29.5834" width="213.812" height="29.5833" rx="9" fill="#633415"/>
<rect x="165" y="59.1666" width="213.812" height="29.5833" rx="9" fill="#93624A"/>
<rect x="165" y="88.75" width="213.812" height="29.5833" rx="9" fill="#633415"/>
<rect x="179" y="8" width="186" height="102" rx="11" fill="#120903" fill-opacity="0.8"/>
<rect y="30" width="119.812" height="29.5833" rx="9" fill="#93624A"/>
<rect x="2.09808e-05" y="59.5833" width="119.812" height="29.5833" rx="9" fill="#633415"/>
<path d="M228.635 27.2393C228.516 26.0362 228.004 25.1016 227.099 24.4354C226.194 23.7692 224.966 23.4361 223.415 23.4361C222.361 23.4361 221.471 23.5852 220.745 23.8835C220.02 24.1719 219.463 24.5746 219.075 25.0916C218.697 25.6087 218.508 26.1953 218.508 26.8516C218.488 27.3984 218.603 27.8757 218.851 28.2834C219.11 28.6911 219.463 29.044 219.91 29.3423C220.358 29.6307 220.875 29.8842 221.461 30.103C222.048 30.3118 222.674 30.4908 223.341 30.6399L226.085 31.2962C227.417 31.5945 228.64 31.9922 229.754 32.4893C230.868 32.9865 231.832 33.598 232.647 34.3239C233.463 35.0497 234.094 35.9048 234.542 36.8892C234.999 37.8736 235.233 39.0021 235.243 40.2749C235.233 42.1442 234.755 43.7649 233.811 45.1371C232.876 46.4993 231.524 47.5582 229.754 48.3139C227.994 49.0597 225.871 49.4325 223.385 49.4325C220.919 49.4325 218.772 49.0547 216.942 48.299C215.123 47.5433 213.701 46.4247 212.676 44.9432C211.662 43.4517 211.13 41.6072 211.081 39.4098H217.33C217.4 40.4339 217.693 41.2891 218.21 41.9751C218.737 42.6513 219.438 43.1634 220.313 43.5114C221.198 43.8494 222.197 44.0185 223.311 44.0185C224.404 44.0185 225.354 43.8594 226.159 43.5412C226.975 43.223 227.606 42.7805 228.054 42.2138C228.501 41.647 228.725 40.9957 228.725 40.2599C228.725 39.5739 228.521 38.9972 228.113 38.5298C227.716 38.0625 227.129 37.6648 226.353 37.3366C225.588 37.0085 224.648 36.7102 223.534 36.4418L220.208 35.6065C217.633 34.9801 215.6 34.0007 214.108 32.6683C212.617 31.3359 211.876 29.5412 211.886 27.2841C211.876 25.4347 212.368 23.8189 213.363 22.4368C214.367 21.0547 215.744 19.9759 217.494 19.2003C219.244 18.4247 221.233 18.0369 223.46 18.0369C225.727 18.0369 227.706 18.4247 229.396 19.2003C231.096 19.9759 232.419 21.0547 233.363 22.4368C234.308 23.8189 234.795 25.4197 234.825 27.2393H228.635ZM249.818 49.4474C247.501 49.4474 245.498 48.9553 243.807 47.9709C242.127 46.9766 240.829 45.5945 239.915 43.8246C239 42.0447 238.542 39.9815 238.542 37.6349C238.542 35.2685 239 33.2003 239.915 31.4304C240.829 29.6506 242.127 28.2685 243.807 27.2841C245.498 26.2898 247.501 25.7926 249.818 25.7926C252.135 25.7926 254.133 26.2898 255.814 27.2841C257.504 28.2685 258.807 29.6506 259.721 31.4304C260.636 33.2003 261.094 35.2685 261.094 37.6349C261.094 39.9815 260.636 42.0447 259.721 43.8246C258.807 45.5945 257.504 46.9766 255.814 47.9709C254.133 48.9553 252.135 49.4474 249.818 49.4474ZM249.848 44.5256C250.902 44.5256 251.782 44.2273 252.488 43.6307C253.194 43.0241 253.726 42.1989 254.084 41.1548C254.452 40.1108 254.635 38.9226 254.635 37.5902C254.635 36.2578 254.452 35.0696 254.084 34.0256C253.726 32.9815 253.194 32.1562 252.488 31.5497C251.782 30.9432 250.902 30.6399 249.848 30.6399C248.784 30.6399 247.889 30.9432 247.163 31.5497C246.447 32.1562 245.905 32.9815 245.537 34.0256C245.18 35.0696 245.001 36.2578 245.001 37.5902C245.001 38.9226 245.18 40.1108 245.537 41.1548C245.905 42.1989 246.447 43.0241 247.163 43.6307C247.889 44.2273 248.784 44.5256 249.848 44.5256ZM275.576 49.4474C273.229 49.4474 271.211 48.9503 269.52 47.956C267.84 46.9517 266.547 45.5597 265.643 43.7798C264.748 42 264.3 39.9517 264.3 37.6349C264.3 35.2884 264.753 33.2301 265.657 31.4602C266.572 29.6804 267.87 28.2933 269.55 27.299C271.231 26.2947 273.229 25.7926 275.546 25.7926C277.545 25.7926 279.295 26.1555 280.796 26.8814C282.297 27.6072 283.486 28.6264 284.361 29.9389C285.236 31.2514 285.718 32.7926 285.807 34.5625H279.812C279.643 33.419 279.195 32.4993 278.469 31.8033C277.753 31.0973 276.814 30.7443 275.65 30.7443C274.666 30.7443 273.806 31.0128 273.07 31.5497C272.344 32.0767 271.778 32.8473 271.37 33.8615C270.962 34.8757 270.758 36.1037 270.758 37.5455C270.758 39.0071 270.957 40.25 271.355 41.2741C271.763 42.2983 272.334 43.0788 273.07 43.6158C273.806 44.1527 274.666 44.4212 275.65 44.4212C276.376 44.4212 277.028 44.272 277.604 43.9737C278.191 43.6754 278.673 43.2429 279.051 42.6761C279.439 42.0994 279.692 41.4084 279.812 40.603H285.807C285.708 42.353 285.231 43.8942 284.376 45.2266C283.53 46.549 282.362 47.5831 280.871 48.3288C279.379 49.0746 277.614 49.4474 275.576 49.4474ZM289.875 49V26.0909H296.229V49H289.875ZM293.067 23.1378C292.123 23.1378 291.312 22.8246 290.636 22.1982C289.97 21.5618 289.637 20.8011 289.637 19.9162C289.637 19.0412 289.97 18.2905 290.636 17.6641C291.312 17.0277 292.123 16.7095 293.067 16.7095C294.012 16.7095 294.817 17.0277 295.483 17.6641C296.159 18.2905 296.498 19.0412 296.498 19.9162C296.498 20.8011 296.159 21.5618 295.483 22.1982C294.817 22.8246 294.012 23.1378 293.067 23.1378ZM307.851 49.4325C306.39 49.4325 305.087 49.179 303.944 48.6719C302.8 48.1548 301.895 47.3942 301.229 46.3899C300.573 45.3757 300.245 44.1129 300.245 42.6016C300.245 41.3288 300.479 40.2599 300.946 39.3949C301.413 38.5298 302.05 37.8338 302.855 37.3068C303.66 36.7798 304.575 36.3821 305.599 36.1136C306.633 35.8452 307.717 35.6562 308.851 35.5469C310.183 35.4077 311.257 35.2784 312.072 35.1591C312.888 35.0298 313.479 34.8409 313.847 34.5923C314.215 34.3437 314.399 33.9759 314.399 33.4886V33.3991C314.399 32.4545 314.101 31.7237 313.504 31.2067C312.917 30.6896 312.082 30.4311 310.998 30.4311C309.855 30.4311 308.945 30.6847 308.269 31.1918C307.593 31.6889 307.145 32.3153 306.927 33.071L301.05 32.5938C301.349 31.2017 301.935 29.9986 302.81 28.9844C303.685 27.9602 304.814 27.1747 306.196 26.6278C307.588 26.071 309.199 25.7926 311.028 25.7926C312.301 25.7926 313.519 25.9418 314.682 26.2401C315.856 26.5384 316.895 27.0007 317.8 27.6271C318.714 28.2536 319.435 29.0589 319.962 30.0433C320.489 31.0178 320.753 32.1861 320.753 33.5483V49H314.727V45.8232H314.548C314.18 46.5391 313.688 47.1705 313.072 47.7173C312.455 48.2543 311.714 48.6768 310.849 48.9851C309.984 49.2834 308.985 49.4325 307.851 49.4325ZM309.671 45.0476C310.606 45.0476 311.431 44.8636 312.147 44.4957C312.863 44.1179 313.425 43.6108 313.832 42.9744C314.24 42.3381 314.444 41.6172 314.444 40.8118V38.3807C314.245 38.5099 313.971 38.6293 313.623 38.7386C313.285 38.8381 312.903 38.9325 312.475 39.022C312.047 39.1016 311.62 39.1761 311.192 39.2457C310.765 39.3054 310.377 39.3601 310.029 39.4098C309.283 39.5192 308.632 39.6932 308.075 39.9318C307.518 40.1705 307.086 40.4936 306.778 40.9013C306.469 41.299 306.315 41.7962 306.315 42.3928C306.315 43.2578 306.628 43.919 307.255 44.3764C307.891 44.8239 308.697 45.0476 309.671 45.0476ZM332.036 18.4545V49H325.682V18.4545H332.036ZM227.492 74.7791V69.4545H252.579V74.7791H243.228V100H236.844V74.7791H227.492ZM254.212 100V77.0909H260.372V81.0881H260.611C261.028 79.6662 261.729 78.5923 262.714 77.8665C263.698 77.1307 264.832 76.7628 266.114 76.7628C266.432 76.7628 266.775 76.7827 267.143 76.8224C267.511 76.8622 267.834 76.9169 268.113 76.9865V82.6243C267.815 82.5348 267.402 82.4553 266.875 82.3857C266.348 82.3161 265.866 82.2812 265.428 82.2812C264.494 82.2812 263.658 82.4851 262.922 82.8928C262.197 83.2905 261.62 83.8473 261.192 84.5632C260.775 85.2791 260.566 86.1044 260.566 87.0391V100H254.212ZM280.772 100.447C278.415 100.447 276.387 99.9702 274.687 99.0156C272.996 98.0511 271.694 96.6889 270.779 94.929C269.864 93.1591 269.407 91.0661 269.407 88.6499C269.407 86.2933 269.864 84.2251 270.779 82.4453C271.694 80.6655 272.981 79.2784 274.642 78.2841C276.312 77.2898 278.271 76.7926 280.518 76.7926C282.03 76.7926 283.437 77.0362 284.739 77.5234C286.052 78.0007 287.195 78.7216 288.169 79.6861C289.154 80.6506 289.919 81.8636 290.466 83.3253C291.013 84.777 291.287 86.4773 291.287 88.4261V90.1712H271.942V86.2337H285.306C285.306 85.3189 285.107 84.5085 284.709 83.8026C284.312 83.0966 283.76 82.5447 283.054 82.147C282.358 81.7393 281.547 81.5355 280.623 81.5355C279.658 81.5355 278.803 81.7592 278.057 82.2067C277.321 82.6442 276.745 83.2358 276.327 83.9815C275.91 84.7173 275.696 85.5376 275.686 86.4425V90.1861C275.686 91.3196 275.895 92.299 276.312 93.1243C276.74 93.9496 277.341 94.5859 278.117 95.0334C278.892 95.4808 279.812 95.7045 280.876 95.7045C281.582 95.7045 282.228 95.6051 282.815 95.4062C283.402 95.2074 283.904 94.9091 284.321 94.5114C284.739 94.1136 285.057 93.6264 285.276 93.0497L291.152 93.4375C290.854 94.8494 290.243 96.0824 289.318 97.1364C288.403 98.1804 287.22 98.9957 285.768 99.5824C284.326 100.159 282.661 100.447 280.772 100.447ZM305.873 100.447C303.517 100.447 301.488 99.9702 299.788 99.0156C298.098 98.0511 296.795 96.6889 295.88 94.929C294.966 93.1591 294.508 91.0661 294.508 88.6499C294.508 86.2933 294.966 84.2251 295.88 82.4453C296.795 80.6655 298.083 79.2784 299.743 78.2841C301.414 77.2898 303.373 76.7926 305.62 76.7926C307.131 76.7926 308.538 77.0362 309.841 77.5234C311.153 78.0007 312.297 78.7216 313.271 79.6861C314.255 80.6506 315.021 81.8636 315.568 83.3253C316.115 84.777 316.388 86.4773 316.388 88.4261V90.1712H297.044V86.2337H310.407C310.407 85.3189 310.209 84.5085 309.811 83.8026C309.413 83.0966 308.861 82.5447 308.155 82.147C307.459 81.7393 306.649 81.5355 305.724 81.5355C304.76 81.5355 303.905 81.7592 303.159 82.2067C302.423 82.6442 301.846 83.2358 301.429 83.9815C301.011 84.7173 300.797 85.5376 300.787 86.4425V90.1861C300.787 91.3196 300.996 92.299 301.414 93.1243C301.841 93.9496 302.443 94.5859 303.218 95.0334C303.994 95.4808 304.914 95.7045 305.978 95.7045C306.684 95.7045 307.33 95.6051 307.917 95.4062C308.503 95.2074 309.005 94.9091 309.423 94.5114C309.841 94.1136 310.159 93.6264 310.378 93.0497L316.254 93.4375C315.956 94.8494 315.344 96.0824 314.419 97.1364C313.505 98.1804 312.321 98.9957 310.87 99.5824C309.428 100.159 307.763 100.447 305.873 100.447Z" fill="white"/>
<path d="M88.7931 74.9547L77.6792 78L66.5648 74.9547L64 46.679H91.358L88.7931 74.9547Z" fill="#2062AF"/>
<path d="M77.6788 48.9692V75.5697L77.704 75.5768L86.6982 73.1138L88.7727 48.9696L77.6788 48.9692Z" fill="#3C9CD7"/>
<path d="M71.3712 42.5246V40.8416H73.7839V39H69.5615V44.205H73.7839V42.5246H71.3712ZM78.1245 40.8416H79.8114V39H75.5884V40.8416C76.1533 41.4166 76.4479 41.6917 77.2649 42.5232H75.5884V44.2033H79.8111V42.5246L78.1245 40.8416ZM84.1095 40.8416H85.7965V39H81.5734V40.8416C82.1384 41.4166 82.4333 41.6917 83.2503 42.5232H81.5734V44.2033H85.7965V42.5246L84.1095 40.8416Z" fill="black"/>
<path d="M77.6688 56.0391L69.714 59.4106L69.9778 62.7486L77.6688 59.4021L85.8501 55.8427L86.1893 52.4297L77.6688 56.0408V56.0391Z" fill="white"/>
<path d="M69.714 59.4107L69.9778 62.7488L77.6688 59.4022V56.0392L69.714 59.4107Z" fill="url(#paint0_linear_33_281)"/>
<path d="M86.1893 52.428L77.6688 56.0391V59.4022L85.8501 55.8428L86.1893 52.428Z" fill="url(#paint1_linear_33_281)"/>
<path d="M69.7264 59.4106L69.9902 62.7487L81.7909 62.7871L81.5271 67.2377L77.6439 68.3503L73.9097 67.3911L73.6836 64.6287H70.2164L70.6689 69.9615L77.6816 72.0726L84.6562 70.0009L85.561 59.4121L69.7264 59.4106Z" fill="url(#paint2_linear_33_281)"/>
<path opacity="0.05" d="M77.6688 59.4106H69.714L69.9778 62.7487L77.6688 62.7737V59.4106ZM77.6688 68.3394L77.6311 68.35L73.8987 67.3908L73.6725 64.6284H70.2056L70.6579 69.9611L77.6702 72.0723L77.6688 68.3394Z" fill="black"/>
<path d="M68.9986 52.428H86.1899L85.8508 55.841H69.4135L68.9986 52.428Z" fill="url(#paint3_linear_33_281)"/>
<path opacity="0.05" d="M77.6688 52.428H68.9983L69.4132 55.841H77.6695L77.6688 52.428Z" fill="black"/>
<path d="M56 46.6646L53.5402 74.8633L42.4835 78L31.4574 74.8675L29 46.6646H56Z" fill="#E44D26"/>
<path d="M42.5 75.6022L51.4345 73.0675L53.5365 48.9703H42.5V75.6022Z" fill="#F16529"/>
<path d="M37.718 55.8886H42.4997V52.4314H34.0241L34.1051 53.3595L34.9359 62.8914H42.5V59.4307H38.0271L37.718 55.8886ZM38.4799 64.6191H35.0868L35.5601 70.0501L42.4842 72.0158L42.4997 72.0116V68.414L42.4849 68.4179L38.7207 67.3778L38.4806 64.6191H38.4799Z" fill="#EBEBEB"/>
<path d="M31.5119 39H33.2297V40.7368H34.8011V39H36.5189V44.2593H34.8011V42.4983H33.2297V44.2593H31.5119V39ZM38.7776 40.7442H37.2656V39H42.0085V40.7442H40.4958V44.2593H38.778V40.7442H38.7776ZM42.7614 39H44.5533L45.655 40.8478L46.7547 39H48.5467V44.2593H46.8357V41.6523L45.654 43.5222H45.6245L44.4418 41.6523V44.259H42.761L42.7614 39ZM49.4014 39H51.1196V42.5207H53.5351V44.259H49.4014V39V39Z" fill="black"/>
<path d="M42.4883 62.8893H46.6505L46.2581 67.3753L42.488 68.4164V72.0151L49.4169 70.0494L49.4676 69.4649L50.2621 60.3584L50.3444 59.4296H42.4883V62.8893ZM42.4883 55.8798V55.8882H50.6521L50.7207 55.1107L50.8747 53.3556L50.9553 52.4275H42.4883V55.878V55.8798Z" fill="white"/>
<rect x="107" y="203" width="71.7396" height="8.875" fill="#391C0C"/>
<rect x="165" y="148" width="213.812" height="29.5833" rx="9" fill="#93624A"/>
<rect x="165" y="177.583" width="213.812" height="29.5833" rx="9" fill="#633415"/>
<rect x="165" y="207.167" width="213.812" height="29.5833" rx="9" fill="#93624A"/>
<rect x="165" y="236.75" width="213.812" height="29.5833" rx="9" fill="#633415"/>
<rect x="179" y="156" width="186" height="102" rx="11" fill="#120903" fill-opacity="0.8"/>
<rect y="178" width="119.812" height="29.5833" rx="9" fill="#93624A"/>
<rect x="2.09808e-05" y="207.583" width="119.812" height="29.5833" rx="9" fill="#633415"/>
<path d="M251.153 175.239C251.034 174.036 250.521 173.102 249.617 172.435C248.712 171.769 247.484 171.436 245.933 171.436C244.879 171.436 243.989 171.585 243.263 171.884C242.537 172.172 241.98 172.575 241.593 173.092C241.215 173.609 241.026 174.195 241.026 174.852C241.006 175.398 241.12 175.876 241.369 176.283C241.627 176.691 241.98 177.044 242.428 177.342C242.875 177.631 243.392 177.884 243.979 178.103C244.566 178.312 245.192 178.491 245.858 178.64L248.602 179.296C249.935 179.594 251.158 179.992 252.271 180.489C253.385 180.987 254.35 181.598 255.165 182.324C255.98 183.05 256.612 183.905 257.059 184.889C257.517 185.874 257.75 187.002 257.76 188.275C257.75 190.144 257.273 191.765 256.328 193.137C255.394 194.499 254.041 195.558 252.271 196.314C250.512 197.06 248.389 197.433 245.903 197.433C243.437 197.433 241.289 197.055 239.46 196.299C237.64 195.543 236.218 194.425 235.194 192.943C234.18 191.452 233.648 189.607 233.598 187.41H239.847C239.917 188.434 240.21 189.289 240.727 189.975C241.254 190.651 241.955 191.163 242.83 191.511C243.715 191.849 244.715 192.018 245.828 192.018C246.922 192.018 247.872 191.859 248.677 191.541C249.492 191.223 250.124 190.781 250.571 190.214C251.019 189.647 251.242 188.996 251.242 188.26C251.242 187.574 251.039 186.997 250.631 186.53C250.233 186.062 249.646 185.665 248.871 185.337C248.105 185.009 247.166 184.71 246.052 184.442L242.726 183.607C240.151 182.98 238.117 182.001 236.626 180.668C235.134 179.336 234.394 177.541 234.404 175.284C234.394 173.435 234.886 171.819 235.88 170.437C236.884 169.055 238.262 167.976 240.012 167.2C241.762 166.425 243.75 166.037 245.977 166.037C248.244 166.037 250.223 166.425 251.914 167.2C253.614 167.976 254.936 169.055 255.881 170.437C256.825 171.819 257.313 173.42 257.343 175.239H251.153ZM261.985 197V174.091H268.338V197H261.985ZM265.176 171.138C264.232 171.138 263.422 170.825 262.745 170.198C262.079 169.562 261.746 168.801 261.746 167.916C261.746 167.041 262.079 166.29 262.745 165.664C263.422 165.028 264.232 164.71 265.176 164.71C266.121 164.71 266.926 165.028 267.593 165.664C268.269 166.29 268.607 167.041 268.607 167.916C268.607 168.801 268.269 169.562 267.593 170.198C266.926 170.825 266.121 171.138 265.176 171.138ZM285.613 174.091V178.864H271.817V174.091H285.613ZM274.949 168.602H281.303V189.96C281.303 190.547 281.393 191.004 281.572 191.332C281.751 191.651 281.999 191.874 282.317 192.004C282.645 192.133 283.023 192.197 283.451 192.197C283.749 192.197 284.047 192.173 284.346 192.123C284.644 192.063 284.873 192.018 285.032 191.989L286.031 196.717C285.713 196.816 285.265 196.93 284.689 197.06C284.112 197.199 283.411 197.283 282.586 197.313C281.055 197.373 279.712 197.169 278.559 196.702C277.415 196.234 276.525 195.509 275.889 194.524C275.253 193.54 274.939 192.297 274.949 190.795V168.602ZM299.947 197.447C297.59 197.447 295.562 196.97 293.861 196.016C292.171 195.051 290.868 193.689 289.954 191.929C289.039 190.159 288.581 188.066 288.581 185.65C288.581 183.293 289.039 181.225 289.954 179.445C290.868 177.665 292.156 176.278 293.817 175.284C295.487 174.29 297.446 173.793 299.693 173.793C301.204 173.793 302.611 174.036 303.914 174.523C305.226 175.001 306.37 175.722 307.344 176.686C308.329 177.651 309.094 178.864 309.641 180.325C310.188 181.777 310.461 183.477 310.461 185.426V187.171H291.117V183.234H304.481C304.481 182.319 304.282 181.509 303.884 180.803C303.486 180.097 302.934 179.545 302.229 179.147C301.532 178.739 300.722 178.536 299.797 178.536C298.833 178.536 297.978 178.759 297.232 179.207C296.496 179.644 295.92 180.236 295.502 180.982C295.084 181.717 294.871 182.538 294.861 183.442V187.186C294.861 188.32 295.069 189.299 295.487 190.124C295.915 190.95 296.516 191.586 297.292 192.033C298.067 192.481 298.987 192.705 300.051 192.705C300.757 192.705 301.403 192.605 301.99 192.406C302.577 192.207 303.079 191.909 303.496 191.511C303.914 191.114 304.232 190.626 304.451 190.05L310.327 190.438C310.029 191.849 309.417 193.082 308.493 194.136C307.578 195.18 306.395 195.996 304.943 196.582C303.501 197.159 301.836 197.447 299.947 197.447ZM253.392 228.148H246.859C246.74 227.303 246.496 226.553 246.128 225.896C245.761 225.23 245.288 224.663 244.712 224.196C244.135 223.729 243.469 223.371 242.713 223.122C241.967 222.874 241.157 222.749 240.282 222.749C238.701 222.749 237.324 223.142 236.15 223.928C234.977 224.703 234.067 225.837 233.421 227.328C232.775 228.81 232.452 230.609 232.452 232.727C232.452 234.905 232.775 236.734 233.421 238.216C234.077 239.697 234.992 240.816 236.165 241.572C237.339 242.327 238.696 242.705 240.237 242.705C241.102 242.705 241.903 242.591 242.638 242.362C243.384 242.134 244.045 241.8 244.622 241.363C245.199 240.915 245.676 240.374 246.054 239.737C246.442 239.101 246.71 238.375 246.859 237.56L253.392 237.589C253.223 238.991 252.8 240.344 252.124 241.646C251.458 242.939 250.558 244.097 249.425 245.121C248.301 246.136 246.959 246.941 245.398 247.538C243.847 248.124 242.092 248.418 240.133 248.418C237.408 248.418 234.972 247.801 232.824 246.568C230.687 245.335 228.996 243.55 227.753 241.214C226.521 238.877 225.904 236.048 225.904 232.727C225.904 229.396 226.53 226.562 227.783 224.226C229.036 221.889 230.736 220.109 232.884 218.886C235.032 217.653 237.448 217.037 240.133 217.037C241.903 217.037 243.543 217.286 245.055 217.783C246.576 218.28 247.923 219.006 249.097 219.96C250.27 220.905 251.224 222.063 251.96 223.435C252.706 224.808 253.183 226.379 253.392 228.148ZM264.436 248.433C262.975 248.433 261.672 248.179 260.529 247.672C259.385 247.155 258.48 246.394 257.814 245.39C257.158 244.376 256.83 243.113 256.83 241.602C256.83 240.329 257.063 239.26 257.531 238.395C257.998 237.53 258.634 236.834 259.44 236.307C260.245 235.78 261.16 235.382 262.184 235.114C263.218 234.845 264.302 234.656 265.436 234.547C266.768 234.408 267.842 234.278 268.657 234.159C269.473 234.03 270.064 233.841 270.432 233.592C270.8 233.344 270.984 232.976 270.984 232.489V232.399C270.984 231.455 270.686 230.724 270.089 230.207C269.502 229.69 268.667 229.431 267.583 229.431C266.44 229.431 265.53 229.685 264.854 230.192C264.178 230.689 263.73 231.315 263.512 232.071L257.635 231.594C257.934 230.202 258.52 228.999 259.395 227.984C260.27 226.96 261.399 226.175 262.781 225.628C264.173 225.071 265.784 224.793 267.613 224.793C268.886 224.793 270.104 224.942 271.267 225.24C272.441 225.538 273.48 226.001 274.385 226.627C275.299 227.254 276.02 228.059 276.547 229.043C277.074 230.018 277.338 231.186 277.338 232.548V248H271.312V244.823H271.133C270.765 245.539 270.273 246.17 269.657 246.717C269.04 247.254 268.299 247.677 267.434 247.985C266.569 248.283 265.57 248.433 264.436 248.433ZM266.256 244.048C267.191 244.048 268.016 243.864 268.732 243.496C269.448 243.118 270.009 242.611 270.417 241.974C270.825 241.338 271.029 240.617 271.029 239.812V237.381C270.83 237.51 270.556 237.629 270.208 237.739C269.87 237.838 269.487 237.933 269.06 238.022C268.632 238.102 268.205 238.176 267.777 238.246C267.35 238.305 266.962 238.36 266.614 238.41C265.868 238.519 265.217 238.693 264.66 238.932C264.103 239.17 263.671 239.494 263.362 239.901C263.054 240.299 262.9 240.796 262.9 241.393C262.9 242.258 263.213 242.919 263.84 243.376C264.476 243.824 265.282 244.048 266.256 244.048ZM294.587 225.091V229.864H280.447V225.091H294.587ZM283.684 248V223.435C283.684 221.775 284.007 220.398 284.653 219.304C285.31 218.21 286.204 217.39 287.338 216.843C288.472 216.296 289.759 216.023 291.201 216.023C292.175 216.023 293.065 216.097 293.871 216.246C294.686 216.396 295.293 216.53 295.69 216.649L294.557 221.422C294.308 221.342 294 221.268 293.632 221.198C293.274 221.129 292.906 221.094 292.528 221.094C291.594 221.094 290.942 221.312 290.574 221.75C290.207 222.178 290.023 222.779 290.023 223.555V248H283.684ZM308.088 248.447C305.732 248.447 303.703 247.97 302.003 247.016C300.313 246.051 299.01 244.689 298.095 242.929C297.18 241.159 296.723 239.066 296.723 236.65C296.723 234.293 297.18 232.225 298.095 230.445C299.01 228.665 300.298 227.278 301.958 226.284C303.629 225.29 305.587 224.793 307.835 224.793C309.346 224.793 310.753 225.036 312.055 225.523C313.368 226.001 314.511 226.722 315.486 227.686C316.47 228.651 317.236 229.864 317.783 231.325C318.33 232.777 318.603 234.477 318.603 236.426V238.171H299.259V234.234H312.622C312.622 233.319 312.423 232.509 312.026 231.803C311.628 231.097 311.076 230.545 310.37 230.147C309.674 229.739 308.864 229.536 307.939 229.536C306.975 229.536 306.119 229.759 305.374 230.207C304.638 230.644 304.061 231.236 303.644 231.982C303.226 232.717 303.012 233.538 303.002 234.442V238.186C303.002 239.32 303.211 240.299 303.629 241.124C304.056 241.95 304.658 242.586 305.433 243.033C306.209 243.481 307.129 243.705 308.193 243.705C308.899 243.705 309.545 243.605 310.131 243.406C310.718 243.207 311.22 242.909 311.638 242.511C312.055 242.114 312.374 241.626 312.592 241.05L318.469 241.438C318.171 242.849 317.559 244.082 316.634 245.136C315.72 246.18 314.536 246.996 313.085 247.582C311.643 248.159 309.977 248.447 308.088 248.447ZM305.403 222.138L308.565 215.352H314.442L309.893 222.138H305.403Z" fill="white"/>
<path d="M80.33 192.33H109.67V221.67H80.33V192.33Z" fill="#F0DB4F"/>
<path d="M107.269 214.673C107.054 213.334 106.181 212.21 103.596 211.161C102.698 210.749 101.696 210.453 101.398 209.772C101.292 209.376 101.278 209.153 101.345 208.913C101.537 208.135 102.466 207.893 103.202 208.116C103.677 208.275 104.125 208.64 104.396 209.223C105.662 208.403 105.66 208.409 106.544 207.845C106.22 207.343 106.047 207.112 105.835 206.897C105.074 206.047 104.036 205.609 102.377 205.642L101.513 205.754C100.684 205.963 99.8949 206.398 99.432 206.981C98.0431 208.557 98.4392 211.315 100.129 212.45C101.794 213.7 104.24 213.984 104.553 215.153C104.857 216.583 103.501 217.046 102.154 216.882C101.161 216.675 100.609 216.171 100.012 215.253C98.9134 215.889 98.9134 215.889 97.7837 216.539C98.0516 217.124 98.333 217.389 98.7821 217.897C100.907 220.053 106.226 219.947 107.18 216.684C107.218 216.572 107.475 215.824 107.269 214.673V214.673ZM96.2802 205.815H93.5359L93.5246 212.91C93.5246 214.419 93.6027 215.802 93.3573 216.226C92.9558 217.06 91.9154 216.957 91.4412 216.795C90.9587 216.558 90.7133 216.22 90.429 215.744C90.3509 215.607 90.2923 215.501 90.2727 215.493L88.0414 216.859C88.4124 217.62 88.959 218.281 89.6591 218.711C90.7048 219.338 92.1104 219.531 93.5804 219.193C94.5371 218.915 95.3626 218.337 95.7948 217.459C96.4196 216.307 96.2855 214.913 96.2799 213.37C96.294 210.854 96.2802 208.339 96.2802 205.815Z" fill="#323330"/>
<path d="M69.7931 222.955L58.6792 226L47.5648 222.955L45 194.679H72.358L69.7931 222.955Z" fill="#2062AF"/>
<path d="M58.6788 196.969V223.57L58.704 223.577L67.6982 221.114L69.7727 196.97L58.6788 196.969Z" fill="#3C9CD7"/>
<path d="M52.3712 190.525V188.842H54.7839V187H50.5615V192.205H54.7839V190.525H52.3712ZM59.1245 188.842H60.8114V187H56.5884V188.842C57.1533 189.417 57.4479 189.692 58.2649 190.523H56.5884V192.203H60.8111V190.525L59.1245 188.842ZM65.1095 188.842H66.7965V187H62.5734V188.842C63.1384 189.417 63.4333 189.692 64.2503 190.523H62.5734V192.203H66.7965V190.525L65.1095 188.842Z" fill="black"/>
<path d="M58.6688 204.039L50.714 207.411L50.9778 210.749L58.6688 207.402L66.8501 203.843L67.1893 200.43L58.6688 204.041V204.039Z" fill="white"/>
<path d="M50.714 207.411L50.9778 210.749L58.6688 207.402V204.039L50.714 207.411Z" fill="url(#paint4_linear_33_281)"/>
<path d="M67.1893 200.428L58.6688 204.039V207.402L66.8501 203.843L67.1893 200.428Z" fill="url(#paint5_linear_33_281)"/>
<path d="M50.7264 207.411L50.9902 210.749L62.7909 210.787L62.5271 215.238L58.6439 216.35L54.9097 215.391L54.6836 212.629H51.2164L51.6689 217.961L58.6816 220.073L65.6562 218.001L66.561 207.412L50.7264 207.411Z" fill="url(#paint6_linear_33_281)"/>
<path opacity="0.05" d="M58.6688 207.411H50.714L50.9778 210.749L58.6688 210.774V207.411ZM58.6688 216.339L58.6311 216.35L54.8987 215.391L54.6725 212.628H51.2056L51.6579 217.961L58.6702 220.072L58.6688 216.339Z" fill="black"/>
<path d="M49.9986 200.428H67.1899L66.8508 203.841H50.4135L49.9986 200.428Z" fill="url(#paint7_linear_33_281)"/>
<path opacity="0.05" d="M58.6688 200.428H49.9983L50.4132 203.841H58.6695L58.6688 200.428Z" fill="black"/>
<path d="M37 194.665L34.5402 222.863L23.4835 226L12.4574 222.868L10 194.665H37Z" fill="#E44D26"/>
<path d="M23.5 223.602L32.4345 221.067L34.5365 196.97H23.5V223.602Z" fill="#F16529"/>
<path d="M18.718 203.889H23.4997V200.431H15.0241L15.1051 201.359L15.9359 210.891H23.5V207.431H19.0271L18.718 203.889ZM19.4799 212.619H16.0868L16.5601 218.05L23.4842 220.016L23.4997 220.012V216.414L23.4849 216.418L19.7207 215.378L19.4806 212.619H19.4799Z" fill="#EBEBEB"/>
<path d="M12.5119 187H14.2297V188.737H15.8011V187H17.5189V192.259H15.8011V190.498H14.2297V192.259H12.5119V187ZM19.7776 188.744H18.2656V187H23.0085V188.744H21.4958V192.259H19.778V188.744H19.7776ZM23.7614 187H25.5533L26.655 188.848L27.7547 187H29.5467V192.259H27.8357V189.652L26.654 191.522H26.6245L25.4418 189.652V192.259H23.761L23.7614 187ZM30.4014 187H32.1196V190.521H34.5351V192.259H30.4014V187V187Z" fill="black"/>
<path d="M23.4883 210.889H27.6505L27.2581 215.375L23.488 216.416V220.015L30.4169 218.049L30.4676 217.465L31.2621 208.358L31.3444 207.43H23.4883V210.889ZM23.4883 203.88V203.888H31.6521L31.7207 203.111L31.8747 201.356L31.9553 200.427H23.4883V203.878V203.88Z" fill="white"/>
<rect x="107" y="351" width="71.7396" height="8.875" fill="#391C0C"/>
<rect x="165" y="296" width="213.812" height="29.5833" rx="9" fill="#93624A"/>
<rect x="165" y="325.583" width="213.812" height="29.5833" rx="9" fill="#633415"/>
<rect x="165" y="355.167" width="213.812" height="29.5833" rx="9" fill="#93624A"/>
<rect x="165" y="384.75" width="213.812" height="29.5833" rx="9" fill="#633415"/>
<rect x="179" y="304" width="186" height="102" rx="11" fill="#120903" fill-opacity="0.8"/>
<rect y="326" width="119.812" height="29.5833" rx="9" fill="#93624A"/>
<rect x="2.09808e-05" y="355.583" width="119.812" height="29.5833" rx="9" fill="#633415"/>
<path d="M241.6 325.148H235.067C234.948 324.303 234.704 323.553 234.336 322.896C233.969 322.23 233.496 321.663 232.92 321.196C232.343 320.729 231.677 320.371 230.921 320.122C230.175 319.874 229.365 319.749 228.49 319.749C226.909 319.749 225.532 320.142 224.358 320.928C223.185 321.703 222.275 322.837 221.629 324.328C220.983 325.81 220.66 327.609 220.66 329.727C220.66 331.905 220.983 333.734 221.629 335.216C222.285 336.697 223.2 337.816 224.373 338.572C225.547 339.327 226.904 339.705 228.445 339.705C229.31 339.705 230.111 339.591 230.846 339.362C231.592 339.134 232.253 338.8 232.83 338.363C233.407 337.915 233.884 337.374 234.262 336.737C234.65 336.101 234.918 335.375 235.067 334.56L241.6 334.589C241.431 335.991 241.008 337.344 240.332 338.646C239.666 339.939 238.766 341.097 237.633 342.121C236.509 343.136 235.167 343.941 233.606 344.538C232.055 345.124 230.3 345.418 228.341 345.418C225.616 345.418 223.18 344.801 221.032 343.568C218.895 342.335 217.204 340.55 215.961 338.214C214.729 335.877 214.112 333.048 214.112 329.727C214.112 326.396 214.738 323.562 215.991 321.226C217.244 318.889 218.944 317.109 221.092 315.886C223.24 314.653 225.656 314.037 228.341 314.037C230.111 314.037 231.751 314.286 233.263 314.783C234.784 315.28 236.131 316.006 237.305 316.96C238.478 317.905 239.432 319.063 240.168 320.435C240.914 321.808 241.391 323.379 241.6 325.148ZM252.465 314.455V345H246.112V314.455H252.465ZM267.906 345.447C265.589 345.447 263.586 344.955 261.895 343.971C260.215 342.977 258.917 341.594 258.002 339.825C257.088 338.045 256.63 335.982 256.63 333.635C256.63 331.268 257.088 329.2 258.002 327.43C258.917 325.651 260.215 324.268 261.895 323.284C263.586 322.29 265.589 321.793 267.906 321.793C270.223 321.793 272.221 322.29 273.902 323.284C275.592 324.268 276.895 325.651 277.809 327.43C278.724 329.2 279.181 331.268 279.181 333.635C279.181 335.982 278.724 338.045 277.809 339.825C276.895 341.594 275.592 342.977 273.902 343.971C272.221 344.955 270.223 345.447 267.906 345.447ZM267.936 340.526C268.99 340.526 269.87 340.227 270.576 339.631C271.282 339.024 271.814 338.199 272.172 337.155C272.539 336.111 272.723 334.923 272.723 333.59C272.723 332.258 272.539 331.07 272.172 330.026C271.814 328.982 271.282 328.156 270.576 327.55C269.87 326.943 268.99 326.64 267.936 326.64C266.872 326.64 265.977 326.943 265.251 327.55C264.535 328.156 263.993 328.982 263.625 330.026C263.267 331.07 263.088 332.258 263.088 333.59C263.088 334.923 263.267 336.111 263.625 337.155C263.993 338.199 264.535 339.024 265.251 339.631C265.977 340.227 266.872 340.526 267.936 340.526ZM289.667 331.756V345H283.313V322.091H289.368V326.133H289.637C290.144 324.8 290.994 323.746 292.187 322.971C293.38 322.185 294.827 321.793 296.527 321.793C298.118 321.793 299.505 322.141 300.689 322.837C301.872 323.533 302.792 324.527 303.448 325.82C304.104 327.102 304.432 328.634 304.432 330.413V345H298.078V331.547C298.088 330.145 297.73 329.051 297.005 328.266C296.279 327.47 295.279 327.072 294.007 327.072C293.152 327.072 292.396 327.256 291.74 327.624C291.093 327.992 290.586 328.529 290.218 329.235C289.86 329.931 289.676 330.771 289.667 331.756ZM319.88 345.447C317.524 345.447 315.495 344.97 313.795 344.016C312.105 343.051 310.802 341.689 309.887 339.929C308.972 338.159 308.515 336.066 308.515 333.65C308.515 331.293 308.972 329.225 309.887 327.445C310.802 325.665 312.09 324.278 313.75 323.284C315.421 322.29 317.379 321.793 319.627 321.793C321.138 321.793 322.545 322.036 323.847 322.523C325.16 323.001 326.303 323.722 327.278 324.686C328.262 325.651 329.028 326.864 329.575 328.325C330.122 329.777 330.395 331.477 330.395 333.426V335.171H311.051V331.234H324.414C324.414 330.319 324.215 329.509 323.818 328.803C323.42 328.097 322.868 327.545 322.162 327.147C321.466 326.739 320.656 326.536 319.731 326.536C318.767 326.536 317.911 326.759 317.166 327.207C316.43 327.644 315.853 328.236 315.436 328.982C315.018 329.717 314.804 330.538 314.794 331.442V335.186C314.794 336.32 315.003 337.299 315.421 338.124C315.848 338.95 316.45 339.586 317.225 340.033C318.001 340.481 318.921 340.705 319.985 340.705C320.691 340.705 321.337 340.605 321.923 340.406C322.51 340.207 323.012 339.909 323.43 339.511C323.847 339.114 324.166 338.626 324.384 338.05L330.261 338.438C329.963 339.849 329.351 341.082 328.426 342.136C327.512 343.18 326.328 343.996 324.877 344.582C323.435 345.159 321.769 345.447 319.88 345.447ZM232.446 365.455V396H226.868L213.579 376.775H213.355V396H206.897V365.455H212.565L225.749 384.665H226.018V365.455H232.446ZM248.103 396.447C245.746 396.447 243.718 395.97 242.018 395.016C240.327 394.051 239.025 392.689 238.11 390.929C237.195 389.159 236.738 387.066 236.738 384.65C236.738 382.293 237.195 380.225 238.11 378.445C239.025 376.665 240.312 375.278 241.973 374.284C243.643 373.29 245.602 372.793 247.849 372.793C249.361 372.793 250.768 373.036 252.07 373.523C253.383 374.001 254.526 374.722 255.501 375.686C256.485 376.651 257.251 377.864 257.797 379.325C258.344 380.777 258.618 382.477 258.618 384.426V386.171H239.273V382.234H252.637C252.637 381.319 252.438 380.509 252.04 379.803C251.643 379.097 251.091 378.545 250.385 378.147C249.689 377.739 248.878 377.536 247.954 377.536C246.989 377.536 246.134 377.759 245.388 378.207C244.653 378.644 244.076 379.236 243.658 379.982C243.241 380.717 243.027 381.538 243.017 382.442V386.186C243.017 387.32 243.226 388.299 243.643 389.124C244.071 389.95 244.672 390.586 245.448 391.033C246.224 391.481 247.143 391.705 248.207 391.705C248.913 391.705 249.559 391.605 250.146 391.406C250.733 391.207 251.235 390.909 251.653 390.511C252.07 390.114 252.388 389.626 252.607 389.05L258.483 389.438C258.185 390.849 257.574 392.082 256.649 393.136C255.734 394.18 254.551 394.996 253.099 395.582C251.657 396.159 249.992 396.447 248.103 396.447ZM274.949 373.091V377.864H261.153V373.091H274.949ZM264.285 367.602H270.639V388.96C270.639 389.547 270.729 390.004 270.907 390.332C271.086 390.651 271.335 390.874 271.653 391.004C271.981 391.133 272.359 391.197 272.787 391.197C273.085 391.197 273.383 391.173 273.682 391.123C273.98 391.063 274.209 391.018 274.368 390.989L275.367 395.717C275.049 395.816 274.601 395.93 274.025 396.06C273.448 396.199 272.747 396.283 271.922 396.313C270.39 396.373 269.048 396.169 267.895 395.702C266.751 395.234 265.861 394.509 265.225 393.524C264.589 392.54 264.275 391.297 264.285 389.795V367.602ZM291.408 373.091V377.864H277.269V373.091H291.408ZM280.505 396V371.435C280.505 369.775 280.828 368.398 281.475 367.304C282.131 366.21 283.026 365.39 284.159 364.843C285.293 364.296 286.58 364.023 288.022 364.023C288.997 364.023 289.887 364.097 290.692 364.246C291.507 364.396 292.114 364.53 292.512 364.649L291.378 369.422C291.129 369.342 290.821 369.268 290.453 369.198C290.095 369.129 289.727 369.094 289.35 369.094C288.415 369.094 287.764 369.312 287.396 369.75C287.028 370.178 286.844 370.779 286.844 371.555V396H280.505ZM301.643 365.455V396H295.289V365.455H301.643ZM306.733 396V373.091H313.086V396H306.733ZM309.925 370.138C308.98 370.138 308.17 369.825 307.493 369.198C306.827 368.562 306.494 367.801 306.494 366.916C306.494 366.041 306.827 365.29 307.493 364.664C308.17 364.028 308.98 363.71 309.925 363.71C310.869 363.71 311.675 364.028 312.341 364.664C313.017 365.29 313.355 366.041 313.355 366.916C313.355 367.801 313.017 368.562 312.341 369.198C311.675 369.825 310.869 370.138 309.925 370.138ZM323.486 373.091L327.692 381.1L332.002 373.091H338.52L331.883 384.545L338.699 396H332.211L327.692 388.08L323.247 396H316.685L323.486 384.545L316.923 373.091H323.486Z" fill="white"/>
<path d="M59 354.12C60.5136 354.12 61.7407 352.893 61.7407 351.379C61.7407 349.866 60.5136 348.639 59 348.639C57.4864 348.639 56.2593 349.866 56.2593 351.379C56.2593 352.893 57.4864 354.12 59 354.12Z" fill="#61DAFB"/>
<path d="M59 361.458C61.1513 363.55 63.2731 364.788 64.9823 364.788C65.5422 364.788 66.0727 364.67 66.5147 364.405C68.0472 363.521 68.6071 361.31 68.0766 358.157C67.9882 357.597 67.8703 357.037 67.723 356.448C68.3124 356.271 68.8428 356.094 69.3733 355.917C72.3497 354.768 74 353.177 74 351.438C74 349.67 72.3497 348.079 69.3733 346.959C68.8428 346.752 68.3124 346.576 67.723 346.428C67.8703 345.839 67.9882 345.279 68.0766 344.719C68.5776 341.507 68.0177 339.267 66.4853 338.383C66.0432 338.118 65.5128 338 64.9528 338C63.2731 338 61.1218 339.238 58.9705 341.33C56.8487 339.238 54.7269 338 53.0177 338C52.4578 338 51.9273 338.118 51.4853 338.383C49.9528 339.267 49.3929 341.477 49.9234 344.631C50.0118 345.191 50.1297 345.75 50.277 346.34C49.6876 346.517 49.1572 346.694 48.6267 346.87C45.6503 348.02 44 349.611 44 351.35C44 353.118 45.6503 354.709 48.6267 355.829C49.1572 356.035 49.6876 356.212 50.277 356.36C50.1297 356.949 50.0118 357.509 49.9234 358.069C49.4224 361.222 49.9823 363.462 51.4853 364.316C51.9273 364.582 52.4578 364.699 53.0177 364.699C54.7269 364.758 56.8487 363.521 59 361.458V361.458ZM57.3497 357.479C57.8802 357.509 58.4401 357.509 59 357.509C59.5599 357.509 60.1198 357.509 60.6503 357.479C60.1198 358.187 59.5599 358.835 59 359.454C58.4401 358.835 57.8802 358.187 57.3497 357.479V357.479ZM53.6955 354.444C53.9902 354.945 54.2554 355.417 54.5796 355.888C53.666 355.77 52.8114 355.623 51.9862 355.446C52.2515 354.65 52.5462 353.825 52.8998 353C53.1356 353.472 53.4008 353.972 53.6955 354.444V354.444ZM51.9862 347.342C52.8114 347.165 53.666 347.018 54.5796 346.9C54.2849 347.371 53.9902 347.843 53.6955 348.344C53.4008 348.845 53.1356 349.316 52.8998 349.817C52.5167 348.963 52.222 348.138 51.9862 347.342V347.342ZM53.6071 351.379C53.9902 350.583 54.4028 349.788 54.8743 348.992C55.3163 348.226 55.8173 347.46 56.3183 346.694C57.2024 346.635 58.0864 346.605 59 346.605C59.943 346.605 60.8271 346.635 61.6817 346.694C62.2122 347.46 62.6837 348.226 63.1257 348.992C63.5972 349.788 64.0098 350.583 64.3929 351.379C64.0098 352.175 63.5972 352.971 63.1257 353.766C62.6837 354.532 62.1827 355.299 61.6817 356.065C60.7976 356.124 59.9136 356.153 59 356.153C58.057 356.153 57.1729 356.124 56.3183 356.065C55.7878 355.299 55.3163 354.532 54.8743 353.766C54.4028 352.971 53.9902 352.175 53.6071 351.379V351.379ZM65.1297 349.788L64.334 348.314C64.0393 347.813 63.7741 347.342 63.4499 346.87C64.3635 346.988 65.2181 347.136 66.0432 347.312C65.778 348.138 65.4833 348.963 65.1297 349.788ZM65.1297 352.971C65.4833 353.796 65.778 354.621 66.0432 355.417C65.2181 355.593 64.3635 355.741 63.4499 355.859C63.7446 355.387 64.0393 354.916 64.334 354.415C64.5992 353.972 64.8644 353.472 65.1297 352.971ZM65.8075 363.196C65.5717 363.344 65.277 363.403 64.9528 363.403C63.5088 363.403 61.7112 362.224 59.943 360.456C60.7976 359.542 61.6228 358.511 62.4479 357.361C63.833 357.244 65.1591 357.037 66.3969 356.743C66.5442 357.273 66.6326 357.804 66.721 358.334C67.1336 360.839 66.8094 362.637 65.8075 363.196V363.196ZM67.3399 347.666C70.6405 348.609 72.6149 350.053 72.6149 351.379C72.6149 352.528 71.2593 353.678 68.8723 354.591C68.4008 354.768 67.8703 354.945 67.3399 355.092C66.9568 353.884 66.4853 352.646 65.8959 351.379C66.4853 350.112 66.9862 348.874 67.3399 347.666ZM64.9823 339.356C65.3065 339.356 65.5717 339.415 65.8369 339.562C66.8094 340.122 67.1631 341.89 66.7505 344.424C66.6621 344.925 66.5442 345.456 66.4263 346.016C65.1886 345.75 63.8625 345.544 62.4774 345.397C61.6817 344.248 60.8271 343.216 59.9725 342.303C61.7407 340.564 63.5383 339.356 64.9823 339.356V339.356ZM60.6503 345.279C60.1198 345.25 59.5599 345.25 59 345.25C58.4401 345.25 57.8802 345.25 57.3497 345.279C57.8802 344.572 58.4401 343.923 59 343.305C59.5599 343.923 60.1198 344.601 60.6503 345.279ZM52.1925 339.562C52.4283 339.415 52.723 339.356 53.0472 339.356C54.4912 339.356 56.2888 340.534 58.057 342.303C57.2024 343.216 56.3772 344.248 55.5521 345.397C54.167 345.515 52.8409 345.721 51.6031 346.016C51.4558 345.485 51.3674 344.955 51.279 344.424C50.8664 341.919 51.1906 340.151 52.1925 339.562V339.562ZM50.6601 355.092C47.3595 354.149 45.3851 352.705 45.3851 351.379C45.3851 350.23 46.7407 349.081 49.1277 348.167C49.5992 347.99 50.1297 347.813 50.6601 347.666C51.0432 348.874 51.5147 350.112 52.1041 351.379C51.5147 352.646 51.0138 353.914 50.6601 355.092ZM51.279 358.334C51.3674 357.833 51.4853 357.303 51.6031 356.743C52.8409 357.008 54.167 357.214 55.5521 357.361C56.3477 358.511 57.2024 359.542 58.057 360.456C56.2888 362.194 54.4912 363.403 53.0472 363.403C52.723 363.403 52.4578 363.344 52.1925 363.196C51.1906 362.637 50.8664 360.839 51.279 358.334V358.334ZM50.0413 370.475C50.6896 369.68 50.7191 368.796 50.3654 367.912C50.0118 367.028 49.275 366.615 48.3615 366.585C47.2711 366.556 46.1513 366.585 45.0609 366.585H44.8546V374.218H45.7387V371.33H47.1238C47.3006 371.33 47.4479 371.389 47.5363 371.536L49.3045 374.277C49.334 374.336 49.4224 374.424 49.4813 374.424H50.6306C49.9234 373.334 49.2456 372.303 48.5383 371.242C49.1572 371.153 49.6876 370.947 50.0413 370.475V370.475ZM45.7387 370.417V367.499H46.0629C46.7407 367.499 47.4479 367.47 48.1257 367.528C48.9214 367.558 49.4813 368.177 49.4813 368.972C49.4813 369.768 48.833 370.387 48.0373 370.417C47.3301 370.446 46.6228 370.417 45.7387 370.417V370.417ZM57.1434 370.8C56.6719 368.737 54.7859 368.206 53.3418 368.855C52.222 369.356 51.721 370.328 51.6916 371.536C51.6621 372.45 51.9273 373.275 52.6346 373.894C53.4303 374.601 54.4027 374.69 55.4047 374.513C55.9646 374.395 56.4656 374.13 56.8487 373.717C56.7014 373.511 56.554 373.305 56.4067 373.128C55.5815 373.835 54.668 374.071 53.666 373.599C53.0177 373.275 52.6935 372.479 52.6346 371.89H57.2024V371.507C57.2318 371.242 57.2024 371.006 57.1434 370.8V370.8ZM52.6935 371.271C52.6051 370.387 53.4892 369.444 54.4617 369.444C55.5815 369.415 56.2888 370.092 56.3183 371.271H52.6935V371.271ZM61.7407 368.707C61.2986 368.619 60.8271 368.589 60.3851 368.619C59.6778 368.678 59.0589 369.002 58.558 369.532C58.7053 369.739 58.8232 369.945 59 370.181C59.0589 370.122 59.1179 370.063 59.1768 370.033C59.6483 369.591 60.2083 369.356 60.8861 369.415C61.4165 369.444 61.9175 369.621 62.0648 370.151C62.1827 370.564 62.1532 371.006 62.1827 371.448C62.0943 371.448 62.0648 371.418 62.0354 371.389C61.3281 370.8 60.5324 370.682 59.6778 370.888C58.8821 371.094 58.3811 371.713 58.3222 372.509C58.2633 373.422 58.6758 374.1 59.4715 374.424C59.9725 374.631 60.5324 374.631 61.0629 374.513C61.4754 374.424 61.6523 374.189 62.2416 373.864V374.248H63.0668C63.0668 373.069 63.0963 371.625 63.0668 370.269C63.0668 369.415 62.5658 368.884 61.7407 368.707ZM62.1532 372.42C62.1238 372.509 62.1532 372.597 62.1532 372.686C62.1532 373.305 62.0059 373.511 61.4165 373.747C61.0039 373.894 60.5619 373.953 60.1198 373.805C59.6189 373.658 59.2652 373.216 59.2652 372.715C59.2358 372.214 59.5599 371.713 60.0609 371.566C60.7387 371.33 61.3576 371.477 61.9175 371.89C62.0943 372.037 62.2122 372.185 62.1532 372.42V372.42ZM66.7505 369.503C67.5167 369.267 68.224 369.415 68.7544 370.063L68.8428 370.122C69.0491 369.945 69.2259 369.768 69.4617 369.562C69.3733 369.473 69.3438 369.415 69.2849 369.326C68.4303 368.413 66.7505 368.295 65.7191 369.031C64.275 370.092 64.3045 372.155 65.0118 373.246C65.6896 374.277 66.6621 374.631 67.8114 374.483C68.4892 374.395 69.0491 374.071 69.4912 373.511C69.2849 373.334 69.0786 373.157 68.8723 372.951C68.8134 373.01 68.7839 373.039 68.7544 373.098C67.9587 373.982 66.6326 373.894 65.9253 372.951C65.5128 372.391 65.4244 371.743 65.5422 371.094C65.6012 370.358 65.9843 369.768 66.7505 369.503ZM72.8802 373.511C72.8212 373.54 72.7917 373.57 72.7917 373.57C72.556 373.747 72.3202 373.776 72.055 373.688C71.7898 373.57 71.7603 373.334 71.7308 373.098V369.739C71.7308 369.68 71.7308 369.798 71.7603 369.503H72.8802V368.619H71.7014V367.145H70.8173V368.737H70.0511C69.9921 368.737 69.9037 368.796 69.9037 368.855C69.8743 369.061 69.9037 369.208 69.9037 369.503H70.8468V373.275C70.8468 373.747 70.9646 374.159 71.3772 374.395C71.8193 374.66 72.6739 374.601 73.057 374.277C73.1159 374.248 73.1454 374.13 73.1454 374.1C73.057 373.923 72.9686 373.717 72.8802 373.511V373.511Z" fill="#61DAFB"/>
<defs>
<linearGradient id="paint0_linear_33_281" x1="-11.6558" y1="147.269" x2="-11.6558" y2="153.979" gradientUnits="userSpaceOnUse">
<stop offset="0.387" stop-color="#D1D3D4" stop-opacity="0"/>
<stop offset="1" stop-color="#D1D3D4"/>
</linearGradient>
<linearGradient id="paint1_linear_33_281" x1="-3.41204" y1="150.611" x2="-3.41204" y2="157.585" gradientUnits="userSpaceOnUse">
<stop offset="0.387" stop-color="#D1D3D4" stop-opacity="0"/>
<stop offset="1" stop-color="#D1D3D4"/>
</linearGradient>
<linearGradient id="paint2_linear_33_281" x1="-15.6221" y1="144.284" x2="0.212528" y2="144.284" gradientUnits="userSpaceOnUse">
<stop stop-color="#E8E7E5"/>
<stop offset="1" stop-color="white"/>
</linearGradient>
<linearGradient id="paint3_linear_33_281" x1="-16.3393" y1="155.832" x2="0.852085" y2="155.832" gradientUnits="userSpaceOnUse">
<stop stop-color="#E8E7E5"/>
<stop offset="1" stop-color="white"/>
</linearGradient>
<linearGradient id="paint4_linear_33_281" x1="-30.6558" y1="295.269" x2="-30.6558" y2="301.979" gradientUnits="userSpaceOnUse">
<stop offset="0.387" stop-color="#D1D3D4" stop-opacity="0"/>
<stop offset="1" stop-color="#D1D3D4"/>
</linearGradient>
<linearGradient id="paint5_linear_33_281" x1="-22.412" y1="298.611" x2="-22.412" y2="305.585" gradientUnits="userSpaceOnUse">
<stop offset="0.387" stop-color="#D1D3D4" stop-opacity="0"/>
<stop offset="1" stop-color="#D1D3D4"/>
</linearGradient>
<linearGradient id="paint6_linear_33_281" x1="-34.6221" y1="292.284" x2="-18.7875" y2="292.284" gradientUnits="userSpaceOnUse">
<stop stop-color="#E8E7E5"/>
<stop offset="1" stop-color="white"/>
</linearGradient>
<linearGradient id="paint7_linear_33_281" x1="-35.3393" y1="303.832" x2="-18.1479" y2="303.832" gradientUnits="userSpaceOnUse">
<stop stop-color="#E8E7E5"/>
<stop offset="1" stop-color="white"/>
</linearGradient>
</defs>
</svg>
