<svg width="296" height="711" viewBox="0 0 296 711" fill="none" xmlns="http://www.w3.org/2000/svg">
<rect x="115.375" y="54.7291" width="71.7396" height="8.875" fill="#391C0C"/>
<rect x="176.021" width="119.812" height="29.5833" rx="9" fill="#93624A"/>
<rect x="176.021" y="29.5834" width="119.812" height="29.5833" rx="9" fill="#633415"/>
<rect x="176.021" y="59.1666" width="119.812" height="29.5833" rx="9" fill="#93624A"/>
<rect x="176.021" y="88.75" width="119.812" height="29.5833" rx="9" fill="#633415"/>
<rect y="29.5834" width="119.812" height="29.5833" rx="9" fill="#93624A"/>
<rect x="3.05176e-05" y="59.1666" width="119.812" height="29.5833" rx="9" fill="#633415"/>
<rect x="115.375" y="202.646" width="71.7396" height="8.875" fill="#391C0C"/>
<rect x="176.021" y="147.917" width="119.812" height="29.5833" rx="9" fill="#633415"/>
<rect x="176.021" y="177.5" width="119.812" height="29.5833" rx="9" fill="#633415"/>
<rect x="176.021" y="207.083" width="119.812" height="29.5833" rx="9" fill="#93624A"/>
<rect x="176.021" y="236.667" width="119.812" height="29.5833" rx="9" fill="#633415"/>
<rect y="177.5" width="119.812" height="29.5833" rx="9" fill="#93624A"/>
<rect x="3.05176e-05" y="207.083" width="119.812" height="29.5833" rx="9" fill="#633415"/>
<rect x="115.375" y="350.562" width="71.7396" height="8.875" fill="#391C0C"/>
<rect x="176.021" y="295.833" width="119.812" height="29.5833" rx="9" fill="#633415"/>
<rect x="176.021" y="325.417" width="119.812" height="29.5833" rx="9" fill="#93624A"/>
<rect x="176.021" y="355" width="119.812" height="29.5833" rx="9" fill="#633415"/>
<rect x="176.021" y="384.583" width="119.812" height="29.5833" rx="9" fill="#633415"/>
<rect y="325.417" width="119.812" height="29.5833" rx="9" fill="#93624A"/>
<rect x="3.05176e-05" y="355" width="119.812" height="29.5833" rx="9" fill="#633415"/>
<rect x="115.375" y="498.479" width="71.7396" height="8.875" fill="#391C0C"/>
<rect x="176.021" y="443.75" width="119.812" height="29.5833" rx="9" fill="#633415"/>
<rect x="176.021" y="473.333" width="119.812" height="29.5833" rx="9" fill="#93624A"/>
<rect x="176.021" y="502.917" width="119.812" height="29.5833" rx="9" fill="#93624A"/>
<rect x="176.021" y="532.5" width="119.812" height="29.5833" rx="9" fill="#633415"/>
<rect y="473.333" width="119.812" height="29.5833" rx="9" fill="#93624A"/>
<rect x="3.05176e-05" y="502.917" width="119.812" height="29.5833" rx="9" fill="#633415"/>
<path d="M11.6552 74.6979H25.1768L27.3607 72.0543V69.6775C27.3607 69.6775 25.0374 65.6758 23.6202 65.1423L23.1091 63.5416C23.1091 63.5416 24.1546 63.0565 24.201 60.995C24.201 60.995 25.3859 60.9465 25.5021 60.0734C25.6182 59.2003 27.3607 45.3034 27.3607 45.3034C27.3607 45.3034 27.5698 44.1635 24.9213 44.1635C24.9213 44.1635 21.4595 42.9752 18.1837 44.1635L14.6058 47.8015L14.6523 51.2696L10.3542 55.7564V58.3515L11.33 59.1761V63.1293C11.33 63.1293 10.3542 64.0024 10.3542 65.8456C10.3542 67.6888 11.7946 68.0526 11.7946 68.0526H13.2351V69.241L11.6785 71.1812L11.6552 74.6979Z" fill="#B3B3B3"/>
<path d="M32.3636 74.6979H45.8852L48.0691 72.0543V69.6775C48.0691 69.6775 45.7458 65.6758 44.3286 65.1423L43.8174 63.5416C43.8174 63.5416 44.8629 63.0565 44.9094 60.995C44.9094 60.995 46.0943 60.9465 46.2104 60.0734C46.3266 59.2003 48.0691 45.3034 48.0691 45.3034C48.0691 45.3034 48.2782 44.1635 45.6296 44.1635C45.6296 44.1635 42.1679 42.9752 38.892 44.1635L35.3142 47.8015L35.3606 51.2696L31.0625 55.7564V58.3515L32.0383 59.1761V63.1293C32.0383 63.1293 31.0625 64.0024 31.0625 65.8456C31.0625 67.6888 32.503 68.0526 32.503 68.0526H33.9434V69.241L32.3868 71.1812L32.3636 74.6979Z" fill="#B3B3B3"/>
<path d="M53.0719 74.6979H66.5935L68.7774 72.0543V69.6775C68.7774 69.6775 66.4541 65.6758 65.0369 65.1423L64.5257 63.5416C64.5257 63.5416 65.5712 63.0565 65.6177 60.995C65.6177 60.995 66.8026 60.9465 66.9187 60.0734C67.0349 59.2003 68.7774 45.3034 68.7774 45.3034C68.7774 45.3034 68.9865 44.1635 66.3379 44.1635C66.3379 44.1635 62.8762 42.9752 59.6004 44.1635L56.0225 47.8015L56.0689 51.2696L51.7708 55.7564V58.3515L52.7466 59.1761V63.1293C52.7466 63.1293 51.7708 64.0024 51.7708 65.8456C51.7708 67.6888 53.2113 68.0526 53.2113 68.0526H54.6517V69.241L53.0951 71.1812L53.0719 74.6979Z" fill="#B3B3B3"/>
<path d="M73.7802 74.6979H87.3018L89.4857 72.0543V69.6775C89.4857 69.6775 87.1624 65.6758 85.7452 65.1423L85.2341 63.5416C85.2341 63.5416 86.2796 63.0565 86.326 60.995C86.326 60.995 87.5109 60.9465 87.6271 60.0734C87.7432 59.2003 89.4857 45.3034 89.4857 45.3034C89.4857 45.3034 89.6948 44.1635 87.0463 44.1635C87.0463 44.1635 83.5845 42.9752 80.3087 44.1635L76.7308 47.8015L76.7773 51.2696L72.4792 55.7564V58.3515L73.455 59.1761V63.1293C73.455 63.1293 72.4792 64.0024 72.4792 65.8456C72.4792 67.6888 73.9196 68.0526 73.9196 68.0526H75.3601V69.241L73.8035 71.1812L73.7802 74.6979Z" fill="#B3B3B3"/>
<path d="M94.4886 74.6979H108.01L110.194 72.0543V69.6775C110.194 69.6775 107.871 65.6758 106.454 65.1423L105.942 63.5416C105.942 63.5416 106.988 63.0565 107.034 60.995C107.034 60.995 108.219 60.9465 108.335 60.0734C108.452 59.2003 110.194 45.3034 110.194 45.3034C110.194 45.3034 110.403 44.1635 107.755 44.1635C107.755 44.1635 104.293 42.9752 101.017 44.1635L97.4392 47.8015L97.4856 51.2696L93.1875 55.7564V58.3515L94.1633 59.1761V63.1293C94.1633 63.1293 93.1875 64.0024 93.1875 65.8456C93.1875 67.6888 94.628 68.0526 94.628 68.0526H96.0684V69.241L94.5118 71.1812L94.4886 74.6979Z" fill="#2A1509" stroke="#B3B3B3" stroke-width="3"/>
<path d="M12.3948 223.354H25.9164L28.1003 220.711V218.334C28.1003 218.334 25.777 214.332 24.3598 213.799L23.8486 212.198C23.8486 212.198 24.8941 211.713 24.9406 209.651C24.9406 209.651 26.1255 209.603 26.2416 208.73C26.3578 207.857 28.1003 193.96 28.1003 193.96C28.1003 193.96 28.3094 192.82 25.6608 192.82C25.6608 192.82 22.1991 191.631 18.9233 192.82L15.3454 196.458L15.3918 199.926L11.0938 204.413V207.008L12.0695 207.832V211.786C12.0695 211.786 11.0938 212.659 11.0938 214.502C11.0938 216.345 12.5342 216.709 12.5342 216.709H13.9746V217.897L12.418 219.837L12.3948 223.354Z" fill="#B3B3B3"/>
<path d="M33.1031 223.354H46.6247L48.8086 220.711V218.334C48.8086 218.334 46.4853 214.332 45.0681 213.799L44.557 212.198C44.557 212.198 45.6025 211.713 45.6489 209.651C45.6489 209.651 46.8338 209.603 46.95 208.73C47.0661 207.857 48.8086 193.96 48.8086 193.96C48.8086 193.96 49.0177 192.82 46.3692 192.82C46.3692 192.82 42.9074 191.631 39.6316 192.82L36.0537 196.458L36.1002 199.926L31.8021 204.413V207.008L32.7779 207.832V211.786C32.7779 211.786 31.8021 212.659 31.8021 214.502C31.8021 216.345 33.2425 216.709 33.2425 216.709H34.683V217.897L33.1264 219.837L33.1031 223.354Z" fill="#B3B3B3"/>
<path d="M53.8115 223.354H67.333L69.5169 220.711V218.334C69.5169 218.334 67.1936 214.332 65.7764 213.799L65.2653 212.198C65.2653 212.198 66.3108 211.713 66.3573 209.651C66.3573 209.651 67.5421 209.603 67.6583 208.73C67.7745 207.857 69.5169 193.96 69.5169 193.96C69.5169 193.96 69.726 192.82 67.0775 192.82C67.0775 192.82 63.6158 191.631 60.3399 192.82L56.762 196.458L56.8085 199.926L52.5104 204.413V207.008L53.4862 207.832V211.786C53.4862 211.786 52.5104 212.659 52.5104 214.502C52.5104 216.345 53.9509 216.709 53.9509 216.709H55.3913V217.897L53.8347 219.837L53.8115 223.354Z" fill="#B3B3B3"/>
<path d="M74.5198 223.354H88.0414L90.2253 220.711V218.334C90.2253 218.334 87.902 214.332 86.4848 213.799L85.9736 212.198C85.9736 212.198 87.0191 211.713 87.0656 209.651C87.0656 209.651 88.2505 209.603 88.3666 208.73C88.4828 207.857 90.2253 193.96 90.2253 193.96C90.2253 193.96 90.4344 192.82 87.7858 192.82C87.7858 192.82 84.3241 191.631 81.0483 192.82L77.4704 196.458L77.5168 199.926L73.2188 204.413V207.008L74.1945 207.832V211.786C74.1945 211.786 73.2188 212.659 73.2188 214.502C73.2188 216.345 74.6592 216.709 74.6592 216.709H76.0996V217.897L74.543 219.837L74.5198 223.354Z" fill="#2A1509" stroke="#B3B3B3" stroke-width="3"/>
<path d="M95.2281 223.354H108.75L110.934 220.711V218.334C110.934 218.334 108.61 214.332 107.193 213.799L106.682 212.198C106.682 212.198 107.727 211.713 107.774 209.651C107.774 209.651 108.959 209.603 109.075 208.73C109.191 207.857 110.934 193.96 110.934 193.96C110.934 193.96 111.143 192.82 108.494 192.82C108.494 192.82 105.032 191.631 101.757 192.82L98.1787 196.458L98.2252 199.926L93.9271 204.413V207.008L94.9028 207.832V211.786C94.9028 211.786 93.9271 212.659 93.9271 214.502C93.9271 216.345 95.3675 216.709 95.3675 216.709H96.808V217.897L95.2513 219.837L95.2281 223.354Z" fill="#2A1509" stroke="#B3B3B3" stroke-width="3"/>
<path d="M11.301 518.063H24.8226L27.0065 515.419V513.042C27.0065 513.042 24.6832 509.04 23.266 508.507L22.7549 506.906C22.7549 506.906 23.8004 506.421 23.8468 504.36C23.8468 504.36 25.0317 504.311 25.1479 503.438C25.2641 502.565 27.0065 488.668 27.0065 488.668C27.0065 488.668 27.2156 487.528 24.5671 487.528C24.5671 487.528 21.1054 486.34 17.8295 487.528L14.2516 491.166L14.2981 494.634L10 499.121V501.716L10.9758 502.541V506.494C10.9758 506.494 10 507.367 10 509.21C10 511.053 11.4404 511.417 11.4404 511.417H12.8809V512.606L11.3243 514.546L11.301 518.063Z" fill="#B3B3B3"/>
<path d="M32.0094 518.063H45.531L47.7149 515.419V513.042C47.7149 513.042 45.3916 509.04 43.9744 508.507L43.4632 506.906C43.4632 506.906 44.5087 506.421 44.5552 504.36C44.5552 504.36 45.7401 504.311 45.8562 503.438C45.9724 502.565 47.7149 488.668 47.7149 488.668C47.7149 488.668 47.924 487.528 45.2754 487.528C45.2754 487.528 41.8137 486.34 38.5379 487.528L34.96 491.166L35.0064 494.634L30.7083 499.121V501.716L31.6841 502.541V506.494C31.6841 506.494 30.7083 507.367 30.7083 509.21C30.7083 511.053 32.1488 511.417 32.1488 511.417H33.5892V512.606L32.0326 514.546L32.0094 518.063Z" fill="#B3B3B3"/>
<path d="M52.7177 518.063H66.2393L68.4232 515.419V513.042C68.4232 513.042 66.0999 509.04 64.6827 508.507L64.1716 506.906C64.1716 506.906 65.217 506.421 65.2635 504.36C65.2635 504.36 66.4484 504.311 66.5645 503.438C66.6807 502.565 68.4232 488.668 68.4232 488.668C68.4232 488.668 68.6323 487.528 65.9837 487.528C65.9837 487.528 62.522 486.34 59.2462 487.528L55.6683 491.166L55.7148 494.634L51.4167 499.121V501.716L52.3924 502.541V506.494C52.3924 506.494 51.4167 507.367 51.4167 509.21C51.4167 511.053 52.8571 511.417 52.8571 511.417H54.2975V512.606L52.7409 514.546L52.7177 518.063Z" fill="#B3B3B3"/>
<path d="M73.426 518.063H86.9476L89.1315 515.419V513.042C89.1315 513.042 86.8082 509.04 85.391 508.507L84.8799 506.906C84.8799 506.906 85.9254 506.421 85.9718 504.36C85.9718 504.36 87.1567 504.311 87.2729 503.438C87.3891 502.565 89.1315 488.668 89.1315 488.668C89.1315 488.668 89.3406 487.528 86.6921 487.528C86.6921 487.528 83.2304 486.34 79.9545 487.528L76.3766 491.166L76.4231 494.634L72.125 499.121V501.716L73.1008 502.541V506.494C73.1008 506.494 72.125 507.367 72.125 509.21C72.125 511.053 73.5654 511.417 73.5654 511.417H75.0059V512.606L73.4493 514.546L73.426 518.063Z" fill="#2A1509" stroke="#B3B3B3" stroke-width="3"/>
<path d="M94.1344 518.063H107.656L109.84 515.419V513.042C109.84 513.042 107.517 509.04 106.099 508.507L105.588 506.906C105.588 506.906 106.634 506.421 106.68 504.36C106.68 504.36 107.865 504.311 107.981 503.438C108.097 502.565 109.84 488.668 109.84 488.668C109.84 488.668 110.049 487.528 107.4 487.528C107.4 487.528 103.939 486.34 100.663 487.528L97.0849 491.166L97.1314 494.634L92.8333 499.121V501.716L93.8091 502.541V506.494C93.8091 506.494 92.8333 507.367 92.8333 509.21C92.8333 511.053 94.2738 511.417 94.2738 511.417H95.7142V512.606L94.1576 514.546L94.1344 518.063Z" fill="#2A1509" stroke="#B3B3B3" stroke-width="3"/>
<path d="M12.3948 370.063H25.9164L28.1003 367.419V365.042C28.1003 365.042 25.777 361.04 24.3598 360.507L23.8486 358.906C23.8486 358.906 24.8941 358.421 24.9406 356.36C24.9406 356.36 26.1255 356.311 26.2416 355.438C26.3578 354.565 28.1003 340.668 28.1003 340.668C28.1003 340.668 28.3094 339.528 25.6608 339.528C25.6608 339.528 22.1991 338.34 18.9233 339.528L15.3454 343.166L15.3918 346.634L11.0938 351.121V353.716L12.0695 354.541V358.494C12.0695 358.494 11.0938 359.367 11.0938 361.21C11.0938 363.053 12.5342 363.417 12.5342 363.417H13.9746V364.606L12.418 366.546L12.3948 370.063Z" fill="#B3B3B3"/>
<path d="M33.1031 370.063H46.6247L48.8086 367.419V365.042C48.8086 365.042 46.4853 361.04 45.0681 360.507L44.557 358.906C44.557 358.906 45.6025 358.421 45.6489 356.36C45.6489 356.36 46.8338 356.311 46.95 355.438C47.0661 354.565 48.8086 340.668 48.8086 340.668C48.8086 340.668 49.0177 339.528 46.3692 339.528C46.3692 339.528 42.9074 338.34 39.6316 339.528L36.0537 343.166L36.1002 346.634L31.8021 351.121V353.716L32.7779 354.541V358.494C32.7779 358.494 31.8021 359.367 31.8021 361.21C31.8021 363.053 33.2425 363.417 33.2425 363.417H34.683V364.606L33.1264 366.546L33.1031 370.063Z" fill="#B3B3B3"/>
<path d="M53.8115 370.063H67.333L69.5169 367.419V365.042C69.5169 365.042 67.1936 361.04 65.7764 360.507L65.2653 358.906C65.2653 358.906 66.3108 358.421 66.3573 356.36C66.3573 356.36 67.5421 356.311 67.6583 355.438C67.7745 354.565 69.5169 340.668 69.5169 340.668C69.5169 340.668 69.726 339.528 67.0775 339.528C67.0775 339.528 63.6158 338.34 60.3399 339.528L56.762 343.166L56.8085 346.634L52.5104 351.121V353.716L53.4862 354.541V358.494C53.4862 358.494 52.5104 359.367 52.5104 361.21C52.5104 363.053 53.9509 363.417 53.9509 363.417H55.3913V364.606L53.8347 366.546L53.8115 370.063Z" fill="#2A1509" stroke="#B3B3B3" stroke-width="3"/>
<path d="M74.5198 370.063H88.0414L90.2253 367.419V365.042C90.2253 365.042 87.902 361.04 86.4848 360.507L85.9736 358.906C85.9736 358.906 87.0191 358.421 87.0656 356.36C87.0656 356.36 88.2505 356.311 88.3666 355.438C88.4828 354.565 90.2253 340.668 90.2253 340.668C90.2253 340.668 90.4344 339.528 87.7858 339.528C87.7858 339.528 84.3241 338.34 81.0483 339.528L77.4704 343.166L77.5168 346.634L73.2188 351.121V353.716L74.1945 354.541V358.494C74.1945 358.494 73.2188 359.367 73.2188 361.21C73.2188 363.053 74.6592 363.417 74.6592 363.417H76.0996V364.606L74.543 366.546L74.5198 370.063Z" fill="#2A1509" stroke="#B3B3B3" stroke-width="3"/>
<path d="M95.2281 370.063H108.75L110.934 367.419V365.042C110.934 365.042 108.61 361.04 107.193 360.507L106.682 358.906C106.682 358.906 107.727 358.421 107.774 356.36C107.774 356.36 108.959 356.311 109.075 355.438C109.191 354.565 110.934 340.668 110.934 340.668C110.934 340.668 111.143 339.528 108.494 339.528C108.494 339.528 105.032 338.34 101.757 339.528L98.1787 343.166L98.2252 346.634L93.9271 351.121V353.716L94.9028 354.541V358.494C94.9028 358.494 93.9271 359.367 93.9271 361.21C93.9271 363.053 95.3675 363.417 95.3675 363.417H96.808V364.606L95.2513 366.546L95.2281 370.063Z" fill="#2A1509" stroke="#B3B3B3" stroke-width="3"/>
<g clip-path="url(#clip0_33_173)">
<path d="M250.719 36.1279L245.935 90.1379L224.432 96.1458L202.988 90.146L198.208 36.1279H250.719Z" fill="#E44D26"/>
<path d="M224.464 91.5532L241.84 86.6984L245.928 40.5444H224.464V91.5532Z" fill="#F16529"/>
<path d="M215.163 53.7951H224.463V47.1735H207.979L208.137 48.9511L209.753 67.2079H224.464V60.5795H215.765L215.163 53.7951ZM216.645 70.517H210.046L210.967 80.9191L224.433 84.6841L224.463 84.676V77.7855L224.434 77.7928L217.113 75.8008L216.646 70.517H216.645Z" fill="#EBEBEB"/>
<path d="M203.094 21.4479H206.434V24.7745H209.49V21.4479H212.831V31.5212H209.49V28.1482H206.434V31.5212H203.094V21.4479ZM217.224 24.7886H214.284V21.4479H223.508V24.7886H220.566V31.5212H217.225V24.7886H217.224ZM224.972 21.4479H228.457L230.6 24.987L232.738 21.4479H236.223V31.5212H232.896V26.5279L230.598 30.1094H230.54L228.24 26.5279V31.5205H224.971L224.972 21.4479ZM237.886 21.4479H241.227V28.1912H245.925V31.5205H237.886V21.4479V21.4479Z" fill="black"/>
<path d="M224.441 67.2038H232.536L231.772 75.796L224.44 77.7901V84.6827L237.916 80.9177L238.014 79.7983L239.559 62.3564L239.72 60.5774H224.441V67.2038ZM224.441 53.7783V53.7944H240.318L240.451 52.3052L240.751 48.9436L240.908 47.166H224.441V53.7749V53.7783Z" fill="white"/>
</g>
<g clip-path="url(#clip1_33_173)">
<path d="M272.606 93.0164L258.485 96.8858L244.363 93.0164L241.104 57.09H275.865L272.606 93.0164Z" fill="#2062AF"/>
<path d="M258.484 59.9999V93.7979L258.516 93.8068L269.944 90.6774L272.58 60.0003L258.484 59.9999Z" fill="#3C9CD7"/>
<path d="M250.47 51.8115V49.6732H253.535V47.3333H248.171V53.9467H253.535V51.8115H250.47ZM259.05 49.6732H261.194V47.3333H255.828V49.6732C256.546 50.4037 256.92 50.7533 257.958 51.8097H255.828V53.9444H261.193V51.8115L259.05 49.6732ZM266.655 49.6732H268.798V47.3333H263.433V49.6732C264.15 50.4037 264.525 50.7533 265.563 51.8097H263.433V53.9444H268.798V51.8115L266.655 49.6732Z" fill="black"/>
<path d="M258.471 68.9827L248.364 73.2665L248.699 77.5078L258.471 73.2557L268.866 68.7332L269.297 64.3967L258.471 68.9849V68.9827Z" fill="white"/>
<path d="M248.364 73.2666L248.699 77.5078L258.471 73.2558V68.9828L248.364 73.2666Z" fill="url(#paint0_linear_33_173)"/>
<path d="M269.297 64.3945L258.471 68.9827V73.2558L268.866 68.7333L269.297 64.3945Z" fill="url(#paint1_linear_33_173)"/>
<path d="M248.38 73.2665L248.715 77.5078L263.709 77.5565L263.374 83.2114L258.44 84.625L253.695 83.4063L253.408 79.8964H249.003L249.578 86.6721L258.488 89.3545L267.349 86.7222L268.499 73.2683L248.38 73.2665Z" fill="url(#paint2_linear_33_173)"/>
<path opacity="0.05" d="M258.471 73.2665H248.364L248.699 77.5078L258.471 77.5395V73.2665ZM258.471 84.6112L258.424 84.6246L253.681 83.4059L253.394 79.896H248.989L249.564 86.6717L258.473 89.3541L258.471 84.6112Z" fill="black"/>
<path d="M247.455 64.3945H269.298L268.867 68.731H247.982L247.455 64.3945Z" fill="url(#paint3_linear_33_173)"/>
<path opacity="0.05" d="M258.471 64.3945H247.455L247.982 68.731H258.472L258.471 64.3945Z" fill="black"/>
</g>
<rect x="115.375" y="646.729" width="71.7396" height="8.875" fill="#391C0C"/>
<rect x="176.021" y="592" width="119.812" height="29.5833" rx="9" fill="#93624A"/>
<rect x="176.021" y="621.583" width="119.812" height="29.5833" rx="9" fill="#633415"/>
<rect x="176.021" y="651.167" width="119.812" height="29.5833" rx="9" fill="#93624A"/>
<rect x="176.021" y="680.75" width="119.812" height="29.5833" rx="9" fill="#633415"/>
<rect y="621.583" width="119.812" height="29.5833" rx="9" fill="#93624A"/>
<rect x="3.05176e-05" y="651.167" width="119.812" height="29.5833" rx="9" fill="#633415"/>
<g clip-path="url(#clip2_33_173)">
<path d="M198.775 168.858H275.059V245.143H198.775V168.858Z" fill="#F0DB4F"/>
<path d="M268.816 226.948C268.257 223.468 265.988 220.545 259.266 217.819C256.93 216.746 254.327 215.978 253.551 214.208C253.276 213.178 253.239 212.598 253.414 211.975C253.914 209.952 256.329 209.321 258.243 209.901C259.476 210.314 260.643 211.264 261.347 212.78C264.638 210.648 264.632 210.662 266.93 209.197C266.089 207.893 265.64 207.291 265.089 206.732C263.109 204.521 260.411 203.382 256.097 203.469L253.849 203.76C251.696 204.304 249.643 205.434 248.44 206.95C244.829 211.047 245.859 218.219 250.253 221.17C254.582 224.419 260.941 225.158 261.754 228.196C262.544 231.916 259.02 233.12 255.517 232.692C252.936 232.156 251.5 230.844 249.948 228.458C247.091 230.111 247.091 230.111 244.154 231.8C244.851 233.323 245.583 234.012 246.75 235.332C252.276 240.937 266.104 240.661 268.584 232.178C268.685 231.886 269.352 229.944 268.816 226.948V226.948ZM240.245 203.918H233.11L233.081 222.365C233.081 226.289 233.284 229.885 232.646 230.987C231.602 233.156 228.897 232.887 227.664 232.466C226.409 231.85 225.771 230.973 225.032 229.733C224.829 229.377 224.677 229.102 224.626 229.081L218.824 232.633C219.789 234.613 221.21 236.332 223.03 237.448C225.749 239.08 229.404 239.58 233.226 238.703C235.713 237.978 237.859 236.477 238.983 234.193C240.608 231.198 240.259 227.572 240.244 223.563C240.281 217.021 240.245 210.481 240.245 203.918Z" fill="#323330"/>
</g>
<path d="M269.684 484.152L269.864 484.032C269.503 483.37 268.962 482.769 268.42 482.468L239.365 465.745C238.884 465.444 238.222 465.323 237.5 465.323C236.778 465.323 236.116 465.504 235.635 465.745L206.76 482.528C205.737 483.13 205.016 484.634 205.016 485.777V519.284C205.016 519.945 205.136 520.667 205.557 521.329L205.437 521.389C205.737 521.87 206.159 522.291 206.58 522.532L235.575 539.316C236.056 539.616 236.718 539.737 237.44 539.737C238.162 539.737 238.823 539.556 239.305 539.316L268.18 522.532C269.202 521.931 269.924 520.427 269.924 519.284V485.716C269.984 485.235 269.924 484.694 269.684 484.152V484.152ZM237.5 517.238C242.974 517.238 247.787 514.231 250.313 509.779L258.073 514.351C253.983 521.449 246.283 526.262 237.5 526.262C224.386 526.262 213.738 515.614 213.738 502.5C213.738 489.386 224.386 478.738 237.5 478.738C246.343 478.738 254.043 483.611 258.134 490.77L250.313 495.281C247.787 490.77 242.974 487.762 237.5 487.762C229.379 487.762 222.762 494.379 222.762 502.5C222.762 510.621 229.379 517.238 237.5 517.238V517.238Z" fill="#03599C"/>
<path d="M236 350.612C239.13 350.612 241.667 348.075 241.667 344.945C241.667 341.815 239.13 339.278 236 339.278C232.87 339.278 230.333 341.815 230.333 344.945C230.333 348.075 232.87 350.612 236 350.612Z" fill="#61DAFB"/>
<path d="M236 365.786C240.448 370.112 244.836 372.672 248.37 372.672C249.528 372.672 250.625 372.428 251.539 371.88C254.708 370.052 255.866 365.481 254.769 358.961C254.586 357.803 254.342 356.645 254.038 355.427C255.256 355.061 256.353 354.695 257.45 354.33C263.605 351.953 267.017 348.662 267.017 345.067C267.017 341.411 263.605 338.12 257.45 335.805C256.353 335.378 255.256 335.012 254.038 334.708C254.342 333.489 254.586 332.331 254.769 331.173C255.805 324.531 254.647 319.9 251.478 318.072C250.564 317.523 249.467 317.28 248.309 317.28C244.836 317.28 240.388 319.839 235.939 324.166C231.552 319.839 227.164 317.28 223.63 317.28C222.472 317.28 221.375 317.523 220.461 318.072C217.292 319.9 216.134 324.47 217.231 330.991C217.414 332.148 217.658 333.306 217.963 334.525C216.744 334.891 215.647 335.256 214.55 335.622C208.395 337.998 204.983 341.289 204.983 344.884C204.983 348.541 208.395 351.831 214.55 354.147C215.647 354.573 216.744 354.939 217.963 355.244C217.658 356.462 217.414 357.62 217.231 358.778C216.195 365.298 217.353 369.93 220.461 371.697C221.375 372.245 222.472 372.489 223.63 372.489C227.164 372.611 231.552 370.052 236 365.786V365.786ZM232.588 357.559C233.684 357.62 234.842 357.62 236 357.62C237.158 357.62 238.316 357.62 239.413 357.559C238.316 359.022 237.158 360.362 236 361.642C234.842 360.362 233.684 359.022 232.588 357.559V357.559ZM225.031 351.283C225.641 352.319 226.189 353.294 226.859 354.269C224.97 354.025 223.203 353.72 221.497 353.355C222.045 351.709 222.655 350.003 223.386 348.297C223.873 349.272 224.422 350.308 225.031 351.283V351.283ZM221.497 336.597C223.203 336.231 224.97 335.927 226.859 335.683C226.25 336.658 225.641 337.633 225.031 338.669C224.422 339.705 223.873 340.68 223.386 341.716C222.594 339.948 221.984 338.242 221.497 336.597V336.597ZM224.848 344.945C225.641 343.3 226.494 341.655 227.469 340.009C228.383 338.425 229.419 336.841 230.455 335.256C232.283 335.134 234.111 335.073 236 335.073C237.95 335.073 239.778 335.134 241.545 335.256C242.642 336.841 243.617 338.425 244.531 340.009C245.506 341.655 246.359 343.3 247.152 344.945C246.359 346.591 245.506 348.236 244.531 349.881C243.617 351.466 242.581 353.05 241.545 354.634C239.717 354.756 237.889 354.817 236 354.817C234.05 354.817 232.222 354.756 230.455 354.634C229.358 353.05 228.383 351.466 227.469 349.881C226.494 348.236 225.641 346.591 224.848 344.945V344.945ZM248.675 341.655L247.03 338.608C246.42 337.572 245.872 336.597 245.202 335.622C247.091 335.866 248.858 336.17 250.564 336.536C250.016 338.242 249.406 339.948 248.675 341.655ZM248.675 348.236C249.406 349.942 250.016 351.648 250.564 353.294C248.858 353.659 247.091 353.964 245.202 354.208C245.811 353.233 246.42 352.258 247.03 351.222C247.578 350.308 248.127 349.272 248.675 348.236ZM250.077 369.381C249.589 369.686 248.98 369.808 248.309 369.808C245.323 369.808 241.606 367.37 237.95 363.714C239.717 361.825 241.423 359.692 243.13 357.316C245.994 357.072 248.736 356.645 251.295 356.036C251.6 357.133 251.783 358.23 251.966 359.327C252.819 364.506 252.148 368.223 250.077 369.381V369.381ZM253.245 337.267C260.07 339.217 264.153 342.203 264.153 344.945C264.153 347.322 261.35 349.698 256.414 351.587C255.439 351.953 254.342 352.319 253.245 352.623C252.453 350.125 251.478 347.566 250.259 344.945C251.478 342.325 252.514 339.766 253.245 337.267ZM248.37 320.083C249.041 320.083 249.589 320.205 250.138 320.509C252.148 321.667 252.88 325.323 252.027 330.564C251.844 331.6 251.6 332.697 251.356 333.855C248.797 333.306 246.055 332.88 243.191 332.575C241.545 330.198 239.778 328.066 238.011 326.177C241.667 322.581 245.384 320.083 248.37 320.083V320.083ZM239.413 332.331C238.316 332.27 237.158 332.27 236 332.27C234.842 332.27 233.684 332.27 232.588 332.331C233.684 330.869 234.842 329.528 236 328.248C237.158 329.528 238.316 330.93 239.413 332.331ZM221.923 320.509C222.411 320.205 223.02 320.083 223.691 320.083C226.677 320.083 230.394 322.52 234.05 326.177C232.283 328.066 230.577 330.198 228.87 332.575C226.006 332.819 223.264 333.245 220.705 333.855C220.4 332.758 220.217 331.661 220.034 330.564C219.181 325.384 219.852 321.728 221.923 320.509V320.509ZM218.755 352.623C211.93 350.673 207.847 347.687 207.847 344.945C207.847 342.569 210.65 340.192 215.586 338.303C216.561 337.937 217.658 337.572 218.755 337.267C219.547 339.766 220.522 342.325 221.741 344.945C220.522 347.566 219.486 350.186 218.755 352.623ZM220.034 359.327C220.217 358.291 220.461 357.194 220.705 356.036C223.264 356.584 226.006 357.011 228.87 357.316C230.516 359.692 232.283 361.825 234.05 363.714C230.394 367.309 226.677 369.808 223.691 369.808C223.02 369.808 222.472 369.686 221.923 369.381C219.852 368.223 219.181 364.506 220.034 359.327V359.327ZM217.475 384.433C218.816 382.787 218.877 380.959 218.145 379.131C217.414 377.303 215.891 376.45 214.002 376.389C211.747 376.328 209.431 376.389 207.177 376.389H206.75V392.172H208.578V386.2H211.442C211.808 386.2 212.113 386.322 212.295 386.627L215.952 392.294C216.013 392.416 216.195 392.598 216.317 392.598H218.694C217.231 390.344 215.83 388.211 214.367 386.017C215.647 385.834 216.744 385.408 217.475 384.433V384.433ZM208.578 384.311V378.278H209.248C210.65 378.278 212.113 378.217 213.514 378.339C215.159 378.4 216.317 379.68 216.317 381.325C216.317 382.97 214.977 384.25 213.331 384.311C211.869 384.372 210.406 384.311 208.578 384.311V384.311ZM232.161 385.103C231.186 380.837 227.286 379.741 224.3 381.081C221.984 382.117 220.948 384.128 220.888 386.627C220.827 388.516 221.375 390.222 222.838 391.502C224.483 392.964 226.494 393.147 228.566 392.781C229.723 392.537 230.759 391.989 231.552 391.136C231.247 390.709 230.942 390.283 230.638 389.917C228.931 391.38 227.042 391.867 224.97 390.892C223.63 390.222 222.959 388.577 222.838 387.358H232.283V386.566C232.344 386.017 232.283 385.53 232.161 385.103V385.103ZM222.959 386.078C222.777 384.25 224.605 382.3 226.616 382.3C228.931 382.239 230.394 383.641 230.455 386.078H222.959V386.078ZM241.667 380.777C240.753 380.594 239.778 380.533 238.864 380.594C237.402 380.716 236.122 381.386 235.086 382.483C235.391 382.909 235.634 383.336 236 383.823C236.122 383.702 236.244 383.58 236.366 383.519C237.341 382.605 238.498 382.117 239.9 382.239C240.997 382.3 242.033 382.666 242.338 383.762C242.581 384.616 242.52 385.53 242.581 386.444C242.398 386.444 242.338 386.383 242.277 386.322C240.814 385.103 239.169 384.859 237.402 385.286C235.756 385.712 234.72 386.992 234.598 388.637C234.477 390.527 235.33 391.928 236.975 392.598C238.011 393.025 239.169 393.025 240.266 392.781C241.119 392.598 241.484 392.111 242.703 391.441V392.233H244.409C244.409 389.795 244.47 386.809 244.409 384.006C244.409 382.239 243.373 381.142 241.667 380.777ZM242.52 388.455C242.459 388.637 242.52 388.82 242.52 389.003C242.52 390.283 242.216 390.709 240.997 391.197C240.144 391.502 239.23 391.623 238.316 391.319C237.28 391.014 236.548 390.1 236.548 389.064C236.488 388.028 237.158 386.992 238.194 386.687C239.595 386.2 240.875 386.505 242.033 387.358C242.398 387.662 242.642 387.967 242.52 388.455V388.455ZM252.027 382.422C253.611 381.934 255.073 382.239 256.17 383.58L256.353 383.702C256.78 383.336 257.145 382.97 257.633 382.544C257.45 382.361 257.389 382.239 257.267 382.056C255.5 380.167 252.027 379.923 249.894 381.447C246.908 383.641 246.969 387.906 248.431 390.161C249.833 392.294 251.844 393.025 254.22 392.72C255.622 392.537 256.78 391.867 257.694 390.709C257.267 390.344 256.841 389.978 256.414 389.552C256.292 389.673 256.231 389.734 256.17 389.856C254.525 391.684 251.783 391.502 250.32 389.552C249.467 388.394 249.284 387.053 249.528 385.712C249.65 384.189 250.442 382.97 252.027 382.422ZM264.702 390.709C264.58 390.77 264.519 390.831 264.519 390.831C264.031 391.197 263.544 391.258 262.995 391.075C262.447 390.831 262.386 390.344 262.325 389.856V382.909C262.325 382.787 262.325 383.031 262.386 382.422H264.702V380.594H262.264V377.547H260.436V380.837H258.852C258.73 380.837 258.547 380.959 258.547 381.081C258.486 381.508 258.547 381.812 258.547 382.422H260.497V390.222C260.497 391.197 260.741 392.05 261.594 392.537C262.508 393.086 264.275 392.964 265.067 392.294C265.189 392.233 265.25 391.989 265.25 391.928C265.067 391.562 264.884 391.136 264.702 390.709V390.709Z" fill="#61DAFB"/>
<g clip-path="url(#clip3_33_173)">
<path d="M233.748 616C215.978 616 217.085 623.746 217.085 623.746L217.105 631.772H234.065V634.182H210.373C210.373 634.182 199 632.886 199 650.909C199 668.932 208.925 668.295 208.925 668.295H214.849V659.931C214.849 659.931 214.53 649.954 224.616 649.954H241.434C241.434 649.954 250.884 650.108 250.884 640.774V625.342C250.884 625.342 252.319 616 233.748 616ZM224.397 621.397C225.102 621.398 225.785 621.644 226.33 622.094C226.874 622.544 227.247 623.17 227.384 623.865C227.521 624.56 227.414 625.282 227.081 625.907C226.749 626.532 226.211 627.021 225.559 627.292C224.908 627.563 224.183 627.598 223.508 627.392C222.834 627.186 222.251 626.752 221.859 626.162C221.468 625.573 221.292 624.865 221.361 624.16C221.43 623.454 221.741 622.795 222.239 622.294C222.522 622.009 222.859 621.783 223.229 621.629C223.6 621.476 223.996 621.396 224.397 621.397V621.397Z" fill="url(#paint4_linear_33_173)"/>
<path d="M234.252 686C252.023 686 250.914 678.251 250.914 678.251L250.894 670.225H233.936V667.818H257.627C257.627 667.818 268.999 669.115 268.999 651.09C268.999 633.066 259.073 633.705 259.073 633.705H253.152V642.069C253.152 642.069 253.471 652.046 243.385 652.046H226.566C226.566 652.046 217.116 651.892 217.116 661.227V676.663C217.116 676.663 215.684 686 234.252 686V686ZM243.603 680.604C242.898 680.603 242.215 680.357 241.67 679.907C241.125 679.457 240.752 678.831 240.615 678.136C240.477 677.44 240.584 676.719 240.917 676.094C241.25 675.469 241.788 674.979 242.439 674.708C243.091 674.437 243.816 674.401 244.49 674.607C245.165 674.813 245.748 675.247 246.14 675.837C246.532 676.426 246.708 677.134 246.639 677.84C246.57 678.545 246.259 679.205 245.761 679.706C245.478 679.991 245.141 680.217 244.771 680.371C244.401 680.525 244.004 680.604 243.603 680.604Z" fill="url(#paint5_linear_33_173)"/>
</g>
<path d="M12.301 666.063H25.8226L28.0065 663.419V661.042C28.0065 661.042 25.6832 657.04 24.266 656.507L23.7549 654.906C23.7549 654.906 24.8004 654.421 24.8468 652.36C24.8468 652.36 26.0317 652.311 26.1479 651.438C26.2641 650.565 28.0065 636.668 28.0065 636.668C28.0065 636.668 28.2156 635.528 25.5671 635.528C25.5671 635.528 22.1054 634.34 18.8295 635.528L15.2516 639.166L15.2981 642.634L11 647.121V649.716L11.9758 650.541V654.494C11.9758 654.494 11 655.367 11 657.21C11 659.053 12.4404 659.417 12.4404 659.417H13.8809V660.606L12.3243 662.546L12.301 666.063Z" fill="#B3B3B3"/>
<path d="M33.0094 666.063H46.531L48.7149 663.419V661.042C48.7149 661.042 46.3916 657.04 44.9744 656.507L44.4632 654.906C44.4632 654.906 45.5087 654.421 45.5552 652.36C45.5552 652.36 46.7401 652.311 46.8562 651.438C46.9724 650.565 48.7149 636.668 48.7149 636.668C48.7149 636.668 48.924 635.528 46.2754 635.528C46.2754 635.528 42.8137 634.34 39.5379 635.528L35.96 639.166L36.0064 642.634L31.7083 647.121V649.716L32.6841 650.541V654.494C32.6841 654.494 31.7083 655.367 31.7083 657.21C31.7083 659.053 33.1488 659.417 33.1488 659.417H34.5892V660.606L33.0326 662.546L33.0094 666.063Z" fill="#B3B3B3"/>
<path d="M53.7177 666.063H67.2393L69.4232 663.419V661.042C69.4232 661.042 67.0999 657.04 65.6827 656.507L65.1716 654.906C65.1716 654.906 66.217 654.421 66.2635 652.36C66.2635 652.36 67.4484 652.311 67.5645 651.438C67.6807 650.565 69.4232 636.668 69.4232 636.668C69.4232 636.668 69.6323 635.528 66.9837 635.528C66.9837 635.528 63.522 634.34 60.2462 635.528L56.6683 639.166L56.7148 642.634L52.4167 647.121V649.716L53.3924 650.541V654.494C53.3924 654.494 52.4167 655.367 52.4167 657.21C52.4167 659.053 53.8571 659.417 53.8571 659.417H55.2975V660.606L53.7409 662.546L53.7177 666.063Z" fill="#2A1509" stroke="#B3B3B3" stroke-width="3"/>
<path d="M74.426 666.063H87.9476L90.1315 663.419V661.042C90.1315 661.042 87.8082 657.04 86.391 656.507L85.8799 654.906C85.8799 654.906 86.9254 654.421 86.9718 652.36C86.9718 652.36 88.1567 652.311 88.2729 651.438C88.3891 650.565 90.1315 636.668 90.1315 636.668C90.1315 636.668 90.3406 635.528 87.6921 635.528C87.6921 635.528 84.2304 634.34 80.9545 635.528L77.3766 639.166L77.4231 642.634L73.125 647.121V649.716L74.1008 650.541V654.494C74.1008 654.494 73.125 655.367 73.125 657.21C73.125 659.053 74.5654 659.417 74.5654 659.417H76.0059V660.606L74.4493 662.546L74.426 666.063Z" fill="#2A1509" stroke="#B3B3B3" stroke-width="3"/>
<path d="M95.1344 666.063H108.656L110.84 663.419V661.042C110.84 661.042 108.517 657.04 107.099 656.507L106.588 654.906C106.588 654.906 107.634 654.421 107.68 652.36C107.68 652.36 108.865 652.311 108.981 651.438C109.097 650.565 110.84 636.668 110.84 636.668C110.84 636.668 111.049 635.528 108.4 635.528C108.4 635.528 104.939 634.34 101.663 635.528L98.0849 639.166L98.1314 642.634L93.8333 647.121V649.716L94.8091 650.541V654.494C94.8091 654.494 93.8333 655.367 93.8333 657.21C93.8333 659.053 95.2738 659.417 95.2738 659.417H96.7142V660.606L95.1576 662.546L95.1344 666.063Z" fill="#2A1509" stroke="#B3B3B3" stroke-width="3"/>
<defs>
<linearGradient id="paint0_linear_33_173" x1="144.978" y1="184.898" x2="144.978" y2="193.423" gradientUnits="userSpaceOnUse">
<stop offset="0.387" stop-color="#D1D3D4" stop-opacity="0"/>
<stop offset="1" stop-color="#D1D3D4"/>
</linearGradient>
<linearGradient id="paint1_linear_33_173" x1="155.452" y1="189.143" x2="155.452" y2="198.004" gradientUnits="userSpaceOnUse">
<stop offset="0.387" stop-color="#D1D3D4" stop-opacity="0"/>
<stop offset="1" stop-color="#D1D3D4"/>
</linearGradient>
<linearGradient id="paint2_linear_33_173" x1="139.938" y1="181.105" x2="160.057" y2="181.105" gradientUnits="userSpaceOnUse">
<stop stop-color="#E8E7E5"/>
<stop offset="1" stop-color="white"/>
</linearGradient>
<linearGradient id="paint3_linear_33_173" x1="139.027" y1="195.778" x2="160.87" y2="195.778" gradientUnits="userSpaceOnUse">
<stop stop-color="#E8E7E5"/>
<stop offset="1" stop-color="white"/>
</linearGradient>
<linearGradient id="paint4_linear_33_173" x1="205.748" y1="622.276" x2="240.576" y2="656.637" gradientUnits="userSpaceOnUse">
<stop stop-color="#387EB8"/>
<stop offset="1" stop-color="#366994"/>
</linearGradient>
<linearGradient id="paint5_linear_33_173" x1="227.005" y1="644.476" x2="264.434" y2="679.654" gradientUnits="userSpaceOnUse">
<stop stop-color="#FFE052"/>
<stop offset="1" stop-color="#FFC331"/>
</linearGradient>
<clipPath id="clip0_33_173">
<rect width="52.5104" height="74.6979" fill="white" transform="translate(198.208 21.4479)"/>
</clipPath>
<clipPath id="clip1_33_173">
<rect width="34.7604" height="49.5521" fill="white" transform="translate(241.104 47.3333)"/>
</clipPath>
<clipPath id="clip2_33_173">
<rect width="78" height="78" fill="white" transform="translate(197.917 168)"/>
</clipPath>
<clipPath id="clip3_33_173">
<rect width="70" height="70" fill="white" transform="translate(199 616)"/>
</clipPath>
</defs>
</svg>
