<svg width="80" height="80" viewBox="0 0 80 80" fill="none" xmlns="http://www.w3.org/2000/svg">
<path d="M57.32 0C70.88 0 80 9.52 80 23.64V56.32C80 70.48 70.88 80 57.32 80H22.64C9.084 80 0 70.48 0 56.32V23.64C0 9.52 9.084 0 22.64 0H57.32ZM40 20.68C38.32 20.68 37 22 37 23.68V49.08L27.12 39.16C26.56 38.6 25.76 38.28 25 38.28C24.244 38.28 23.48 38.6 22.88 39.16C21.72 40.32 21.72 42.24 22.88 43.4L37.88 58.48C39 59.6 41 59.6 42.12 58.48L57.12 43.4C58.28 42.24 58.28 40.32 57.12 39.16C55.92 38 54.04 38 52.84 39.16L43 49.08V23.68C43 22 41.64 20.68 40 20.68Z" fill="#E6E6E6"/>
</svg>
