<svg width="50" height="50" viewBox="0 0 50 50" fill="none" xmlns="http://www.w3.org/2000/svg">
<path d="M25 47.6684L49.6114 29.43C47.513 41.114 37.3057 50 25 50C12.6943 50 2.48706 41.114 0.388611 29.43L25 47.6684Z" fill="#236D28"/>
<path d="M25 2.33161L0.388611 20.5699C2.48706 8.88601 12.6943 0 25 0C37.3057 0 47.513 8.88601 49.6114 20.5699L25 2.33161Z" fill="#236D28"/>
<path d="M50 25C50 26.5026 49.8705 28.0052 49.6114 29.43L25 47.6684L0.388601 29.43C0.129534 27.9793 0 26.5026 0 25C0 23.4974 0.129534 21.9948 0.388601 20.5699L25 2.3316L49.6114 20.5699C49.8705 21.9948 50 23.4974 50 25Z" fill="#EAEA21"/>
<path d="M38.6269 23.1865C26.8394 20.9067 15.3368 22.513 11.373 23.2124C12.2539 16.4767 18.0052 11.2435 25 11.2435C31.9689 11.2435 37.7461 16.4508 38.6269 23.1865Z" fill="#1A1D5B"/>
<path d="M38.6787 26.3731C37.9793 33.3161 32.1243 38.7306 25 38.7306C17.8756 38.7306 12.0207 33.3161 11.3212 26.3731C14.1969 25.8549 26.5285 23.8601 38.6787 26.3731Z" fill="#1A1D5B"/>
<path d="M38.7565 25C38.7565 25.4663 38.7306 25.9326 38.6788 26.3731C26.5285 23.8601 14.1969 25.8549 11.3213 26.3731C11.2694 25.9067 11.2435 25.4404 11.2435 24.9741C11.2435 24.9223 11.2435 24.8446 11.2435 24.7927C11.2435 24.2487 11.2953 23.7047 11.3472 23.1865C15.285 22.487 26.8135 20.8808 38.601 23.1606C38.6788 23.6788 38.7047 24.2228 38.7306 24.7668C38.7565 24.8705 38.7565 24.9482 38.7565 25Z" fill="#E6E6E6"/>
</svg>
