<svg width="50" height="50" viewBox="0 0 50 50" fill="none" xmlns="http://www.w3.org/2000/svg">
<path d="M24.9889 0V24.9889H0C0 11.2172 11.1506 0.0444247 24.9223 0C24.9445 0 24.9667 0 24.9889 0Z" fill="#151147"/>
<path d="M39.8045 4.8645H24.9889V0C30.542 0 35.673 1.7992 39.8045 4.8645Z" fill="#BC1D1D"/>
<path d="M44.9134 9.90671H24.9889V4.86451H39.8045C41.7592 6.2861 43.4696 7.97424 44.9134 9.90671Z" fill="#D8D8D8"/>
<path d="M25.0111 4.86451H24.9222V9.90671H25.0111V4.86451Z" fill="#151147"/>
<path d="M47.8898 14.9267H25.0111V9.90671H44.9356C46.0906 11.4394 47.0902 13.1275 47.8898 14.9267Z" fill="#BC1D1D"/>
<path d="M24.9889 9.90671H24.9445V14.9489H24.9889V9.90671Z" fill="#151147"/>
<path d="M49.4891 19.9689H24.9889V14.9267H47.8676C48.6006 16.526 49.1337 18.2141 49.4891 19.9689Z" fill="#D8D8D8"/>
<path d="M24.9889 14.9267H24.8778V19.9689H24.9889V14.9267Z" fill="#151147"/>
<path d="M50 24.9889H24.9889V19.9689H49.4891C49.8223 21.5904 50 23.2785 50 24.9889Z" fill="#BC1D1D"/>
<path d="M24.9889 19.9689H24.8778V25.0111H24.9889V19.9689Z" fill="#151147"/>
<path d="M50 24.9889C50 26.7215 49.8223 28.3874 49.4891 30.0311H0.510884C0.177699 28.4096 0 26.7215 0 24.9889H50Z" fill="#D8D8D8"/>
<path d="M49.4891 30.0311C49.1337 31.7859 48.6006 33.474 47.8898 35.0733H2.11018C1.39939 33.474 0.866292 31.7859 0.510895 30.0311H49.4891Z" fill="#BC1D1D"/>
<path d="M47.8898 35.0733C47.0902 36.8725 46.0906 38.5606 44.9134 40.1155H5.08663C3.90937 38.5606 2.90982 36.8725 2.13239 35.0733H47.8898Z" fill="#D8D8D8"/>
<path d="M44.9134 40.0933C43.4696 42.0035 41.737 43.7139 39.8045 45.1355H10.1733C8.24079 43.7139 6.50822 42.0258 5.06442 40.0933H44.9134Z" fill="#BC1D1D"/>
<path d="M39.8045 45.1355C35.6508 48.2008 30.542 50 24.9889 50C19.4358 50 14.327 48.2008 10.1732 45.1355H39.8045Z" fill="#D8D8D8"/>
<path d="M20.924 5.04219L21.4571 6.15281C21.5015 6.24166 21.5904 6.33051 21.7015 6.33051L22.9231 6.50821C23.1897 6.55263 23.3007 6.88582 23.1008 7.08573L22.2123 7.95201C22.1235 8.01865 22.1013 8.12971 22.1235 8.24077L22.3234 9.46245C22.3678 9.729 22.0791 9.95112 21.8347 9.81785L20.7463 9.24033C20.6575 9.1959 20.5242 9.1959 20.4353 9.24033L19.3469 9.81785C19.1026 9.95112 18.8138 9.729 18.8583 9.46245L19.0582 8.24077C19.0804 8.12971 19.036 8.01865 18.9693 7.95201L18.0808 7.08573C17.8809 6.88582 17.992 6.55263 18.2585 6.50821L19.4802 6.33051C19.5913 6.3083 19.6801 6.24166 19.7246 6.15281L20.2577 5.04219C20.4576 4.79786 20.813 4.79786 20.924 5.04219Z" fill="#D8D8D8"/>
<path d="M13.8383 5.04219L14.3714 6.15281C14.4158 6.24166 14.5047 6.33051 14.6157 6.33051L15.8374 6.50821C16.104 6.55263 16.215 6.88582 16.0151 7.08573L15.1266 7.95201C15.0378 8.01865 15.0156 8.12971 15.0378 8.24077L15.2377 9.46245C15.2821 9.729 14.9933 9.95112 14.749 9.81785L13.6606 9.24033C13.5717 9.1959 13.4385 9.1959 13.3496 9.24033L12.2612 9.81785C12.0169 9.95112 11.7281 9.729 11.7725 9.46245L11.9725 8.24077C11.9947 8.12971 11.9502 8.01865 11.8836 7.95201L10.9951 7.08573C10.7952 6.88582 10.9063 6.55263 11.1728 6.50821L12.3945 6.33051C12.5056 6.3083 12.5944 6.24166 12.6388 6.15281L13.1719 5.04219C13.3718 4.79786 13.7272 4.79786 13.8383 5.04219Z" fill="#D8D8D8"/>
<path d="M20.924 11.4171L21.4571 12.5278C21.5015 12.6166 21.5904 12.7055 21.7015 12.7055L22.9231 12.8832C23.1897 12.9276 23.3007 13.2608 23.1008 13.4607L22.2123 14.327C22.1235 14.3936 22.1013 14.5047 22.1235 14.6157L22.3234 15.8374C22.3678 16.1039 22.0791 16.3261 21.8347 16.1928L20.7463 15.6153C20.6575 15.5709 20.5242 15.5709 20.4353 15.6153L19.3469 16.1928C19.1026 16.3261 18.8138 16.1039 18.8583 15.8374L19.0582 14.6157C19.0804 14.5047 19.036 14.3936 18.9693 14.327L18.0808 13.4607C17.8809 13.2608 17.992 12.9276 18.2585 12.8832L19.4802 12.7055C19.5913 12.6832 19.6801 12.6166 19.7246 12.5278L20.2577 11.4171C20.4576 11.1506 20.813 11.1506 20.924 11.4171Z" fill="#D8D8D8"/>
<path d="M20.924 17.7699L21.4571 18.8805C21.5015 18.9693 21.5904 19.0582 21.7015 19.0582L22.9231 19.2359C23.1897 19.2803 23.3007 19.6135 23.1008 19.8134L22.2123 20.6797C22.1235 20.7463 22.1013 20.8574 22.1235 20.9685L22.3234 22.1901C22.3678 22.4567 22.0791 22.6788 21.8347 22.5455L20.7463 21.968C20.6575 21.9236 20.5242 21.9236 20.4353 21.968L19.3469 22.5455C19.1026 22.6788 18.8138 22.4567 18.8583 22.1901L19.0582 20.9685C19.0804 20.8574 19.036 20.7463 18.9693 20.6797L18.0808 19.8134C17.8809 19.6135 17.992 19.2803 18.2585 19.2359L19.4802 19.0582C19.5913 19.036 19.6801 18.9693 19.7246 18.8805L20.2577 17.7699C20.4576 17.5255 20.813 17.5255 20.924 17.7699Z" fill="#D8D8D8"/>
<path d="M13.8383 17.7699L14.3714 18.8805C14.4158 18.9693 14.5047 19.0582 14.6157 19.0582L15.8374 19.2359C16.104 19.2803 16.215 19.6135 16.0151 19.8134L15.1266 20.6797C15.0378 20.7463 15.0156 20.8574 15.0378 20.9685L15.2377 22.1901C15.2821 22.4567 14.9933 22.6788 14.749 22.5455L13.6606 21.968C13.5717 21.9236 13.4385 21.9236 13.3496 21.968L12.2612 22.5455C12.0169 22.6788 11.7281 22.4567 11.7725 22.1901L11.9725 20.9685C11.9947 20.8574 11.9502 20.7463 11.8836 20.6797L10.9951 19.8134C10.7952 19.6135 10.9063 19.2803 11.1728 19.2359L12.3945 19.0582C12.5056 19.036 12.5944 18.9693 12.6388 18.8805L13.1719 17.7699C13.3718 17.5255 13.7272 17.5255 13.8383 17.7699Z" fill="#D8D8D8"/>
<path d="M6.61927 17.7699L7.15237 18.8805C7.19679 18.9693 7.28564 19.0582 7.39671 19.0582L8.61838 19.2359C8.88493 19.2803 8.99599 19.6135 8.79608 19.8134L7.90759 20.6797C7.81874 20.7463 7.79653 20.8574 7.81874 20.9685L8.01865 22.1901C8.06308 22.4567 7.77432 22.6788 7.52998 22.5455L6.44157 21.968C6.35273 21.9236 6.21945 21.9236 6.1306 21.968L5.0422 22.5455C4.79786 22.6788 4.5091 22.4567 4.55353 22.1901L4.75344 20.9685C4.77565 20.8574 4.73122 20.7463 4.66459 20.6797L3.77609 19.8134C3.57618 19.6135 3.68724 19.2803 3.95379 19.2359L5.17547 19.0582C5.28653 19.036 5.37538 18.9693 5.41981 18.8805L5.9529 17.7699C6.1306 17.5255 6.486 17.5255 6.61927 17.7699Z" fill="#D8D8D8"/>
<path d="M13.8383 11.4171L14.3714 12.5278C14.4158 12.6166 14.5047 12.7055 14.6157 12.7055L15.8374 12.8832C16.104 12.9276 16.215 13.2608 16.0151 13.4607L15.1266 14.327C15.0378 14.3936 15.0156 14.5047 15.0378 14.6157L15.2377 15.8374C15.2821 16.1039 14.9933 16.3261 14.749 16.1928L13.6606 15.6153C13.5717 15.5709 13.4385 15.5709 13.3496 15.6153L12.2612 16.1928C12.0169 16.3261 11.7281 16.1039 11.7725 15.8374L11.9725 14.6157C11.9947 14.5047 11.9502 14.3936 11.8836 14.327L10.9951 13.4607C10.7952 13.2608 10.9063 12.9276 11.1728 12.8832L12.3945 12.7055C12.5056 12.6832 12.5944 12.6166 12.6388 12.5278L13.1719 11.4171C13.3718 11.1506 13.7272 11.1506 13.8383 11.4171Z" fill="#D8D8D8"/>
<path d="M6.61927 11.4171L7.15237 12.5278C7.19679 12.6166 7.28564 12.7055 7.39671 12.7055L8.61838 12.8832C8.88493 12.9276 8.99599 13.2608 8.79608 13.4607L7.90759 14.327C7.81874 14.3936 7.79653 14.5047 7.81874 14.6157L8.01865 15.8374C8.06308 16.1039 7.77432 16.3261 7.52998 16.1928L6.44157 15.6153C6.35273 15.5709 6.21945 15.5709 6.1306 15.6153L5.0422 16.1928C4.79786 16.3261 4.5091 16.1039 4.55353 15.8374L4.75344 14.6157C4.77565 14.5047 4.73122 14.3936 4.66459 14.327L3.77609 13.4607C3.57618 13.2608 3.68724 12.9276 3.95379 12.8832L5.17547 12.7055C5.28653 12.6832 5.37538 12.6166 5.41981 12.5278L5.9529 11.4171C6.1306 11.1506 6.486 11.1506 6.61927 11.4171Z" fill="#D8D8D8"/>
</svg>
