<svg width="5076" height="193" viewBox="0 0 5076 193" fill="none" xmlns="http://www.w3.org/2000/svg">
<path d="M2956.47 116H3020.45C3028.42 116 3035.28 113.858 3040.29 109.808C3045.99 105.195 3049 98.3476 3049 90.0001C3049 75.6077 3038.66 67.3552 3027.45 64.8127C3026.71 64.642 3026.04 64.2591 3025.51 63.7098C3024.98 63.1605 3024.62 62.468 3024.47 61.7153C3022.58 52.5453 3018.45 44.6778 3012.37 38.7154C3005.28 31.7975 2995.83 27.9543 2986 28.0004C2977.26 28.0004 2969.21 30.9229 2962.7 36.4504C2958.25 40.2615 2954.71 45.0483 2952.35 50.4503C2952.1 51.0302 2951.71 51.5402 2951.22 51.9384C2950.74 52.3366 2950.17 52.6115 2949.55 52.7403C2942.91 54.1428 2936.99 57.0728 2932.53 61.2028C2926.3 66.9702 2923 74.8552 2923 84.0001C2923 93.0001 2926.54 101.22 2932.96 107.148C2939.15 112.858 2947.5 116 2956.47 116Z" fill="#E6E6E6" fill-opacity="0.5"/>
<path d="M3223.47 153H3287.45C3295.42 153 3302.28 150.858 3307.29 146.808C3312.99 142.195 3316 135.348 3316 127C3316 112.608 3305.66 104.355 3294.45 101.813C3293.71 101.642 3293.04 101.259 3292.51 100.71C3291.98 100.161 3291.62 99.468 3291.47 98.7153C3289.58 89.5453 3285.45 81.6778 3279.37 75.7154C3272.28 68.7975 3262.83 64.9543 3253 65.0004C3244.26 65.0004 3236.21 67.9229 3229.7 73.4504C3225.25 77.2615 3221.71 82.0483 3219.35 87.4503C3219.1 88.0302 3218.71 88.5402 3218.22 88.9384C3217.74 89.3366 3217.17 89.6115 3216.55 89.7403C3209.91 91.1428 3203.99 94.0728 3199.53 98.2028C3193.3 103.97 3190 111.855 3190 121C3190 130 3193.54 138.22 3199.96 144.148C3206.15 149.858 3214.5 153 3223.47 153Z" fill="#E6E6E6" fill-opacity="0.5"/>
<path d="M3410.47 96H3474.45C3482.42 96 3489.28 93.8575 3494.29 89.8075C3499.99 85.1951 3503 78.3476 3503 70.0001C3503 55.6077 3492.66 47.3552 3481.45 44.8127C3480.71 44.642 3480.04 44.2591 3479.51 43.7098C3478.98 43.1605 3478.62 42.468 3478.47 41.7153C3476.58 32.5453 3472.45 24.6778 3466.37 18.7154C3459.28 11.7975 3449.83 7.95428 3440 8.00041C3431.26 8.00041 3423.21 10.9229 3416.7 16.4504C3412.25 20.2615 3408.71 25.0483 3406.35 30.4503C3406.1 31.0302 3405.71 31.5402 3405.22 31.9384C3404.74 32.3366 3404.17 32.6115 3403.55 32.7403C3396.91 34.1428 3390.99 37.0728 3386.53 41.2028C3380.3 46.9702 3377 54.8552 3377 64.0001C3377 73.0001 3380.54 81.2201 3386.96 87.1475C3393.15 92.8575 3401.5 96 3410.47 96Z" fill="#E6E6E6" fill-opacity="0.5"/>
<path d="M3705.47 157H3769.45C3777.42 157 3784.28 154.858 3789.29 150.808C3794.99 146.195 3798 139.348 3798 131C3798 116.608 3787.66 108.355 3776.45 105.813C3775.71 105.642 3775.04 105.259 3774.51 104.71C3773.98 104.161 3773.62 103.468 3773.47 102.715C3771.58 93.5453 3767.45 85.6778 3761.37 79.7154C3754.28 72.7975 3744.83 68.9543 3735 69.0004C3726.26 69.0004 3718.21 71.9229 3711.7 77.4504C3707.25 81.2615 3703.71 86.0483 3701.35 91.4503C3701.1 92.0302 3700.71 92.5402 3700.22 92.9384C3699.74 93.3366 3699.17 93.6115 3698.55 93.7403C3691.91 95.1428 3685.99 98.0728 3681.53 102.203C3675.3 107.97 3672 115.855 3672 125C3672 134 3675.54 142.22 3681.96 148.148C3688.15 153.858 3696.5 157 3705.47 157Z" fill="#E6E6E6" fill-opacity="0.5"/>
<path opacity="0.5" d="M2587.34 113H2647.27C2654.73 113 2661.15 111.004 2665.84 107.23C2671.18 102.932 2674 96.5512 2674 88.7728C2674 75.3617 2664.32 67.6719 2653.82 65.3028C2653.13 65.1437 2652.5 64.7869 2652 64.275C2651.51 63.7632 2651.17 63.118 2651.03 62.4165C2649.26 53.8718 2645.39 46.5407 2639.69 40.9848C2633.06 34.5386 2624.2 30.9574 2615 31.0004C2606.82 31.0004 2599.27 33.7236 2593.18 38.8742C2589.01 42.4255 2585.7 46.886 2583.49 51.9196C2583.25 52.4599 2582.89 52.9352 2582.43 53.3063C2581.98 53.6773 2581.44 53.9334 2580.87 54.0535C2574.64 55.3603 2569.1 58.0905 2564.92 61.9389C2559.09 67.3132 2556 74.6605 2556 83.182C2556 91.5683 2559.31 99.2278 2565.33 104.751C2571.13 110.072 2578.95 113 2587.34 113Z" fill="#E6E6E6"/>
<path d="M2753.06 161H2657.59C2645.71 161 2635.48 157.835 2628 151.852C2619.49 145.038 2615 134.923 2615 122.591C2615 101.33 2630.42 89.1384 2647.15 85.3825C2648.25 85.1303 2649.26 84.5646 2650.05 83.7531C2650.83 82.9417 2651.37 81.9187 2651.6 80.8066C2654.42 67.2601 2660.58 55.6377 2669.66 46.8295C2680.23 36.61 2694.34 30.9325 2709 31.0006C2722.04 31.0006 2734.06 35.3179 2743.77 43.4835C2750.4 49.1135 2755.68 56.1851 2759.21 64.1652C2759.58 65.0218 2760.16 65.7754 2760.89 66.3636C2761.61 66.9518 2762.47 67.3579 2763.38 67.5482C2773.29 69.62 2782.13 73.9484 2788.78 80.0495C2798.08 88.5697 2803 100.218 2803 113.727C2803 127.023 2797.72 139.166 2788.13 147.923C2778.9 156.358 2766.44 161 2753.06 161Z" fill="#E6E6E6"/>
<path d="M2897.84 132H2941.52C2946.95 132 2951.63 130.539 2955.05 127.778C2958.94 124.633 2961 119.964 2961 114.273C2961 104.46 2953.95 98.8331 2946.29 97.0996C2945.79 96.9832 2945.33 96.7221 2944.97 96.3476C2944.61 95.9731 2944.36 95.5009 2944.26 94.9877C2942.97 88.7354 2940.15 83.3712 2936 79.3059C2931.16 74.5892 2924.71 71.9688 2918 72.0003C2912.04 72.0003 2906.54 73.9929 2902.1 77.7616C2899.06 80.3601 2896.65 83.6239 2895.03 87.307C2894.86 87.7024 2894.6 88.0502 2894.26 88.3217C2893.93 88.5932 2893.54 88.7806 2893.12 88.8684C2888.59 89.8246 2884.55 91.8223 2881.5 94.6382C2877.25 98.5706 2875 103.947 2875 110.182C2875 116.318 2877.42 121.923 2881.8 125.964C2886.03 129.857 2891.72 132 2897.84 132Z" fill="#E6E6E6"/>
<path d="M3087.34 113H3017.27C3008.54 113 3001.03 110.663 2995.54 106.245C2989.3 101.213 2986 93.7428 2986 84.6365C2986 68.9357 2997.32 59.933 3009.6 57.1594C3010.41 56.9731 3011.15 56.5554 3011.72 55.9562C3012.3 55.3569 3012.7 54.6015 3012.87 53.7803C3014.94 43.7767 3019.46 35.194 3026.12 28.6895C3033.88 21.1428 3044.24 16.9501 3055 17.0004C3064.57 17.0004 3073.39 20.1886 3080.52 26.2186C3085.39 30.3761 3089.27 35.5982 3091.85 41.4912C3092.13 42.1238 3092.55 42.6803 3093.09 43.1147C3093.62 43.5491 3094.25 43.8489 3094.92 43.9894C3102.19 45.5194 3108.68 48.7158 3113.56 53.2212C3120.39 59.513 3124 68.1148 3124 78.0911C3124 87.9092 3120.12 96.8764 3113.09 103.343C3106.31 109.572 3097.17 113 3087.34 113Z" fill="#E6E6E6"/>
<path d="M3250.66 168H3320.73C3329.46 168 3336.97 165.663 3342.46 161.245C3348.7 156.213 3352 148.743 3352 139.636C3352 123.936 3340.68 114.933 3328.4 112.159C3327.59 111.973 3326.85 111.555 3326.28 110.956C3325.7 110.357 3325.3 109.602 3325.13 108.78C3323.06 98.7767 3318.54 90.194 3311.88 83.6895C3304.12 76.1428 3293.76 71.9501 3283 72.0004C3273.43 72.0004 3264.61 75.1886 3257.48 81.2186C3252.61 85.3761 3248.73 90.5982 3246.15 96.4912C3245.87 97.1238 3245.45 97.6803 3244.91 98.1147C3244.38 98.5491 3243.75 98.8489 3243.08 98.9894C3235.81 100.519 3229.32 103.716 3224.44 108.221C3217.61 114.513 3214 123.115 3214 133.091C3214 142.909 3217.88 151.876 3224.91 158.343C3231.69 164.572 3240.83 168 3250.66 168Z" fill="#E6E6E6"/>
<path d="M3466.38 193H3511.06C3516.63 193 3521.41 191.515 3524.91 188.707C3528.9 185.51 3531 180.764 3531 174.977C3531 165.001 3523.78 159.28 3515.95 157.518C3515.44 157.4 3514.97 157.134 3514.6 156.753C3514.23 156.373 3513.97 155.893 3513.87 155.371C3512.55 149.014 3509.67 143.561 3505.41 139.428C3500.47 134.632 3493.86 131.968 3487 132C3480.9 132 3475.27 134.026 3470.73 137.858C3467.62 140.499 3465.15 143.818 3463.5 147.562C3463.32 147.964 3463.05 148.318 3462.71 148.594C3462.37 148.87 3461.97 149.06 3461.55 149.15C3456.9 150.122 3452.77 152.153 3449.66 155.016C3445.3 159.013 3443 164.479 3443 170.818C3443 177.057 3445.47 182.755 3449.96 186.864C3454.28 190.822 3460.11 193 3466.38 193Z" fill="#E6E6E6"/>
<path d="M3650.55 125H3741.45C3752.76 125 3762.5 121.957 3769.62 116.204C3777.72 109.652 3782 99.9255 3782 88.0684C3782 67.6246 3767.32 55.9023 3751.39 52.2908C3750.34 52.0483 3749.38 51.5044 3748.63 50.7242C3747.88 49.9439 3747.37 48.9603 3747.15 47.891C3744.47 34.8655 3738.6 23.6901 3729.96 15.2207C3719.89 5.39424 3706.46 -0.0649438 3692.5 0.000583138C3680.09 0.000583138 3668.64 4.15184 3659.4 12.0034C3653.08 17.4169 3648.05 24.2164 3644.7 31.8896C3644.34 32.7133 3643.79 33.4379 3643.1 34.0035C3642.41 34.5691 3641.59 34.9595 3640.72 35.1425C3631.28 37.1346 3622.87 41.2966 3616.54 47.163C3607.68 55.3554 3603 66.5557 3603 79.5457C3603 92.3297 3608.03 104.006 3617.16 112.425C3625.95 120.536 3637.81 125 3650.55 125Z" fill="#E6E6E6"/>
<path d="M400.469 116H464.453C472.419 116 479.275 113.858 484.286 109.808C489.988 105.195 493 98.3476 493 90.0001C493 75.6077 482.664 67.3552 471.452 64.8127C470.715 64.642 470.041 64.2591 469.512 63.7098C468.983 63.1605 468.621 62.468 468.469 61.7153C466.579 52.5453 462.452 44.6778 456.366 38.7154C449.283 31.7975 439.826 27.9543 430 28.0004C421.264 28.0004 413.207 30.9229 406.7 36.4504C402.252 40.2615 398.714 45.0483 396.352 50.4503C396.098 51.0302 395.711 51.5402 395.225 51.9384C394.738 52.3366 394.165 52.6115 393.554 52.7403C386.909 54.1428 380.986 57.0728 376.529 61.2028C370.295 66.9702 367 74.8552 367 84.0001C367 93.0001 370.539 101.22 376.964 107.148C383.154 112.858 391.501 116 400.469 116Z" fill="#E6E6E6" fill-opacity="0.5"/>
<path d="M667.469 153H731.453C739.419 153 746.275 150.858 751.286 146.808C756.988 142.195 760 135.348 760 127C760 112.608 749.664 104.355 738.452 101.813C737.715 101.642 737.041 101.259 736.512 100.71C735.983 100.161 735.621 99.468 735.469 98.7153C733.579 89.5453 729.452 81.6778 723.366 75.7154C716.283 68.7975 706.826 64.9543 697 65.0004C688.264 65.0004 680.207 67.9229 673.7 73.4504C669.252 77.2615 665.714 82.0483 663.352 87.4503C663.098 88.0302 662.711 88.5402 662.225 88.9384C661.738 89.3366 661.165 89.6115 660.554 89.7403C653.909 91.1428 647.986 94.0728 643.529 98.2028C637.295 103.97 634 111.855 634 121C634 130 637.539 138.22 643.964 144.148C650.154 149.858 658.501 153 667.469 153Z" fill="#E6E6E6" fill-opacity="0.5"/>
<path d="M854.469 96H918.453C926.419 96 933.275 93.8575 938.286 89.8075C943.988 85.1951 947 78.3476 947 70.0001C947 55.6077 936.664 47.3552 925.452 44.8127C924.715 44.642 924.041 44.2591 923.512 43.7098C922.983 43.1605 922.621 42.468 922.469 41.7153C920.579 32.5453 916.452 24.6778 910.366 18.7154C903.283 11.7975 893.826 7.95428 884 8.00041C875.264 8.00041 867.207 10.9229 860.7 16.4504C856.252 20.2615 852.714 25.0483 850.352 30.4503C850.098 31.0302 849.711 31.5402 849.225 31.9384C848.738 32.3366 848.165 32.6115 847.554 32.7403C840.909 34.1428 834.986 37.0728 830.529 41.2028C824.295 46.9702 821 54.8552 821 64.0001C821 73.0001 824.539 81.2201 830.964 87.1475C837.154 92.8575 845.501 96 854.469 96Z" fill="#E6E6E6" fill-opacity="0.5"/>
<path d="M1149.47 157H1213.45C1221.42 157 1228.28 154.858 1233.29 150.808C1238.99 146.195 1242 139.348 1242 131C1242 116.608 1231.66 108.355 1220.45 105.813C1219.71 105.642 1219.04 105.259 1218.51 104.71C1217.98 104.161 1217.62 103.468 1217.47 102.715C1215.58 93.5453 1211.45 85.6778 1205.37 79.7154C1198.28 72.7975 1188.83 68.9543 1179 69.0004C1170.26 69.0004 1162.21 71.9229 1155.7 77.4504C1151.25 81.2615 1147.71 86.0483 1145.35 91.4503C1145.1 92.0302 1144.71 92.5402 1144.22 92.9384C1143.74 93.3366 1143.17 93.6115 1142.55 93.7403C1135.91 95.1428 1129.99 98.0728 1125.53 102.203C1119.3 107.97 1116 115.855 1116 125C1116 134 1119.54 142.22 1125.96 148.148C1132.15 153.858 1140.5 157 1149.47 157Z" fill="#E6E6E6" fill-opacity="0.5"/>
<path opacity="0.5" d="M31.3438 113H91.2656C98.7259 113 105.147 111.004 109.839 107.23C115.179 102.932 118 96.5512 118 88.7728C118 75.3617 108.32 67.6719 97.8202 65.3028C97.1295 65.1437 96.4987 64.7869 96.0034 64.275C95.508 63.7632 95.169 63.118 95.0269 62.4165C93.2569 53.8718 89.3919 46.5407 83.6924 40.9848C77.0587 34.5386 68.2019 30.9574 59 31.0004C50.8184 31.0004 43.2728 33.7236 37.1792 38.8742C33.0139 42.4255 29.7002 46.886 27.488 51.9196C27.25 52.4599 26.8883 52.9352 26.4326 53.3063C25.977 53.6773 25.4405 53.9334 24.8676 54.0535C18.6449 55.3603 13.0975 58.0905 8.92375 61.9389C3.08598 67.3132 0 74.6605 0 83.182C0 91.5683 3.31414 99.2278 9.33168 104.751C15.128 110.072 22.9455 113 31.3438 113Z" fill="#E6E6E6"/>
<path d="M197.062 161H101.594C89.7079 161 79.478 157.835 72.0021 151.852C63.4944 145.038 59 134.923 59 122.591C59 101.33 74.4219 89.1384 91.1509 85.3825C92.2514 85.1303 93.2563 84.5646 94.0455 83.7531C94.8347 82.9417 95.3748 81.9187 95.6013 80.8066C98.4213 67.2601 104.579 55.6377 113.66 46.8295C124.229 36.61 138.339 30.9325 153 31.0006C166.035 31.0006 178.057 35.3179 187.765 43.4835C194.402 49.1135 199.681 56.1851 203.206 64.1652C203.585 65.0218 204.161 65.7754 204.887 66.3636C205.613 66.9518 206.468 67.3579 207.38 67.5482C217.295 69.62 226.133 73.9484 232.782 80.0495C242.083 88.5697 247 100.218 247 113.727C247 127.023 241.72 139.166 232.133 147.923C222.898 156.358 210.443 161 197.062 161Z" fill="#E6E6E6"/>
<path d="M341.844 132H385.516C390.953 132 395.632 130.539 399.052 127.778C402.944 124.633 405 119.964 405 114.273C405 104.46 397.945 98.8331 390.293 97.0996C389.789 96.9832 389.33 96.7221 388.969 96.3476C388.608 95.9731 388.36 95.5009 388.257 94.9877C386.967 88.7354 384.15 83.3712 379.996 79.3059C375.161 74.5892 368.707 71.9688 362 72.0003C356.037 72.0003 350.538 73.9929 346.097 77.7616C343.061 80.3601 340.646 83.6239 339.034 87.307C338.86 87.7024 338.597 88.0502 338.264 88.3217C337.932 88.5932 337.541 88.7806 337.124 88.8684C332.589 89.8246 328.546 91.8223 325.504 94.6382C321.249 98.5706 319 103.947 319 110.182C319 116.318 321.415 121.923 325.801 125.964C330.025 129.857 335.723 132 341.844 132Z" fill="#E6E6E6"/>
<path d="M531.344 113H461.266C452.541 113 445.032 110.663 439.544 106.245C433.299 101.213 430 93.7428 430 84.6365C430 68.9357 441.32 59.933 453.6 57.1594C454.408 56.9731 455.146 56.5554 455.725 55.9562C456.304 55.3569 456.701 54.6015 456.867 53.7803C458.937 43.7767 463.457 35.194 470.122 28.6895C477.881 21.1428 488.238 16.9501 499 17.0004C508.568 17.0004 517.393 20.1886 524.519 26.2186C529.391 30.3761 533.266 35.5982 535.853 41.4912C536.131 42.1238 536.554 42.6803 537.087 43.1147C537.62 43.5491 538.248 43.8489 538.918 43.9894C546.195 45.5194 552.683 48.7158 557.564 53.2212C564.391 59.513 568 68.1148 568 78.0911C568 87.9092 564.124 96.8764 557.087 103.343C550.308 109.572 541.165 113 531.344 113Z" fill="#E6E6E6"/>
<path d="M694.656 168H764.734C773.459 168 780.968 165.663 786.456 161.245C792.701 156.213 796 148.743 796 139.636C796 123.936 784.68 114.933 772.4 112.159C771.592 111.973 770.854 111.555 770.275 110.956C769.696 110.357 769.299 109.602 769.133 108.78C767.063 98.7767 762.543 90.194 755.878 83.6895C748.119 76.1428 737.762 71.9501 727 72.0004C717.432 72.0004 708.607 75.1886 701.481 81.2186C696.609 85.3761 692.734 90.5982 690.147 96.4912C689.869 97.1238 689.446 97.6803 688.913 98.1147C688.38 98.5491 687.752 98.8489 687.082 98.9894C679.805 100.519 673.317 103.716 668.436 108.221C661.609 114.513 658 123.115 658 133.091C658 142.909 661.876 151.876 668.913 158.343C675.692 164.572 684.835 168 694.656 168Z" fill="#E6E6E6"/>
<path d="M910.375 193H955.062C960.626 193 965.415 191.515 968.914 188.707C972.896 185.51 975 180.764 975 174.977C975 165.001 967.781 159.28 959.951 157.518C959.436 157.4 958.965 157.134 958.596 156.753C958.226 156.373 957.973 155.893 957.867 155.371C956.547 149.014 953.665 143.561 949.415 139.428C944.467 134.632 937.862 131.968 931 132C924.898 132 919.271 134.026 914.727 137.858C911.621 140.499 909.149 143.818 907.5 147.562C907.322 147.964 907.052 148.318 906.712 148.594C906.373 148.87 905.973 149.06 905.545 149.15C900.905 150.122 896.768 152.153 893.655 155.016C889.301 159.013 887 164.479 887 170.818C887 177.057 889.472 182.755 893.959 186.864C898.282 190.822 904.112 193 910.375 193Z" fill="#E6E6E6"/>
<path d="M1094.55 125H1185.45C1196.76 125 1206.5 121.957 1213.62 116.204C1221.72 109.652 1226 99.9255 1226 88.0684C1226 67.6246 1211.32 55.9023 1195.39 52.2908C1194.34 52.0483 1193.38 51.5044 1192.63 50.7242C1191.88 49.9439 1191.37 48.9603 1191.15 47.891C1188.47 34.8655 1182.6 23.6901 1173.96 15.2207C1163.89 5.39424 1150.46 -0.0649438 1136.5 0.000583138C1124.09 0.000583138 1112.64 4.15184 1103.4 12.0034C1097.08 17.4169 1092.05 24.2164 1088.7 31.8896C1088.34 32.7133 1087.79 33.4379 1087.1 34.0035C1086.41 34.5691 1085.59 34.9595 1084.72 35.1425C1075.28 37.1346 1066.87 41.2966 1060.54 47.163C1051.68 55.3554 1047 66.5557 1047 79.5457C1047 92.3297 1052.03 104.006 1061.16 112.425C1069.95 120.536 1081.81 125 1094.55 125Z" fill="#E6E6E6"/>
<path d="M1678.47 116H1742.45C1750.42 116 1757.28 113.858 1762.29 109.808C1767.99 105.195 1771 98.3476 1771 90.0001C1771 75.6077 1760.66 67.3552 1749.45 64.8127C1748.71 64.642 1748.04 64.2591 1747.51 63.7098C1746.98 63.1605 1746.62 62.468 1746.47 61.7153C1744.58 52.5453 1740.45 44.6778 1734.37 38.7154C1727.28 31.7975 1717.83 27.9543 1708 28.0004C1699.26 28.0004 1691.21 30.9229 1684.7 36.4504C1680.25 40.2615 1676.71 45.0483 1674.35 50.4503C1674.1 51.0302 1673.71 51.5402 1673.22 51.9384C1672.74 52.3366 1672.17 52.6115 1671.55 52.7403C1664.91 54.1428 1658.99 57.0728 1654.53 61.2028C1648.3 66.9702 1645 74.8552 1645 84.0001C1645 93.0001 1648.54 101.22 1654.96 107.148C1661.15 112.858 1669.5 116 1678.47 116Z" fill="#E6E6E6" fill-opacity="0.5"/>
<path d="M1945.47 153H2009.45C2017.42 153 2024.28 150.858 2029.29 146.808C2034.99 142.195 2038 135.348 2038 127C2038 112.608 2027.66 104.355 2016.45 101.813C2015.71 101.642 2015.04 101.259 2014.51 100.71C2013.98 100.161 2013.62 99.468 2013.47 98.7153C2011.58 89.5453 2007.45 81.6778 2001.37 75.7154C1994.28 68.7975 1984.83 64.9543 1975 65.0004C1966.26 65.0004 1958.21 67.9229 1951.7 73.4504C1947.25 77.2615 1943.71 82.0483 1941.35 87.4503C1941.1 88.0302 1940.71 88.5402 1940.22 88.9384C1939.74 89.3366 1939.17 89.6115 1938.55 89.7403C1931.91 91.1428 1925.99 94.0728 1921.53 98.2028C1915.3 103.97 1912 111.855 1912 121C1912 130 1915.54 138.22 1921.96 144.148C1928.15 149.858 1936.5 153 1945.47 153Z" fill="#E6E6E6" fill-opacity="0.5"/>
<path d="M2132.47 96H2196.45C2204.42 96 2211.28 93.8575 2216.29 89.8075C2221.99 85.1951 2225 78.3476 2225 70.0001C2225 55.6077 2214.66 47.3552 2203.45 44.8127C2202.71 44.642 2202.04 44.2591 2201.51 43.7098C2200.98 43.1605 2200.62 42.468 2200.47 41.7153C2198.58 32.5453 2194.45 24.6778 2188.37 18.7154C2181.28 11.7975 2171.83 7.95428 2162 8.00041C2153.26 8.00041 2145.21 10.9229 2138.7 16.4504C2134.25 20.2615 2130.71 25.0483 2128.35 30.4503C2128.1 31.0302 2127.71 31.5402 2127.22 31.9384C2126.74 32.3366 2126.17 32.6115 2125.55 32.7403C2118.91 34.1428 2112.99 37.0728 2108.53 41.2028C2102.3 46.9702 2099 54.8552 2099 64.0001C2099 73.0001 2102.54 81.2201 2108.96 87.1475C2115.15 92.8575 2123.5 96 2132.47 96Z" fill="#E6E6E6" fill-opacity="0.5"/>
<path d="M2427.47 157H2491.45C2499.42 157 2506.28 154.858 2511.29 150.808C2516.99 146.195 2520 139.348 2520 131C2520 116.608 2509.66 108.355 2498.45 105.813C2497.71 105.642 2497.04 105.259 2496.51 104.71C2495.98 104.161 2495.62 103.468 2495.47 102.715C2493.58 93.5453 2489.45 85.6778 2483.37 79.7154C2476.28 72.7975 2466.83 68.9543 2457 69.0004C2448.26 69.0004 2440.21 71.9229 2433.7 77.4504C2429.25 81.2615 2425.71 86.0483 2423.35 91.4503C2423.1 92.0302 2422.71 92.5402 2422.22 92.9384C2421.74 93.3366 2421.17 93.6115 2420.55 93.7403C2413.91 95.1428 2407.99 98.0728 2403.53 102.203C2397.3 107.97 2394 115.855 2394 125C2394 134 2397.54 142.22 2403.96 148.148C2410.15 153.858 2418.5 157 2427.47 157Z" fill="#E6E6E6" fill-opacity="0.5"/>
<path opacity="0.5" d="M1309.34 113H1369.27C1376.73 113 1383.15 111.004 1387.84 107.23C1393.18 102.932 1396 96.5512 1396 88.7728C1396 75.3617 1386.32 67.6719 1375.82 65.3028C1375.13 65.1437 1374.5 64.7869 1374 64.275C1373.51 63.7632 1373.17 63.118 1373.03 62.4165C1371.26 53.8718 1367.39 46.5407 1361.69 40.9848C1355.06 34.5386 1346.2 30.9574 1337 31.0004C1328.82 31.0004 1321.27 33.7236 1315.18 38.8742C1311.01 42.4255 1307.7 46.886 1305.49 51.9196C1305.25 52.4599 1304.89 52.9352 1304.43 53.3063C1303.98 53.6773 1303.44 53.9334 1302.87 54.0535C1296.64 55.3603 1291.1 58.0905 1286.92 61.9389C1281.09 67.3132 1278 74.6605 1278 83.182C1278 91.5683 1281.31 99.2278 1287.33 104.751C1293.13 110.072 1300.95 113 1309.34 113Z" fill="#E6E6E6"/>
<path d="M1475.06 161H1379.59C1367.71 161 1357.48 157.835 1350 151.852C1341.49 145.038 1337 134.923 1337 122.591C1337 101.33 1352.42 89.1384 1369.15 85.3825C1370.25 85.1303 1371.26 84.5646 1372.05 83.7531C1372.83 82.9417 1373.37 81.9187 1373.6 80.8066C1376.42 67.2601 1382.58 55.6377 1391.66 46.8295C1402.23 36.61 1416.34 30.9325 1431 31.0006C1444.04 31.0006 1456.06 35.3179 1465.77 43.4835C1472.4 49.1135 1477.68 56.1851 1481.21 64.1652C1481.58 65.0218 1482.16 65.7754 1482.89 66.3636C1483.61 66.9518 1484.47 67.3579 1485.38 67.5482C1495.29 69.62 1504.13 73.9484 1510.78 80.0495C1520.08 88.5697 1525 100.218 1525 113.727C1525 127.023 1519.72 139.166 1510.13 147.923C1500.9 156.358 1488.44 161 1475.06 161Z" fill="#E6E6E6"/>
<path d="M1619.84 132H1663.52C1668.95 132 1673.63 130.539 1677.05 127.778C1680.94 124.633 1683 119.964 1683 114.273C1683 104.46 1675.95 98.8331 1668.29 97.0996C1667.79 96.9832 1667.33 96.7221 1666.97 96.3476C1666.61 95.9731 1666.36 95.5009 1666.26 94.9877C1664.97 88.7354 1662.15 83.3712 1658 79.3059C1653.16 74.5892 1646.71 71.9688 1640 72.0003C1634.04 72.0003 1628.54 73.9929 1624.1 77.7616C1621.06 80.3601 1618.65 83.6239 1617.03 87.307C1616.86 87.7024 1616.6 88.0502 1616.26 88.3217C1615.93 88.5932 1615.54 88.7806 1615.12 88.8684C1610.59 89.8246 1606.55 91.8223 1603.5 94.6382C1599.25 98.5706 1597 103.947 1597 110.182C1597 116.318 1599.42 121.923 1603.8 125.964C1608.03 129.857 1613.72 132 1619.84 132Z" fill="#E6E6E6"/>
<path d="M1809.34 113H1739.27C1730.54 113 1723.03 110.663 1717.54 106.245C1711.3 101.213 1708 93.7428 1708 84.6365C1708 68.9357 1719.32 59.933 1731.6 57.1594C1732.41 56.9731 1733.15 56.5554 1733.72 55.9562C1734.3 55.3569 1734.7 54.6015 1734.87 53.7803C1736.94 43.7767 1741.46 35.194 1748.12 28.6895C1755.88 21.1428 1766.24 16.9501 1777 17.0004C1786.57 17.0004 1795.39 20.1886 1802.52 26.2186C1807.39 30.3761 1811.27 35.5982 1813.85 41.4912C1814.13 42.1238 1814.55 42.6803 1815.09 43.1147C1815.62 43.5491 1816.25 43.8489 1816.92 43.9894C1824.19 45.5194 1830.68 48.7158 1835.56 53.2212C1842.39 59.513 1846 68.1148 1846 78.0911C1846 87.9092 1842.12 96.8764 1835.09 103.343C1828.31 109.572 1819.17 113 1809.34 113Z" fill="#E6E6E6"/>
<path d="M1972.66 168H2042.73C2051.46 168 2058.97 165.663 2064.46 161.245C2070.7 156.213 2074 148.743 2074 139.636C2074 123.936 2062.68 114.933 2050.4 112.159C2049.59 111.973 2048.85 111.555 2048.28 110.956C2047.7 110.357 2047.3 109.602 2047.13 108.78C2045.06 98.7767 2040.54 90.194 2033.88 83.6895C2026.12 76.1428 2015.76 71.9501 2005 72.0004C1995.43 72.0004 1986.61 75.1886 1979.48 81.2186C1974.61 85.3761 1970.73 90.5982 1968.15 96.4912C1967.87 97.1238 1967.45 97.6803 1966.91 98.1147C1966.38 98.5491 1965.75 98.8489 1965.08 98.9894C1957.81 100.519 1951.32 103.716 1946.44 108.221C1939.61 114.513 1936 123.115 1936 133.091C1936 142.909 1939.88 151.876 1946.91 158.343C1953.69 164.572 1962.83 168 1972.66 168Z" fill="#E6E6E6"/>
<path d="M2188.38 193H2233.06C2238.63 193 2243.41 191.515 2246.91 188.707C2250.9 185.51 2253 180.764 2253 174.977C2253 165.001 2245.78 159.28 2237.95 157.518C2237.44 157.4 2236.97 157.134 2236.6 156.753C2236.23 156.373 2235.97 155.893 2235.87 155.371C2234.55 149.014 2231.67 143.561 2227.41 139.428C2222.47 134.632 2215.86 131.968 2209 132C2202.9 132 2197.27 134.026 2192.73 137.858C2189.62 140.499 2187.15 143.818 2185.5 147.562C2185.32 147.964 2185.05 148.318 2184.71 148.594C2184.37 148.87 2183.97 149.06 2183.55 149.15C2178.9 150.122 2174.77 152.153 2171.66 155.016C2167.3 159.013 2165 164.479 2165 170.818C2165 177.057 2167.47 182.755 2171.96 186.864C2176.28 190.822 2182.11 193 2188.38 193Z" fill="#E6E6E6"/>
<path d="M2372.55 125H2463.45C2474.76 125 2484.5 121.957 2491.62 116.204C2499.72 109.652 2504 99.9255 2504 88.0684C2504 67.6246 2489.32 55.9023 2473.39 52.2908C2472.34 52.0483 2471.38 51.5044 2470.63 50.7242C2469.88 49.9439 2469.37 48.9603 2469.15 47.891C2466.47 34.8655 2460.6 23.6901 2451.96 15.2207C2441.89 5.39424 2428.46 -0.0649438 2414.5 0.000583138C2402.09 0.000583138 2390.64 4.15184 2381.4 12.0034C2375.08 17.4169 2370.05 24.2164 2366.7 31.8896C2366.34 32.7133 2365.79 33.4379 2365.1 34.0035C2364.41 34.5691 2363.59 34.9595 2362.72 35.1425C2353.28 37.1346 2344.87 41.2966 2338.54 47.163C2329.68 55.3554 2325 66.5557 2325 79.5457C2325 92.3297 2330.03 104.006 2339.16 112.425C2347.95 120.536 2359.81 125 2372.55 125Z" fill="#E6E6E6"/>
<path d="M4234.47 116H4298.45C4306.42 116 4313.28 113.858 4318.29 109.808C4323.99 105.195 4327 98.3476 4327 90.0001C4327 75.6077 4316.66 67.3552 4305.45 64.8127C4304.71 64.642 4304.04 64.2591 4303.51 63.7098C4302.98 63.1605 4302.62 62.468 4302.47 61.7153C4300.58 52.5453 4296.45 44.6778 4290.37 38.7154C4283.28 31.7975 4273.83 27.9543 4264 28.0004C4255.26 28.0004 4247.21 30.9229 4240.7 36.4504C4236.25 40.2615 4232.71 45.0483 4230.35 50.4503C4230.1 51.0302 4229.71 51.5402 4229.22 51.9384C4228.74 52.3366 4228.17 52.6115 4227.55 52.7403C4220.91 54.1428 4214.99 57.0728 4210.53 61.2028C4204.3 66.9702 4201 74.8552 4201 84.0001C4201 93.0001 4204.54 101.22 4210.96 107.148C4217.15 112.858 4225.5 116 4234.47 116Z" fill="#E6E6E6" fill-opacity="0.5"/>
<path d="M4501.47 153H4565.45C4573.42 153 4580.28 150.858 4585.29 146.808C4590.99 142.195 4594 135.348 4594 127C4594 112.608 4583.66 104.355 4572.45 101.813C4571.71 101.642 4571.04 101.259 4570.51 100.71C4569.98 100.161 4569.62 99.468 4569.47 98.7153C4567.58 89.5453 4563.45 81.6778 4557.37 75.7154C4550.28 68.7975 4540.83 64.9543 4531 65.0004C4522.26 65.0004 4514.21 67.9229 4507.7 73.4504C4503.25 77.2615 4499.71 82.0483 4497.35 87.4503C4497.1 88.0302 4496.71 88.5402 4496.22 88.9384C4495.74 89.3366 4495.17 89.6115 4494.55 89.7403C4487.91 91.1428 4481.99 94.0728 4477.53 98.2028C4471.3 103.97 4468 111.855 4468 121C4468 130 4471.54 138.22 4477.96 144.148C4484.15 149.858 4492.5 153 4501.47 153Z" fill="#E6E6E6" fill-opacity="0.5"/>
<path d="M4688.47 96H4752.45C4760.42 96 4767.28 93.8575 4772.29 89.8075C4777.99 85.1951 4781 78.3476 4781 70.0001C4781 55.6077 4770.66 47.3552 4759.45 44.8127C4758.71 44.642 4758.04 44.2591 4757.51 43.7098C4756.98 43.1605 4756.62 42.468 4756.47 41.7153C4754.58 32.5453 4750.45 24.6778 4744.37 18.7154C4737.28 11.7975 4727.83 7.95428 4718 8.00041C4709.26 8.00041 4701.21 10.9229 4694.7 16.4504C4690.25 20.2615 4686.71 25.0483 4684.35 30.4503C4684.1 31.0302 4683.71 31.5402 4683.22 31.9384C4682.74 32.3366 4682.17 32.6115 4681.55 32.7403C4674.91 34.1428 4668.99 37.0728 4664.53 41.2028C4658.3 46.9702 4655 54.8552 4655 64.0001C4655 73.0001 4658.54 81.2201 4664.96 87.1475C4671.15 92.8575 4679.5 96 4688.47 96Z" fill="#E6E6E6" fill-opacity="0.5"/>
<path d="M4983.47 157H5047.45C5055.42 157 5062.28 154.858 5067.29 150.808C5072.99 146.195 5076 139.348 5076 131C5076 116.608 5065.66 108.355 5054.45 105.813C5053.71 105.642 5053.04 105.259 5052.51 104.71C5051.98 104.161 5051.62 103.468 5051.47 102.715C5049.58 93.5453 5045.45 85.6778 5039.37 79.7154C5032.28 72.7975 5022.83 68.9543 5013 69.0004C5004.26 69.0004 4996.21 71.9229 4989.7 77.4504C4985.25 81.2615 4981.71 86.0483 4979.35 91.4503C4979.1 92.0302 4978.71 92.5402 4978.22 92.9384C4977.74 93.3366 4977.17 93.6115 4976.55 93.7403C4969.91 95.1428 4963.99 98.0728 4959.53 102.203C4953.3 107.97 4950 115.855 4950 125C4950 134 4953.54 142.22 4959.96 148.148C4966.15 153.858 4974.5 157 4983.47 157Z" fill="#E6E6E6" fill-opacity="0.5"/>
<path opacity="0.5" d="M3865.34 113H3925.27C3932.73 113 3939.15 111.004 3943.84 107.23C3949.18 102.932 3952 96.5512 3952 88.7728C3952 75.3617 3942.32 67.6719 3931.82 65.3028C3931.13 65.1437 3930.5 64.7869 3930 64.275C3929.51 63.7632 3929.17 63.118 3929.03 62.4165C3927.26 53.8718 3923.39 46.5407 3917.69 40.9848C3911.06 34.5386 3902.2 30.9574 3893 31.0004C3884.82 31.0004 3877.27 33.7236 3871.18 38.8742C3867.01 42.4255 3863.7 46.886 3861.49 51.9196C3861.25 52.4599 3860.89 52.9352 3860.43 53.3063C3859.98 53.6773 3859.44 53.9334 3858.87 54.0535C3852.64 55.3603 3847.1 58.0905 3842.92 61.9389C3837.09 67.3132 3834 74.6605 3834 83.182C3834 91.5683 3837.31 99.2278 3843.33 104.751C3849.13 110.072 3856.95 113 3865.34 113Z" fill="#E6E6E6"/>
<path d="M4031.06 161H3935.59C3923.71 161 3913.48 157.835 3906 151.852C3897.49 145.038 3893 134.923 3893 122.591C3893 101.33 3908.42 89.1384 3925.15 85.3825C3926.25 85.1303 3927.26 84.5646 3928.05 83.7531C3928.83 82.9417 3929.37 81.9187 3929.6 80.8066C3932.42 67.2601 3938.58 55.6377 3947.66 46.8295C3958.23 36.61 3972.34 30.9325 3987 31.0006C4000.04 31.0006 4012.06 35.3179 4021.77 43.4835C4028.4 49.1135 4033.68 56.1851 4037.21 64.1652C4037.58 65.0218 4038.16 65.7754 4038.89 66.3636C4039.61 66.9518 4040.47 67.3579 4041.38 67.5482C4051.29 69.62 4060.13 73.9484 4066.78 80.0495C4076.08 88.5697 4081 100.218 4081 113.727C4081 127.023 4075.72 139.166 4066.13 147.923C4056.9 156.358 4044.44 161 4031.06 161Z" fill="#E6E6E6"/>
<path d="M4175.84 132H4219.52C4224.95 132 4229.63 130.539 4233.05 127.778C4236.94 124.633 4239 119.964 4239 114.273C4239 104.46 4231.95 98.8331 4224.29 97.0996C4223.79 96.9832 4223.33 96.7221 4222.97 96.3476C4222.61 95.9731 4222.36 95.5009 4222.26 94.9877C4220.97 88.7354 4218.15 83.3712 4214 79.3059C4209.16 74.5892 4202.71 71.9688 4196 72.0003C4190.04 72.0003 4184.54 73.9929 4180.1 77.7616C4177.06 80.3601 4174.65 83.6239 4173.03 87.307C4172.86 87.7024 4172.6 88.0502 4172.26 88.3217C4171.93 88.5932 4171.54 88.7806 4171.12 88.8684C4166.59 89.8246 4162.55 91.8223 4159.5 94.6382C4155.25 98.5706 4153 103.947 4153 110.182C4153 116.318 4155.42 121.923 4159.8 125.964C4164.03 129.857 4169.72 132 4175.84 132Z" fill="#E6E6E6"/>
<path d="M4365.34 113H4295.27C4286.54 113 4279.03 110.663 4273.54 106.245C4267.3 101.213 4264 93.7428 4264 84.6365C4264 68.9357 4275.32 59.933 4287.6 57.1594C4288.41 56.9731 4289.15 56.5554 4289.72 55.9562C4290.3 55.3569 4290.7 54.6015 4290.87 53.7803C4292.94 43.7767 4297.46 35.194 4304.12 28.6895C4311.88 21.1428 4322.24 16.9501 4333 17.0004C4342.57 17.0004 4351.39 20.1886 4358.52 26.2186C4363.39 30.3761 4367.27 35.5982 4369.85 41.4912C4370.13 42.1238 4370.55 42.6803 4371.09 43.1147C4371.62 43.5491 4372.25 43.8489 4372.92 43.9894C4380.19 45.5194 4386.68 48.7158 4391.56 53.2212C4398.39 59.513 4402 68.1148 4402 78.0911C4402 87.9092 4398.12 96.8764 4391.09 103.343C4384.31 109.572 4375.17 113 4365.34 113Z" fill="#E6E6E6"/>
<path d="M4528.66 168H4598.73C4607.46 168 4614.97 165.663 4620.46 161.245C4626.7 156.213 4630 148.743 4630 139.636C4630 123.936 4618.68 114.933 4606.4 112.159C4605.59 111.973 4604.85 111.555 4604.28 110.956C4603.7 110.357 4603.3 109.602 4603.13 108.78C4601.06 98.7767 4596.54 90.194 4589.88 83.6895C4582.12 76.1428 4571.76 71.9501 4561 72.0004C4551.43 72.0004 4542.61 75.1886 4535.48 81.2186C4530.61 85.3761 4526.73 90.5982 4524.15 96.4912C4523.87 97.1238 4523.45 97.6803 4522.91 98.1147C4522.38 98.5491 4521.75 98.8489 4521.08 98.9894C4513.81 100.519 4507.32 103.716 4502.44 108.221C4495.61 114.513 4492 123.115 4492 133.091C4492 142.909 4495.88 151.876 4502.91 158.343C4509.69 164.572 4518.83 168 4528.66 168Z" fill="#E6E6E6"/>
<path d="M4744.38 193H4789.06C4794.63 193 4799.41 191.515 4802.91 188.707C4806.9 185.51 4809 180.764 4809 174.977C4809 165.001 4801.78 159.28 4793.95 157.518C4793.44 157.4 4792.97 157.134 4792.6 156.753C4792.23 156.373 4791.97 155.893 4791.87 155.371C4790.55 149.014 4787.67 143.561 4783.41 139.428C4778.47 134.632 4771.86 131.968 4765 132C4758.9 132 4753.27 134.026 4748.73 137.858C4745.62 140.499 4743.15 143.818 4741.5 147.562C4741.32 147.964 4741.05 148.318 4740.71 148.594C4740.37 148.87 4739.97 149.06 4739.55 149.15C4734.9 150.122 4730.77 152.153 4727.66 155.016C4723.3 159.013 4721 164.479 4721 170.818C4721 177.057 4723.47 182.755 4727.96 186.864C4732.28 190.822 4738.11 193 4744.38 193Z" fill="#E6E6E6"/>
<path d="M4928.55 125H5019.45C5030.76 125 5040.5 121.957 5047.62 116.204C5055.72 109.652 5060 99.9255 5060 88.0684C5060 67.6246 5045.32 55.9023 5029.39 52.2908C5028.34 52.0483 5027.38 51.5044 5026.63 50.7242C5025.88 49.9439 5025.37 48.9603 5025.15 47.891C5022.47 34.8655 5016.6 23.6901 5007.96 15.2207C4997.89 5.39424 4984.46 -0.0649438 4970.5 0.000583138C4958.09 0.000583138 4946.64 4.15184 4937.4 12.0034C4931.08 17.4169 4926.05 24.2164 4922.7 31.8896C4922.34 32.7133 4921.79 33.4379 4921.1 34.0035C4920.41 34.5691 4919.59 34.9595 4918.72 35.1425C4909.28 37.1346 4900.87 41.2966 4894.54 47.163C4885.68 55.3554 4881 66.5557 4881 79.5457C4881 92.3297 4886.03 104.006 4895.16 112.425C4903.95 120.536 4915.81 125 4928.55 125Z" fill="#E6E6E6"/>
</svg>
