<svg width="872" height="207" viewBox="0 0 872 207" fill="none" xmlns="http://www.w3.org/2000/svg">
<path d="M358.666 137H407.155L414.986 127.894V119.707C414.986 119.707 406.655 105.922 401.572 104.084L399.74 98.5702C399.74 98.5702 403.489 96.8994 403.655 89.7982C403.655 89.7982 407.904 89.6311 408.321 86.6236C408.737 83.616 414.986 35.7459 414.986 35.7459C414.986 35.7459 415.736 31.8194 406.238 31.8194C406.238 31.8194 393.824 27.7258 382.077 31.8194L369.247 44.3508L369.413 56.2975L354 71.7529V80.692L357.499 83.5325V97.15C357.499 97.15 354 100.158 354 106.507C354 112.856 359.165 114.109 359.165 114.109H364.331V118.203L358.749 124.886L358.666 137Z" fill="#B3B3B3" fill-opacity="0.5"/>
<path d="M279.6 128.078H337.8L347.2 117.178V107.378C347.2 107.378 337.2 90.8778 331.1 88.6778L328.9 82.0778C328.9 82.0778 333.4 80.0778 333.6 71.5778C333.6 71.5778 338.7 71.3778 339.2 67.7778C339.7 64.1778 347.2 6.87778 347.2 6.87778C347.2 6.87778 348.1 2.17778 336.7 2.17778C336.7 2.17778 321.8 -2.72222 307.7 2.17778L292.3 17.1778L292.5 31.4778L274 49.9778V60.6778L278.2 64.0778V80.3778C278.2 80.3778 274 83.9778 274 91.5778C274 99.1778 280.2 100.678 280.2 100.678H286.4V105.578L279.7 113.578L279.6 128.078Z" fill="#B3B3B3"/>
<path d="M549.6 128.078H607.8L617.2 117.178V107.378C617.2 107.378 607.2 90.8778 601.1 88.6778L598.9 82.0778C598.9 82.0778 603.4 80.0778 603.6 71.5778C603.6 71.5778 608.7 71.3778 609.2 67.7778C609.7 64.1778 617.2 6.87778 617.2 6.87778C617.2 6.87778 618.1 2.17778 606.7 2.17778C606.7 2.17778 591.8 -2.72222 577.7 2.17778L562.3 17.1778L562.5 31.4778L544 49.9778V60.6778L548.2 64.0778V80.3778C548.2 80.3778 544 83.9778 544 91.5778C544 99.1778 550.2 100.678 550.2 100.678H556.4V105.578L549.7 113.578L549.6 128.078Z" fill="#B3B3B3"/>
<path d="M525.641 119.066C543.225 123.133 761.471 126.182 872 127.199V207H26.0299L27.0042 142.448C27.0042 135.941 9.00142 121.438 0 115C26.6274 122.319 103.621 120.761 138.789 119.066C176.888 117.711 257.985 115.813 277.579 119.066C297.135 122.313 433.021 126.505 498.893 128.206C492.608 127.88 489.41 119.321 488.588 115C504.556 121.266 525.688 126.149 535.267 128.014C532.183 126.936 527.695 121.787 525.641 119.066Z" fill="#3F6E22"/>
<path d="M26.0299 207L26.6034 169C59.6292 156.284 245.524 147.826 282.106 151.386C318.689 154.947 395.41 178.852 467.051 181.904C524.363 184.345 754.123 166.645 872 157.49V207H26.0299Z" fill="#633217"/>
</svg>
