<svg width="1114" height="111" viewBox="0 0 1114 111" fill="none" xmlns="http://www.w3.org/2000/svg">
<g clip-path="url(#clip0_1_3)">
<path d="M1081.93 42.1658H1109.74C1112.35 41.6152 1113.76 39.4911 1114.08 35.7938V22.2629C1114.08 9.44011 1111.01 2.04536 1104.78 0H1039.93C1033.78 2.04536 1030.63 9.44011 1030.63 22.2629V31.231C1031.1 42.5592 1032.91 49.8753 1035.99 53.022L1075.78 70.3288C1076.96 71.1155 1077.52 72.6889 1077.52 75.1276V79.769H1067.11V75.1276C1066.8 71.4302 1065.38 69.3848 1062.78 68.7555H1034.96C1032.36 69.3062 1030.94 71.4302 1030.63 75.1276V88.7371C1030.63 101.56 1033.7 108.955 1039.93 111H1104.78C1110.93 108.955 1114.08 101.56 1114.08 88.7371V79.769C1113.61 68.4408 1111.79 61.1247 1108.72 57.978L1068.93 40.6712C1067.74 39.8845 1067.19 38.3111 1067.19 35.8724V31.231H1077.59V35.8724C1077.83 39.4911 1079.33 41.6152 1081.93 42.1658Z" fill="#E6E6E6"/>
<path d="M74.0723 0H9.29844C3.07321 2.04536 0 9.44011 0 22.2629V88.7371C0 101.56 3.07321 108.955 9.29844 111H74.0723C80.2187 108.955 83.3707 101.56 83.3707 88.7371V71.1155C83.0555 67.4181 81.6371 65.3728 79.0367 64.7434H51.2202C48.6198 65.2941 47.2014 67.4181 46.8862 71.1155V79.4543H36.1693V31.467H46.8862V39.8845C47.2014 43.5819 48.6198 45.6272 51.2202 46.2566H79.0367C81.6371 45.7059 83.0555 43.5819 83.3707 39.8845V22.2629C83.3707 9.44011 80.2975 2.04536 74.0723 0Z" fill="#E6E6E6"/>
<path d="M160.674 0H105.671C101.495 0.865344 98.8156 3.1467 97.5548 6.92275L91.4872 104.628C91.8024 108.325 93.2208 110.371 95.8212 111H123.638C126.238 110.449 127.657 108.325 127.972 104.628L128.839 91.8838H137.664L138.373 104.628C138.689 108.325 140.107 110.371 142.707 111H170.524C173.124 110.449 174.543 108.325 174.858 104.628L168.79 6.92275C167.529 3.1467 164.771 0.865344 160.674 0ZM130.415 68.7555L132.621 30.9164H134.355L136.246 68.7555H130.415Z" fill="#E6E6E6"/>
<path d="M249.797 55.4607C259.962 52.8646 265.399 47.7512 266.266 40.1205V22.2629C266.345 9.44011 263.193 2.04536 257.047 0H187.308C184.708 0.550673 183.29 2.6747 182.974 6.37208V104.628C183.29 108.325 184.708 110.371 187.308 111H215.125C217.725 110.449 219.144 108.325 219.459 104.628V69.0702H222.374C224.187 69.3848 225.29 70.4075 225.526 72.2169L230.412 104.549C230.727 108.247 232.146 110.292 234.746 110.921H262.563C265.163 110.371 266.581 108.247 266.897 104.549L261.144 66.3955C259.647 60.9674 255.865 57.3487 249.797 55.4607ZM230.097 38.4685C229.782 40.5925 228.757 41.7725 226.945 41.9298H219.38V31.231H230.097V38.4685Z" fill="#E6E6E6"/>
<path d="M342.466 79.4543H311.813V6.37208C311.498 2.6747 310.079 0.629341 307.479 0H279.978C277.377 0.550673 275.959 2.6747 275.643 6.37208V104.628C275.959 108.325 277.377 110.371 279.978 111H342.466C346.17 110.685 348.219 109.269 348.849 106.673V83.8597C348.219 81.185 346.091 79.769 342.466 79.4543Z" fill="#E6E6E6"/>
<path d="M431.589 0H366.737C360.59 2.04536 357.438 9.44011 357.438 22.2629V88.7371C357.438 101.56 360.511 108.955 366.737 111H431.589C437.736 108.955 440.888 101.56 440.888 88.7371V22.2629C440.888 9.44011 437.736 2.04536 431.589 0ZM404.403 79.4543H393.686V31.467H404.403V79.4543Z" fill="#E6E6E6"/>
<path d="M784.063 0H719.21C713.064 2.04536 709.912 9.44011 709.912 22.2629V88.7371C709.912 101.56 712.985 108.955 719.21 111H784.063C790.21 108.955 793.362 101.56 793.362 88.7371V22.2629C793.283 9.44011 790.21 2.04536 784.063 0ZM756.798 79.4543H746.081V31.467H756.798V79.4543Z" fill="#E6E6E6"/>
<path d="M868.852 55.4607C879.017 52.8646 884.455 47.7512 885.322 40.1205V22.2629C885.322 9.44011 882.248 2.04536 876.023 0H806.285C803.684 0.550673 802.266 2.6747 801.951 6.37208V104.628C802.266 108.325 803.684 110.371 806.285 111H834.101C836.702 110.449 838.12 108.325 838.435 104.628V69.0702H841.351C843.163 69.3848 844.267 70.4075 844.503 72.2169L849.389 104.549C849.704 108.247 851.122 110.292 853.723 110.921H881.539C884.139 110.371 885.558 108.247 885.873 104.549L880.121 66.3955C878.702 60.9674 874.92 57.3487 868.852 55.4607ZM849.152 38.4685C848.837 40.5925 847.813 41.7725 846 41.9298H838.435V31.231H849.152V38.4685Z" fill="#E6E6E6"/>
<path d="M963.176 0H908.174C903.997 0.865344 901.318 3.1467 900.057 6.92275L893.99 104.628C894.305 108.325 895.723 110.371 898.324 111H926.14C928.741 110.449 930.159 108.325 930.474 104.628L931.341 91.8838H940.167L940.876 104.628C941.191 108.325 942.609 110.371 945.21 111H973.026C975.627 110.449 977.045 108.325 977.36 104.628L971.293 6.92275C970.032 3.1467 967.353 0.865344 963.176 0ZM932.996 68.7555L935.202 30.9164H936.936L938.827 68.7555H932.996Z" fill="#E6E6E6"/>
<path d="M1017.63 0H989.811C987.21 0.550673 985.792 2.6747 985.477 6.37208V104.628C985.792 108.325 987.21 110.371 989.811 111H1017.63C1020.23 110.449 1021.65 108.325 1021.96 104.628V6.37208C1021.65 2.6747 1020.23 0.550673 1017.63 0Z" fill="#E6E6E6"/>
<path d="M687.927 0H648.527C645.138 0.0786676 643.089 1.73069 642.459 4.87739L636.707 41.3005H636.155L630.403 4.87739C629.93 1.73069 628.117 0.0786676 624.886 0H603.138C600.458 20.3749 597.7 40.8285 597.464 43.2672C596.834 48.3019 589.584 48.6166 589.584 48.6166C589.269 60.5741 582.965 63.4061 582.965 63.4061L586.117 72.5315C593.603 75.2849 605.423 93.5358 608.26 98.0198L611.333 45.0765H612.2L620.868 104.628C621.183 108.325 622.601 110.371 625.202 111H648.054C650.654 110.449 652.073 108.325 652.388 104.628L661.056 45.0765H661.923L665.39 104.628C665.705 108.325 667.123 110.371 669.724 111H697.54C700.141 110.449 701.559 108.325 701.874 104.628L696.043 6.92275C694.782 3.1467 692.103 0.865344 687.927 0Z" fill="#E6E6E6"/>
<path d="M523.392 0H458.775C452.629 2.04536 449.477 9.44011 449.477 22.2629V31.231C449.95 42.5592 451.762 49.8753 454.835 53.022L494.63 70.3288C495.812 71.1155 496.363 72.6889 496.363 75.1276V79.769H485.962V75.1276C485.646 71.4302 484.228 69.3848 481.628 68.7555H453.89C451.289 69.3062 449.871 71.4302 449.556 75.1276V88.7371C449.556 101.56 452.629 108.955 458.854 111H513.463L513.542 107.853L522.998 96.5252V89.6024H514.172C514.172 89.6024 505.346 87.3997 505.346 76.7009C505.346 66.0021 511.335 60.9674 511.335 60.9674V50.8193L487.853 40.5925C486.671 39.8058 486.119 38.2325 486.119 35.7938V31.1524H496.442V35.7938C496.757 39.4911 498.176 41.5365 500.776 42.1658H511.256V37.9178L505.268 33.1977V18.0935L523.392 0Z" fill="#E6E6E6"/>
</g>
<defs>
<clipPath id="clip0_1_3">
<rect width="1114" height="111" fill="white"/>
</clipPath>
</defs>
</svg>
