<svg width="5144" height="62" viewBox="0 0 5144 62" fill="none" xmlns="http://www.w3.org/2000/svg">
<path d="M512.05 0C326.832 0 93.5091 10.0813 0 15.122V62H5144V15.122C5119.66 20.1626 5033.19 30.2439 4881.97 30.2439C4692.96 30.2439 4430.93 15.122 4211.41 15.122C4035.79 15.122 3699.53 5.04065 3553.35 0C3297.32 0 3077.8 30.2439 2663.26 30.2439C2331.63 30.2439 2131.04 10.0813 2072.2 0C1846.68 0 1712.67 15.122 1487.14 15.122C1261.62 15.122 1017.6 30.2439 877.585 30.2439C737.572 30.2439 743.572 0 512.05 0Z" fill="#2D6699"/>
</svg>
