<svg width="148" height="177" viewBox="0 0 148 177" fill="none" xmlns="http://www.w3.org/2000/svg">
<path d="M60.5301 165.361L118.004 174.528L129.003 165.244L130.547 155.566C130.547 155.566 123.27 137.697 117.593 134.564L116.46 127.7C116.46 127.7 121.218 126.434 122.755 118.071C122.755 118.071 127.822 118.677 128.883 115.201C129.944 111.724 146.375 56.3206 146.375 56.3206C146.375 56.3206 148.004 51.821 136.746 50.0255C136.746 50.0255 122.804 42.84 108.108 45.4582L90.5378 57.8456L88.4831 71.9986L67.3004 87.354L65.6152 97.9205L69.2273 101.94L66.6601 118.036C66.6601 118.036 61.9455 120.93 60.7486 128.435C59.5516 135.94 65.438 138.398 65.438 138.398L71.5606 139.374L70.7889 144.213L62.9125 151.058L60.5301 165.361Z" fill="#B3B3B3"/>
<path d="M30.5167 18.9531V28.486H0L10.3227 9.08169H1.35379V0H30.686L20.5889 18.9531H30.5167Z" fill="white"/>
<path d="M49.7519 43.1521V49.1313H30.686L37.1166 37.0036H31.4757V31.3064H49.8084L43.4907 43.1521H49.7519Z" fill="white"/>
<path d="M64.8128 60.8077V64.6999H52.4595L56.6337 56.8592H52.9671V53.1362H64.8692L60.7514 60.8077H64.8128Z" fill="white"/>
</svg>
