<svg width="897" height="1024" viewBox="0 0 897 1024" fill="none" xmlns="http://www.w3.org/2000/svg">
<path d="M0.0533855 567.199C-1.53238 539.33 32.5946 177.454 51.0952 0H897V1024H39.2018V910.168C39.2018 864.537 2.03559 602.035 0.0533855 567.199Z" fill="#633217"/>
<path d="M221 741C201 727 81.3333 735.167 21 741L12.5 674C38.1667 669.667 87.6 658.8 110 646C138 630 155 525 148 495.5C141 466 110 386 110 348C110 310 75 281 64.5 254.5C54 228 79.5 160 97 133.5C114.5 107 164 98.5 189 101.5C214 104.5 365.5 79.5 397.5 68C429.5 56.5 650 76.5 686.5 87C723 97.5 771.5 151 768.5 181.5C765.5 212 800.5 262 832.5 317.5C864.5 373 859 834.5 832.5 875.5C806 916.5 594.5 922 555.5 910.5C516.5 899 444.5 830 421 825.5C397.5 821 380 787.5 365.5 786C351 784.5 246 758.5 221 741Z" fill="#2A1509"/>
</svg>
