<svg width="101" height="592" viewBox="0 0 101 592" fill="none" xmlns="http://www.w3.org/2000/svg">
<rect x="86" y="7" width="2" height="571" fill="black"/>
<rect y="2" width="2" height="81" transform="rotate(-90 0 2)" fill="black"/>
<circle cx="81" cy="7" r="7" fill="#D9D9D9"/>
<circle cx="87" cy="578" r="14" fill="#BE2222"/>
<path d="M101 578C101 579.839 100.638 581.659 99.9343 583.358C99.2307 585.056 98.1995 586.599 96.8995 587.899C95.5995 589.2 94.0561 590.231 92.3576 590.934C90.659 591.638 88.8385 592 87 592C85.1615 592 83.341 591.638 81.6424 590.934C79.9439 590.231 78.4005 589.2 77.1005 587.899C75.8005 586.599 74.7693 585.056 74.0657 583.358C73.3621 581.659 73 579.839 73 578L87 578H101Z" fill="white"/>
<circle cx="87" cy="402" r="14" fill="#BE2222"/>
<path d="M101 402C101 403.839 100.638 405.659 99.9343 407.358C99.2307 409.056 98.1995 410.599 96.8995 411.899C95.5995 413.2 94.0561 414.231 92.3576 414.934C90.659 415.638 88.8385 416 87 416C85.1615 416 83.341 415.638 81.6424 414.934C79.9439 414.231 78.4005 413.2 77.1005 411.899C75.8005 410.599 74.7693 409.056 74.0657 407.358C73.3621 405.659 73 403.839 73 402L87 402H101Z" fill="white"/>
</svg>
