<svg width="82" height="139" viewBox="0 0 82 139" fill="none" xmlns="http://www.w3.org/2000/svg">
<path d="M5.6 138.205H63.8L73.2 127.305V117.505C73.2 117.505 63.2 101.005 57.1 98.8046L54.9 92.3046C54.9 92.3046 59.4 90.3046 59.6 81.8046C59.6 81.8046 64.7 81.6046 65.2 78.0046C65.6 74.4046 73.2 17.1046 73.2 17.1046C73.2 17.1046 74.1 12.4046 62.7 12.4046C62.7 12.4046 47.8 7.50458 33.7 12.4046L18.3 27.4046L18.5 41.7046L0 60.1046V70.8046L4.2 74.2046V90.5046C4.2 90.5046 0 94.1046 0 101.705C0 109.305 6.2 110.805 6.2 110.805H12.4V115.705L5.7 123.705L5.6 138.205Z" fill="#B3B3B3"/>
<path d="M77.6 6.1046C68.4 -3.9954 47.1 1.0046 38 3.1046C36.9 3.4046 35.6 3.7046 35.4 3.7046C34.1 3.7046 30.6 3.9046 13.9 25.8046H11.5C9.8 25.8046 8.5 27.1046 8.5 28.8046C8.5 30.5046 9.8 31.8046 11.5 31.8046H79L79.7 29.7046C83 19.1046 82.4 11.2046 77.6 6.1046Z" fill="#FF9D00"/>
<path d="M63.0144 84.3914L10.3952 126.503L14.144 131.187L66.7632 89.0756L63.0144 84.3914Z" fill="#633415"/>
<path d="M43.2 71.0045L46.4 65.9045C47.5 66.6045 72.3 82.8045 79.8 107.705L74 109.405C67.2 86.6045 43.4 71.1045 43.2 71.0045Z" fill="#F2F2F2"/>
</svg>
